COMMENT @(#)57	1.2  src/bos/usr/lpp/tls/fonts/Chtpd23.bdf, cmdtw, bos411, 9428A410j 2/24/94 13:39:38
COMMENT
COMMENT   COMPONENT_NAME: cmdtw
COMMENT
COMMENT   FUNCTIONS: none
COMMENT
COMMENT   ORIGINS: 27
COMMENT
COMMENT   IBM CONFIDENTIAL -- (IBM Confidential Restricted when
COMMENT   combined with the aggregated modules for this product)
COMMENT                    SOURCE MATERIALS
COMMENT
COMMENT   (C) COPYRIGHT International Business Machines Corp. 1992
COMMENT   All Rights Reserved
COMMENT   US Government Users Restricted Rights - Use, duplication or
COMMENT   disclosure restricted by GSA ADP Schedule Contract with IBM Corp.
COMMENT
STARTFONT 2.1
FONT  -IBM_AIX-Sung-Medium-R-Normal--35-230-100-100-M-340-IBM-sbdTW
SIZE 35 100 100
FONTBOUNDINGBOX 34 35 0 -4
STARTPROPERTIES 20
FONTNAME_REGISTRY "_"
FOUNDRY "IBM_AIX "
FAMILY_NAME "Sung"
WEIGHT_NAME "Medium "
SLANT "R"
SETWIDTH_NAME "Normal"
ADD_STYLE_NAME ""
PIXEL_SIZE 35
POINT_SIZE 230
RESOLUTION_X 100
RESOLUTION_Y 100
SPACING "M"
AVERAGE_WIDTH 340
CHARSET_REGISTRY "IBM"
CHARSET_ENCODING "sbdTW"
FONT_ASCENT 31
FONT_DESCENT 4
DEFAULT_CHAR 0
CAP_HEIGHT 35
COPYRIGHT "Copyright, 1992 by IBM."
ENDPROPERTIES
CHARS 325
STARTCHAR 2121
ENCODING 8481
SWIDTH 1020 0
DWIDTH 34 0
BBX 34 35 0 -4
BITMAP
0000000000
0800000000
0600000000
8300000000
6180000000
31c0000000
1880000000
1c00000000
0800000000
0000000000
0000000000
0000000000
0000000000
0000000000
0000000000
0000000000
0000000000
0000000000
0000000000
0000000000
0000000000
0000000000
0000000000
0000000000
0000000000
0000000000
0000000000
0000000000
0000000000
0000000000
0000000000
0000000000
0000000000
0000000000
0000000000
ENDCHAR
STARTCHAR 2122
ENCODING 8482
SWIDTH 1020 0
DWIDTH 34 0
BBX 34 35 0 -4
BITMAP
0000000000
3c00000000
4200000000
8100000000
8100000000
8100000000
8100000000
4200000000
3c00000000
0000000000
0000000000
0000000000
0000000000
0000000000
0000000000
0000000000
0000000000
0000000000
0000000000
0000000000
0000000000
0000000000
0000000000
0000000000
0000000000
0000000000
0000000000
0000000000
0000000000
0000000000
0000000000
0000000000
0000000000
0000000000
0000000000
ENDCHAR
STARTCHAR 2123
ENCODING 8483
SWIDTH 1020 0
DWIDTH 34 0
BBX 34 35 0 -4
BITMAP
0000000000
0000000000
00381c0000
007c3e0000
007c3e0000
007c3e0000
00381c0000
0000000000
0000000000
0000000000
0000000000
0000000000
0000000000
0000000000
0000000000
0000000000
0000000000
0000000000
0000000000
0000000000
0000000000
0000000000
0000000000
0000000000
0000000000
0000000000
0000000000
0000000000
0000000000
0000000000
0000000000
0000000000
0000000000
0000000000
0000000000
ENDCHAR
STARTCHAR 2124
ENCODING 8484
SWIDTH 1020 0
DWIDTH 34 0
BBX 34 35 0 -4
BITMAP
0000000000
0001800000
0003c00000
0006600000
000c300000
0018180000
00300c0000
0000000000
0000000000
0000000000
0000000000
0000000000
0000000000
0000000000
0000000000
0000000000
0000000000
0000000000
0000000000
0000000000
0000000000
0000000000
0000000000
0000000000
0000000000
0000000000
0000000000
0000000000
0000000000
0000000000
0000000000
0000000000
0000000000
0000000000
0000000000
ENDCHAR
STARTCHAR 2125
ENCODING 8485
SWIDTH 1020 0
DWIDTH 34 0
BBX 34 35 0 -4
BITMAP
0000000000
0000000000
0000000000
0000000000
0000000000
0000000000
0000000000
0000000000
0000000000
0000000000
0000000000
0060000000
0018000000
000c000000
0006000000
0003000000
0003800000
0001c00000
0000e00000
0000e00000
0000700000
0000700000
0000200000
0000000000
0000000000
0000000000
0000000000
0000000000
0000000000
0000000000
0000000000
0000000000
0000000000
0000000000
0000000000
ENDCHAR
STARTCHAR 2126
ENCODING 8486
SWIDTH 1020 0
DWIDTH 34 0
BBX 34 35 0 -4
BITMAP
0000000000
0000000000
0000000000
0000000000
0000000000
0000000000
0000000000
0000300000
00001c0000
00000e0000
0001840000
0000e00000
00c0700000
0030200000
0018000000
000c000000
0006000000
0007000000
0003800000
0001c00000
0001c00000
0000e00000
0000e00000
0000400000
0000000000
0000000000
0000000000
0000000000
0000000000
0000000000
0000000000
0000000000
0000000000
0000000000
0000000000
ENDCHAR
STARTCHAR 2127
ENCODING 8487
SWIDTH 1020 0
DWIDTH 34 0
BBX 34 35 0 -4
BITMAP
0000000000
0000000000
0000000000
0000000000
0000000000
0000000000
0000000000
0000000000
0000000000
0020000000
0020000000
0010000000
0018000000
000c000000
000e000000
0007000000
0003800000
0001e00000
0000700000
0000380000
00001e0000
00000f0000
0000078000
00001f8000
00007c0000
0001e00000
000e000000
0000000000
0000000000
0000000000
0000000000
0000000000
0000000000
0000000000
0000000000
ENDCHAR
STARTCHAR 2128
ENCODING 8488
SWIDTH 1020 0
DWIDTH 34 0
BBX 34 35 0 -4
BITMAP
0000000000
0000000000
0000000000
0000000000
0000000000
0000000000
0000000000
0000000000
00000c0000
0040070000
0040038000
002031c000
00301c8000
00180e0000
001c070000
000e020000
0007000000
0003c00000
0000e00000
0000700000
00003c0000
00001e0000
00000f0000
00003f0000
0000f80000
0003c00000
001c000000
0000000000
0000000000
0000000000
0000000000
0000000000
0000000000
0000000000
0000000000
ENDCHAR
STARTCHAR 2129
ENCODING 8489
SWIDTH 1020 0
DWIDTH 34 0
BBX 34 35 0 -4
BITMAP
0000000000
0000000000
0000000000
0000000000
0000000000
0000000000
0000000000
0008080000
000c0c0000
000e0e0000
000e0e0000
000c0c0000
000c0c0000
000c0c0000
001c1c0000
0018180000
0018180000
0018180000
0030300000
0030300000
0020200000
0060600000
0040400000
0080800000
0000000000
0000000000
0000000000
0000000000
0000000000
0000000000
0000000000
0000000000
0000000000
0000000000
0000000000
ENDCHAR
STARTCHAR 212a
ENCODING 8490
SWIDTH 1020 0
DWIDTH 34 0
BBX 34 35 0 -4
BITMAP
0000000000
0003000000
0003c00000
0003800000
0007800000
0007c00000
000e400000
001c600000
001c300000
0038180000
00701c0000
00e00e0000
01c0070000
0380038000
070001c000
0e0000f000
1800027c00
7000073f00
c3ffff9c00
0003000800
0003000000
0003000000
0003000000
0003000000
0003000000
0003000000
0003000000
0003000000
0003000400
0003000e00
ffffffff00
0000000000
0000000000
0000000000
0000000000
ENDCHAR
STARTCHAR 212b
ENCODING 8491
SWIDTH 1020 0
DWIDTH 34 0
BBX 34 35 0 -4
BITMAP
0000000000
0000000000
0000000000
0000000000
0000000000
0006000000
0003000000
0003800000
0007000000
000700c000
000e1fe000
000ff0f000
001c00e000
001c01c000
0038018000
0030038000
0060030000
00e0060000
00c0060000
01800c0000
030c180000
0603300000
0801c00000
0000e00000
0000700000
0000380000
00001c0000
00001e0000
00000e0000
0000040000
0000000000
0000000000
0000000000
0000000000
0000000000
ENDCHAR
STARTCHAR 212c
ENCODING 8492
SWIDTH 1020 0
DWIDTH 34 0
BBX 34 35 0 -4
BITMAP
0000000000
0000000000
0000000000
0000030000
0000018000
000001c000
000001c000
000001c000
0000038000
0000038000
0000070000
0000060000
003f0e0000
00e18c0000
0180780000
0100300000
03007c0000
02004e0000
0200c70000
0601838000
040301c000
040601e000
0c0c00c000
0c18000000
0c30000000
1c60000000
1cc0000000
1f80000000
3f00000000
1c00000000
0800000000
0000000000
0000000000
0000000000
0000000000
ENDCHAR
STARTCHAR 212d
ENCODING 8493
SWIDTH 1020 0
DWIDTH 34 0
BBX 34 35 0 -4
BITMAP
0000000000
0000000000
0000000000
0000000000
0000000000
0000000000
000ff00000
00781e0000
01c0038000
030000c000
0600006000
0c00003000
0800001000
0800001000
1800001800
1000000800
1000000800
1000000800
1000000800
1800001800
0800001000
0800001000
0c00003000
0600006000
030000c000
01c0038000
00781e0000
000ff00000
0000000000
0000000000
0000000000
0000000000
0000000000
0000000000
0000000000
ENDCHAR
STARTCHAR 212e
ENCODING 8494
SWIDTH 1020 0
DWIDTH 34 0
BBX 34 35 0 -4
BITMAP
0000000000
0000000000
0000000000
0000000000
0000000000
0000000000
0000000000
0000000000
0000000000
0000000000
0000000000
0000000000
0000000000
0000000000
000003c000
30007ff000
1ffffff800
0fff800c00
03c0000000
0000000000
0000000000
0000000000
0000000000
0000000000
0000000000
0000000000
0000000000
0000000000
0000000000
0000000000
0000000000
0000000000
0000000000
0000000000
0000000000
ENDCHAR
STARTCHAR 212f
ENCODING 8495
SWIDTH 1020 0
DWIDTH 34 0
BBX 34 35 0 -4
BITMAP
0000000000
0000000000
0000000000
0000000000
0000000000
0000000000
0000000000
0000000000
0000000000
0000000000
0000000000
0000000000
0000000000
0000000000
0000000000
0000000000
003ffc0000
003ffc0000
0000000000
0000000000
0000000000
0000000000
0000000000
0000000000
0000000000
0000000000
0000000000
0000000000
0000000000
0000000000
0000000000
0000000000
0000000000
0000000000
0000000000
ENDCHAR
STARTCHAR 2130
ENCODING 8496
SWIDTH 1020 0
DWIDTH 34 0
BBX 34 35 0 -4
BITMAP
0000000000
000007f800
0000040000
0000040000
0000040000
0000040000
0000040000
0000040000
0000040000
0000040000
0000040000
0000040000
0000040000
0000040000
0000040000
0000040000
0000040000
0000040000
0000040000
0000040000
0000040000
0000040000
0000040000
0000040000
0000040000
0000040000
0000040000
0000040000
0000040000
0000040000
0000040000
0000040000
000007f800
0000000000
0000000000
ENDCHAR
STARTCHAR 2131
ENCODING 8497
SWIDTH 1020 0
DWIDTH 34 0
BBX 34 35 0 -4
BITMAP
0000000000
1fe0000000
0020000000
0020000000
0020000000
0020000000
0020000000
0020000000
0020000000
0020000000
0020000000
0020000000
0020000000
0020000000
0020000000
0020000000
0020000000
0020000000
0020000000
0020000000
0020000000
0020000000
0020000000
0020000000
0020000000
0020000000
0020000000
0020000000
0020000000
0020000000
0020000000
0020000000
1fe0000000
0000000000
0000000000
ENDCHAR
STARTCHAR 2132
ENCODING 8498
SWIDTH 1020 0
DWIDTH 34 0
BBX 34 35 0 -4
BITMAP
0000000000
0200000000
0300000000
0780000000
0700000000
0e00000000
0c00000000
1800000000
1000000000
2000000000
0000000000
0000000000
0000000000
0000000000
0000000000
0000000000
0000000000
0000000000
0000000000
0000000000
0000000000
0000000000
0000000000
0000000000
0000000000
0000000000
0000000000
0000000000
0000000000
0000000000
0000000000
0000000000
0000000000
0000000000
0000000000
ENDCHAR
STARTCHAR 2133
ENCODING 8499
SWIDTH 1020 0
DWIDTH 34 0
BBX 34 35 0 -4
BITMAP
0000000000
0410000000
0618000000
0f3c000000
0e38000000
1c70000000
1860000000
30c0000000
2080000000
4100000000
0000000000
0000000000
0000000000
0000000000
0000000000
0000000000
0000000000
0000000000
0000000000
0000000000
0000000000
0000000000
0000000000
0000000000
0000000000
0000000000
0000000000
0000000000
0000000000
0000000000
0000000000
0000000000
0000000000
0000000000
0000000000
ENDCHAR
STARTCHAR 2134
ENCODING 8500
SWIDTH 1020 0
DWIDTH 34 0
BBX 34 35 0 -4
BITMAP
0000000000
0000000000
0000000000
0000000000
0000000000
0000000000
0003800000
0007c00000
0007c00000
0307c18000
078383c000
07c387c000
07c107c000
03e10f8000
00e00e0000
0030180000
0000000000
0000000000
0000000000
0030180000
00e00e0000
03e10f8000
07c107c000
07c387c000
078383c000
0307c18000
0007c00000
0007c00000
0003800000
0000000000
0000000000
0000000000
0000000000
0000000000
0000000000
ENDCHAR
STARTCHAR 2135
ENCODING 8501
SWIDTH 1020 0
DWIDTH 34 0
BBX 34 35 0 -4
BITMAP
0000000000
0000000000
0000000000
0000000000
0000000000
0000000000
0000000000
3ffffffc00
3ffffffc00
3ffffffc00
3ffffffc00
3ffffffc00
3ffffffc00
3ffffffc00
0000000000
0000000000
0000000000
0000000000
0000000000
0000000000
3ffffffc00
3ffffffc00
3ffffffc00
3ffffffc00
3ffffffc00
3ffffffc00
3ffffffc00
0000000000
0000000000
0000000000
0000000000
0000000000
0000000000
0000000000
0000000000
ENDCHAR
STARTCHAR 2136
ENCODING 8502
SWIDTH 1020 0
DWIDTH 34 0
BBX 34 35 0 -4
BITMAP
0000000000
0000000000
0000000000
0000000000
0000000000
0000000000
0000000000
003ffff000
00fffff000
03c0000000
0300000000
0600000000
0600000000
0c00000000
0c00000000
0c00000000
0ffffff000
0ffffff000
0c00000000
0c00000000
0c00000000
0600000000
0600000000
0300000000
03c0000000
00fffff000
003ffff000
0000000000
0000000000
0000000000
0000000000
0000000000
0000000000
0000000000
0000000000
ENDCHAR
STARTCHAR 2137
ENCODING 8503
SWIDTH 1020 0
DWIDTH 34 0
BBX 34 35 0 -4
BITMAP
0000000000
0000000000
0000000000
0000000000
0000000000
0000000000
0000000000
0ffffc0000
0fffff0000
000003c000
000000c000
0000006000
0000006000
0000003000
0000003000
0000003000
0ffffff000
0ffffff000
0000003000
0000003000
0000003000
0000006000
0000006000
000000c000
000003c000
0fffff0000
0ffffc0000
0000000000
0000000000
0000000000
0000000000
0000000000
0000000000
0000000000
0000000000
ENDCHAR
STARTCHAR 2138
ENCODING 8504
SWIDTH 1020 0
DWIDTH 34 0
BBX 34 35 0 -4
BITMAP
0000000000
0000000000
0000000000
0000000000
0000000000
007ffff000
01fffff000
0380000000
0700000000
0600000000
0c00000000
0c00000000
0c00000000
0c00000000
0c00000000
0c00000000
0c00000000
0600000000
0700000000
0380000000
01fffff000
007ffff000
0000000000
0000000000
0000000000
0000000000
0000000000
0ffffff000
0ffffff000
0000000000
0000000000
0000000000
0000000000
0000000000
0000000000
ENDCHAR
STARTCHAR 2139
ENCODING 8505
SWIDTH 1020 0
DWIDTH 34 0
BBX 34 35 0 -4
BITMAP
0000000000
0000000000
0000000000
0000000000
0000000000
0ffffe0000
0fffff8000
000001c000
000000e000
0000006000
0000003000
0000003000
0000003000
0000003000
0000003000
0000003000
0000003000
0000006000
000000e000
000001c000
0fffff8000
0ffffe0000
0000000000
0000000000
0000000000
0000000000
0000000000
0ffffff000
0ffffff000
0000000000
0000000000
0000000000
0000000000
0000000000
0000000000
ENDCHAR
STARTCHAR 213a
ENCODING 8506
SWIDTH 1020 0
DWIDTH 34 0
BBX 34 35 0 -4
BITMAP
0000000000
0000000000
0000000000
0000000000
0000000000
0000000000
0000000000
0000000000
003ffff000
00fffff000
03c0000000
0300000000
0600000000
0600000000
0c00000000
0c00000000
0c00000000
0c00000000
0c00000000
0c00000000
0600000000
0600000000
0300000000
03c0000000
00fffff000
003ffff000
0000000000
0000000000
0000000000
0000000000
0000000000
0000000000
0000000000
0000000000
0000000000
ENDCHAR
STARTCHAR 213b
ENCODING 8507
SWIDTH 1020 0
DWIDTH 34 0
BBX 34 35 0 -4
BITMAP
0000000000
0000000000
0000000000
0000000000
0000000000
0000000000
0000000000
0000000000
0ffffc0000
0fffff0000
000003c000
000000c000
0000006000
0000006000
0000003000
0000003000
0000003000
0000003000
0000003000
0000003000
0000006000
0000006000
000000c000
000003c000
0fffff0000
0ffffc0000
0000000000
0000000000
0000000000
0000000000
0000000000
0000000000
0000000000
0000000000
0000000000
ENDCHAR
STARTCHAR 213c
ENCODING 8508
SWIDTH 1020 0
DWIDTH 34 0
BBX 34 35 0 -4
BITMAP
0000000000
0000000000
0000000000
0001800000
0001800000
0003c00000
0003c00000
0006600000
0006600000
000c300000
000c300000
0018180000
0018180000
00300c0000
00300c0000
0060060000
0060060000
00c0030000
00c0030000
0180018000
0180018000
030000c000
030000c000
0600006000
0600006000
0c00003000
0c00003000
1800001800
1800001800
0000000000
0000000000
0000000000
0000000000
0000000000
0000000000
ENDCHAR
STARTCHAR 213d
ENCODING 8509
SWIDTH 1020 0
DWIDTH 34 0
BBX 34 35 0 -4
BITMAP
0000000000
0000000000
0000000000
0000000000
0000000000
1800001800
1800001800
0c00003000
0c00003000
0600006000
0600006000
030000c000
030000c000
0180018000
0180018000
00c0030000
00c0030000
0060060000
0060060000
00300c0000
00300c0000
0018180000
0018180000
000c300000
000c300000
0006600000
0006600000
0003c00000
0003c00000
0001800000
0001800000
0000000000
0000000000
0000000000
0000000000
ENDCHAR
STARTCHAR 213e
ENCODING 8510
SWIDTH 1020 0
DWIDTH 34 0
BBX 34 35 0 -4
BITMAP
0000000000
0000000000
0000000000
0000000000
0000000000
0000000000
0000000000
0000040000
0000060000
0000030000
0000018000
000000c000
3fffffe000
3ffffff000
0000001800
0000000c00
0000000600
0000000300
0000000600
0000000c00
0000001800
3ffffff000
3fffffe000
000000c000
0000018000
0000030000
0000060000
0000040000
0000000000
0000000000
0000000000
0000000000
0000000000
0000000000
0000000000
ENDCHAR
STARTCHAR 213f
ENCODING 8511
SWIDTH 1020 0
DWIDTH 34 0
BBX 34 35 0 -4
BITMAP
0000000000
0000000000
0000000000
0000000000
0000000000
0000000000
0000000000
0020040000
0060060000
00c0030000
0180018000
030000c000
07ffffe000
0ffffff000
1800001800
3000000c00
6000000600
c000000300
6000000600
3000000c00
1800001800
0ffffff000
07ffffe000
030000c000
0180018000
00c0030000
0060060000
0020040000
0000000000
0000000000
0000000000
0000000000
0000000000
0000000000
0000000000
ENDCHAR
STARTCHAR 2140
ENCODING 8512
SWIDTH 1020 0
DWIDTH 34 0
BBX 34 35 0 -4
BITMAP
0000000000
0000000000
0000000000
0000000000
0000000000
1800001800
1800001800
0c00003000
0c00003000
0600006000
0600006000
030000c000
030000c000
01ffff8000
01ffff8000
00c0030000
00c0030000
0060060000
0060060000
00300c0000
00300c0000
0018180000
0018180000
000c300000
000c300000
0006600000
0006600000
0003c00000
0003c00000
0001800000
0001800000
0000000000
0000000000
0000000000
0000000000
ENDCHAR
STARTCHAR 2141
ENCODING 8513
SWIDTH 1020 0
DWIDTH 34 0
BBX 34 35 0 -4
BITMAP
0000000000
0000000000
0000000000
0000000000
0000000000
0000000000
07ffffc000
07ffffc000
000000c000
000000c000
000000c000
000000c000
000000c000
000000c000
000000c000
000000c000
07ffffc000
07ffffc000
000000c000
000000c000
000000c000
000000c000
000000c000
000000c000
000000c000
000000c000
07ffffc000
07ffffc000
0000000000
0000000000
0000000000
0000000000
0000000000
0000000000
0000000000
ENDCHAR
STARTCHAR 2142
ENCODING 8514
SWIDTH 1020 0
DWIDTH 34 0
BBX 34 35 0 -4
BITMAP
0000000000
000ff00000
007ffe0000
03f00fc000
0f8001f000
1800001800
6000000600
8000000100
0000000000
0000000000
0000000000
0000000000
0000000000
0000000000
0000000000
0000000000
0000000000
0000000000
0000000000
0000000000
0000000000
0000000000
0000000000
0000000000
0000000000
0000000000
0000000000
0000000000
0000000000
0000000000
0000000000
0000000000
0000000000
0000000000
0000000000
ENDCHAR
STARTCHAR 2143
ENCODING 8515
SWIDTH 1020 0
DWIDTH 34 0
BBX 34 35 0 -4
BITMAP
0000000000
0000000000
0000000000
0003e00000
000ff80000
001ffc0000
00380c0000
0000040000
0000060000
0000020000
0000020000
0000020000
0000020000
0000020000
0000020000
000f820000
0038e40000
0070740000
0060340000
00e03c0000
00c03c0000
01c0380000
01c0380000
01c0380000
01c0300000
01c0700000
01c0600000
00c0e00000
00e0c00000
0073800000
001e000000
0000000000
0000000000
0000000000
0000000000
ENDCHAR
STARTCHAR 2144
ENCODING 8516
SWIDTH 1020 0
DWIDTH 34 0
BBX 34 35 0 -4
BITMAP
0000000000
0000000000
0000000000
0000000000
0000000000
1ffffff800
1ffffff800
0c00001000
0e00003000
0600002000
0700006000
0300004000
038000c000
0180008000
01c0018000
00c0010000
00e0030000
0060020000
0070060000
0030040000
00380c0000
0018080000
001c180000
000c100000
000e300000
0006200000
0007600000
0003400000
0003c00000
0001800000
0001800000
0000000000
0000000000
0000000000
0000000000
ENDCHAR
STARTCHAR 2145
ENCODING 8517
SWIDTH 1020 0
DWIDTH 34 0
BBX 34 35 0 -4
BITMAP
0000000000
0000000000
0000000000
0000000000
0000000000
0000180600
0000701c00
0000c03000
000380e000
0006018000
001c070000
00300c0000
00e0380000
0180600000
0701c00000
0c03000000
380e000000
380e000000
0c03000000
0701c00000
0180600000
00e0380000
00300c0000
001c070000
0006018000
000380e000
0000c03000
0000701c00
0000180600
0000000000
0000000000
0000000000
0000000000
0000000000
0000000000
ENDCHAR
STARTCHAR 2146
ENCODING 8518
SWIDTH 1020 0
DWIDTH 34 0
BBX 34 35 0 -4
BITMAP
0000000000
0000000000
0000000000
0000000000
0000000000
6018000000
380e000000
0c03000000
0701c00000
0180600000
00e0380000
00300c0000
001c070000
0006018000
000380e000
0000c03000
0000701c00
0000701c00
0000c03000
000380e000
0006018000
001c070000
00300c0000
00e0380000
0180600000
0701c00000
0c03000000
380e000000
6018000000
0000000000
0000000000
0000000000
0000000000
0000000000
0000000000
ENDCHAR
STARTCHAR 2147
ENCODING 8519
SWIDTH 1020 0
DWIDTH 34 0
BBX 34 35 0 -4
BITMAP
0000000000
0000000000
0000000000
0000000000
0000000000
0000000000
0000000000
0000000000
0000000000
0000000000
00f0078000
03f01fe000
0700387000
0c00601800
0c00601800
1800c00c00
1800c00c00
1801800c00
1801800c00
0c03001800
0c03001800
070e007000
03fc07e000
00f0078000
0000000000
0000000000
0000000000
0000000000
0000000000
0000000000
0000000000
0000000000
0000000000
0000000000
0000000000
ENDCHAR
STARTCHAR 2148
ENCODING 8520
SWIDTH 1020 0
DWIDTH 34 0
BBX 34 35 0 -4
BITMAP
0000000000
0000000000
0000000000
0000000000
0000000000
0000000000
0000000000
0000000000
0000000000
0000000000
00f0078000
03fc1fe000
070e387000
0c03601800
0c03601000
1801c00000
1801c00000
1801c00000
1801c00000
0c03601000
0c03601800
070e387000
03fc1fe000
00f0078000
0000000000
0000000000
0000000000
0000000000
0000000000
0000000000
0000000000
0000000000
0000000000
0000000000
0000000000
ENDCHAR
STARTCHAR 2149
ENCODING 8521
SWIDTH 1020 0
DWIDTH 34 0
BBX 34 35 0 -4
BITMAP
0000000000
0003870000
0005cb8000
000d9b0000
0008100000
0018300000
0018300000
0018300000
0018300000
0018300000
0018300000
0018300000
0018300000
0018300000
0018300000
0018300000
0018300000
0018300000
0018300000
0018300000
0018300000
0018300000
0018300000
0018300000
0018300000
0018300000
0018300000
0018300000
0018300000
0018200000
01b3600000
03a7400000
01c3800000
0000000000
0000000000
ENDCHAR
STARTCHAR 214a
ENCODING 8522
SWIDTH 1020 0
DWIDTH 34 0
BBX 34 35 0 -4
BITMAP
0000000000
0003c00000
0004200000
0004200000
0004200000
0004200000
0003c00000
0000000000
0001800000
0001800000
0002c00000
0002c00000
0004600000
0004600000
0008300000
0008300000
0010180000
0010180000
00200c0000
00200c0000
0040060000
0040060000
00ffff0000
0080030000
0100018000
0100018000
020000c000
020000c000
0400006000
0400006000
3f0001fc00
0000000000
0000000000
0000000000
0000000000
ENDCHAR
STARTCHAR 214b
ENCODING 8523
SWIDTH 1020 0
DWIDTH 34 0
BBX 34 35 0 -4
BITMAP
0000000000
0000000000
0e00000000
1100100000
2080200000
2080200000
60c0400000
60c0800000
60c0800000
60c1000000
60c2000000
60c2000000
60c4000000
60c8000000
2088000000
2093807000
1124408800
0e28210400
0048210400
0098330600
0098330600
0118330600
0218330600
0218330600
0418330600
0818330600
0818330600
1018330600
2008210400
2008210400
4004408800
0003807000
0000000000
0000000000
0000000000
ENDCHAR
STARTCHAR 214c
ENCODING 8524
SWIDTH 1020 0
DWIDTH 34 0
BBX 34 35 0 -4
BITMAP
0000000000
0000040000
0000040000
0010040000
0010040000
0010043800
001007f800
00101ff800
0011ffc000
001ffc0000
00ffe40000
0ffe040000
0ff0040000
0f10040000
0010040000
0010040000
0010040000
0010040000
0010040000
0010040000
0010043800
001007f800
00101ff800
0011ffc000
001ffc0000
00ffe40000
0ffe040000
0ff0040000
0f10040000
0010040000
0010040000
0010000000
0010000000
0000000000
0000000000
ENDCHAR
STARTCHAR 214d
ENCODING 8525
SWIDTH 1020 0
DWIDTH 34 0
BBX 34 35 0 -4
BITMAP
0000000000
00c0000000
00c0000000
00c0000000
00c0000000
00c0000000
00c0000000
00c0000000
00c0000000
00c0000000
00c0000000
00c0000000
00c0000000
00c1fc0000
00ce0f0000
00f0038000
00c001c000
00c001c000
00c000e000
00c000e000
00c000e000
00c000e000
00c000e000
00c000e000
00c001c000
00c001c000
00c0038000
00c0070000
00c00e0000
00c0380000
00c0e00000
00cf000000
00f0000000
0000000000
0000000000
ENDCHAR
STARTCHAR 214e
ENCODING 8526
SWIDTH 1020 0
DWIDTH 34 0
BBX 34 35 0 -4
BITMAP
0000000000
0000800000
0000c00000
0000c00000
0000e00000
0000a00000
0000b00000
0000980000
00008e0000
0000870000
000083c000
000081e000
000080f000
0000807000
0000807800
0000803800
0000803800
0000803800
0000803000
0000807000
0000806000
000080c000
0000818000
0000860000
0000880000
007c800000
01ff800000
03ff800000
07ff800000
07ff000000
07ff000000
03fe000000
00f8000000
0000000000
0000000000
ENDCHAR
STARTCHAR 214f
ENCODING 8527
SWIDTH 1020 0
DWIDTH 34 0
BBX 34 35 0 -4
BITMAP
0000000000
0003800000
0007c00000
0007c00000
0007c00000
0003800000
00711c0000
00f93e0000
00fffe0000
00f93e0000
00711c0000
0003800000
0007c00000
000fe00000
0007c00000
0007c00000
0003800000
0003800000
0003800000
0001000000
0001000000
0001000000
0001000000
0001000000
0001000000
0001000000
0001000000
0001000000
0001000000
0001000000
0001000000
0001000000
0001000000
0000000000
0000000000
ENDCHAR
STARTCHAR 2150
ENCODING 8528
SWIDTH 1020 0
DWIDTH 34 0
BBX 34 35 0 -4
BITMAP
0000000000
0003800000
0007c00000
0007c00000
0007c00000
0003800000
00711c0000
00f93e0000
00fffe0000
00f93e0000
00711c0000
0003800000
0007c00000
000fe00000
0007c00000
0003800000
0001000000
0001000000
0003800000
0007c00000
000fe00000
0007c00000
0003800000
00711c0000
00f93e0000
00fffe0000
00f93e0000
00711c0000
0003800000
0007c00000
0007c00000
0007c00000
0003800000
0000000000
0000000000
ENDCHAR
STARTCHAR 2151
ENCODING 8529
SWIDTH 1020 0
DWIDTH 34 0
BBX 34 35 0 -4
BITMAP
0000000000
000fff0000
003f810000
007f810000
00ff810000
00ff810000
01ff810000
01ff810000
01ff810000
01ff810000
00ff810000
00ff810000
007f810000
003f810000
000f810000
0000810000
0000810000
0000810000
0000810000
0000810000
0000810000
0000810000
0000810000
0000810000
0000810000
0000810000
0000810000
0000810000
0000810000
0000810000
0000810000
0000810000
0000810000
0000000000
0000000000
ENDCHAR
STARTCHAR 2152
ENCODING 8530
SWIDTH 1020 0
DWIDTH 34 0
BBX 34 35 0 -4
BITMAP
0000000000
0007e00000
00781e0000
0080010000
030000c000
0400002000
0800001000
1000000800
2000000400
2000000400
4000000200
4000000200
4000000200
4000000200
8000000100
8000000100
8000000100
8000000100
8000000100
8000000100
4000000200
4000000200
4000000200
4000000200
2000000400
2000000400
1000000800
0800001000
0400002000
030000c000
0080010000
00781e0000
0007e00000
0000000000
0000000000
ENDCHAR
STARTCHAR 2153
ENCODING 8531
SWIDTH 1020 0
DWIDTH 34 0
BBX 34 35 0 -4
BITMAP
0000000000
0000000000
0000000000
0000000000
0000000000
0000000000
0000000000
0000000000
000c000000
0007000000
0007000000
0006100000
0006780000
010fc00000
00fc000000
000c000000
000c000000
000ff80000
000c460000
003c430000
004cc18000
008c808000
010d80c000
010700c000
030300c000
0306018000
010c018000
01f8030000
00e00e0000
0000780000
0000000000
0000000000
0000000000
0000000000
0000000000
ENDCHAR
STARTCHAR 2154
ENCODING 8532
SWIDTH 1020 0
DWIDTH 34 0
BBX 34 35 0 -4
BITMAP
0000000000
0000000000
0000000000
000c000000
0006000000
0007000000
0006100000
0006780000
0407fc0000
03ffc00000
00fe000000
000c000000
000c000000
000dfc0000
000f178000
001c10c000
006c306000
00cc207000
018c603000
030c403800
060cc03800
060d803800
0c0d803800
0c0f003800
0c0e007000
0c1c007000
0e7800e000
0fe001c000
0780038000
00001e0000
0000f00000
0000000000
0000000000
0000000000
0000000000
ENDCHAR
STARTCHAR 2155
ENCODING 8533
SWIDTH 1020 0
DWIDTH 34 0
BBX 34 35 0 -4
BITMAP
0000000000
0000000000
0000000000
0000000000
0000000000
0000000000
0000000000
0000000000
0000000000
0000000000
0000000000
0000000000
0180000000
00c0000000
00e0000000
00e0080000
00c0060000
00c0030000
00c0018000
0080018000
008000c000
008000c000
008400e000
008400c000
00c8000000
0058000000
0078000000
0038000000
0018000000
0000000000
0000000000
0000000000
0000000000
0000000000
0000000000
ENDCHAR
STARTCHAR 2156
ENCODING 8534
SWIDTH 1020 0
DWIDTH 34 0
BBX 34 35 0 -4
BITMAP
0000000000
0000000000
0000000000
0000000000
0000000000
0000000000
0000000000
1800000000
0c00000000
0e00000000
0e00040000
0e00030000
0c00018000
0c0000c000
0c0000e000
0c00006000
0c00007000
0800007000
0800003800
0808003800
0810003800
0810003800
0c20001000
0420000000
0660000000
07e0000000
03c0000000
01c0000000
00c0000000
0000000000
0000000000
0000000000
0000000000
0000000000
0000000000
ENDCHAR
STARTCHAR 2157
ENCODING 8535
SWIDTH 1020 0
DWIDTH 34 0
BBX 34 35 0 -4
BITMAP
0000000000
0000000000
0000000000
0000000000
0000000000
0000000000
0000000000
0000000000
0000000000
0010000000
000fe00000
0003f00000
0003000000
0004000000
0000000000
0001e00000
0007180000
019c0c0000
00f8040000
0060060000
0000060000
0000060000
0000060000
0000060000
00000c0000
00000c0000
0000180000
0000300000
0000600000
0001c00000
0007000000
0000000000
0000000000
0000000000
0000000000
ENDCHAR
STARTCHAR 2158
ENCODING 8536
SWIDTH 1020 0
DWIDTH 34 0
BBX 34 35 0 -4
BITMAP
0000000000
0000000000
0020000000
001ff00000
0003f80000
0001f80000
0003000000
0004000000
0000000000
0000000000
0000000000
0003f80000
000f0e0000
023c070000
03f0030000
01e0038000
00c0038000
0000038000
0000038000
0000038000
0000038000
0000038000
0000070000
0000070000
0000060000
00000e0000
00000c0000
0000180000
0000300000
0000e00000
0003800000
000e000000
0000000000
0000000000
0000000000
ENDCHAR
STARTCHAR 2159
ENCODING 8537
SWIDTH 1020 0
DWIDTH 34 0
BBX 34 35 0 -4
BITMAP
0000000000
0000000000
0000000000
0000000000
0000000000
0000000000
0000000000
0000000000
0000000000
0008000000
0007e00000
0003f00000
0001800000
0002000000
0000000000
0000300000
0041f80000
003fe00000
001cc00000
0001800000
0003000000
0002000000
0007c00000
000c400000
0018600000
0038600000
0070600000
00e07f8000
01c03f8000
0080000000
0000000000
0000000000
0000000000
0000000000
0000000000
ENDCHAR
STARTCHAR 215a
ENCODING 8538
SWIDTH 1020 0
DWIDTH 34 0
BBX 34 35 0 -4
BITMAP
0000000000
0000000000
0000000000
0000000000
0020000000
001fe00000
0003f80000
0001f80000
000e000000
0000000000
0000000000
00001c0000
0203fe0000
03fffc0000
01fc700000
00c0e00000
0001800000
0003000000
0002000000
0006000000
000dc00000
001e600000
0038200000
0070200000
0060200000
00e0200000
01c0200000
0380300000
07001ff000
0f001ff800
0e0007f000
0400000000
0000000000
0000000000
0000000000
ENDCHAR
STARTCHAR 215b
ENCODING 8539
SWIDTH 1020 0
DWIDTH 34 0
BBX 34 35 0 -4
BITMAP
0000000000
0000000000
0000000000
0000000000
0000000000
0000000000
0000000000
0000000000
0000000000
000c000000
0006000000
0006000000
0006000000
0004c00000
008fce0000
007f038000
002c01c000
000c03c000
000c000000
000cf80000
000f8e0000
000e030000
001c018000
003c018000
006c018000
01cc018000
01cc010000
002c030000
001c0e0000
000c380000
0008000000
0000000000
0000000000
0000000000
0000000000
ENDCHAR
STARTCHAR 215c
ENCODING 8540
SWIDTH 1020 0
DWIDTH 34 0
BBX 34 35 0 -4
BITMAP
0000000000
0000000000
0000000000
0040000000
0070000000
0038000000
0038000000
0038000000
0030000000
003187c000
043fc0f000
07fe003800
03f0007000
0030000000
0030000000
0030000000
0030000000
0030fc0000
0037878000
003c01c000
003000e000
00f0006000
01b0007000
0330007000
1e30007000
1c30006000
0e3000e000
013001c000
00f0078000
00707c0000
0060000000
0000000000
0000000000
0000000000
0000000000
ENDCHAR
STARTCHAR 215d
ENCODING 8541
SWIDTH 1020 0
DWIDTH 34 0
BBX 34 35 0 -4
BITMAP
0000000000
0000000000
0000000000
0018000000
000c000000
000e000000
000c000000
000c000000
000c000000
0018030000
001800c000
001f006000
10f0c03000
1fb0601800
0e30201c00
0060300c00
0060300e00
0060307e00
00c0300e00
00c0300400
01c0300000
0180300000
0380600000
0300600000
0700600000
0600e00000
0e10c00000
1c0fc00000
1c07800000
0807000000
0000000000
0000000000
0000000000
0000000000
0000000000
ENDCHAR
STARTCHAR 215e
ENCODING 8542
SWIDTH 1020 0
DWIDTH 34 0
BBX 34 35 0 -4
BITMAP
0000000000
0000000000
0000000000
0018000000
000c001000
000e000c00
000c004600
000c003700
000c001a00
0018031c00
001800c800
001f006000
10f0c03000
1fb0601800
0e30201c00
0060300c00
0060300e00
0060307e00
00c0300e00
00c0300400
01c0300000
0180300000
0380600000
0300600000
0700600000
0600e00000
0e10c00000
1c0fc00000
1c07800000
0807000000
0000000000
0000000000
0000000000
0000000000
0000000000
ENDCHAR
STARTCHAR 215f
ENCODING 8543
SWIDTH 1020 0
DWIDTH 34 0
BBX 34 35 0 -4
BITMAP
0000000000
0000000000
0000000000
0010000000
000c000000
000e000000
0006000000
0006040000
00031e0000
0303fe0000
01fff00000
007f800000
0000c08000
000043c000
06006fc000
03fffe0000
00fff00000
0000180000
00000c0000
0000060000
0000070000
001ffb8000
00700fc000
00c001c000
0180008000
0180000000
0180000000
00c0000000
00f0000000
003ffe0000
000ffe0000
0000000000
0000000000
0000000000
0000000000
ENDCHAR
STARTCHAR 2160
ENCODING 8544
SWIDTH 1020 0
DWIDTH 34 0
BBX 34 35 0 -4
BITMAP
0000000000
0000000000
0000000000
0010002000
000c001800
000e010c00
000600ce00
0006046400
00031e7000
0303fe2000
01fff00000
007f800000
0000c08000
000043c000
06006fc000
03fffe0000
00fff00000
0000180000
00000c0000
0000060000
0000070000
001ffb8000
00700fc000
00c001c000
0180008000
0180000000
0180000000
00c0000000
00f0000000
003ffe0000
000ffe0000
0000000000
0000000000
0000000000
0000000000
ENDCHAR
STARTCHAR 2161
ENCODING 8545
SWIDTH 1020 0
DWIDTH 34 0
BBX 34 35 0 -4
BITMAP
0000000000
0000000000
0000000000
0000000000
0000600000
0000300000
0000780000
0000700000
0000e00000
0001c00000
0003800000
0007000000
000c000000
0018000000
0030000000
0060000000
00c0000000
0180000000
0100000000
0180000000
00c0000000
0070000000
0018000000
000c000000
0007000000
0003800000
0001c00000
0000e00000
0000f00000
0000780000
0000380000
0000100000
0000000000
0000000000
0000000000
ENDCHAR
STARTCHAR 2162
ENCODING 8546
SWIDTH 1020 0
DWIDTH 34 0
BBX 34 35 0 -4
BITMAP
0000000000
0000000000
0000000000
0000000000
0000600000
0000300000
0000788000
0000706000
0000e43000
0001c33800
0003819000
000701c000
000c008000
0018000000
0030000000
0060000000
00c0000000
0180000000
0100000000
0180000000
00c0000000
0070000000
0018000000
000c000000
0007000000
0003800000
0001c00000
0000e00000
0000f00000
0000780000
0000380000
0000100000
0000000000
0000000000
0000000000
ENDCHAR
STARTCHAR 2163
ENCODING 8547
SWIDTH 1020 0
DWIDTH 34 0
BBX 34 35 0 -4
BITMAP
0000000000
0000000000
0000000000
0000060000
0600030000
0300038000
0380038000
0380038000
0380030000
0300030000
0300031000
030003f800
03041ffc00
0603ff8800
0601e18000
0600018000
0600018000
0600018000
0400018000
0400018000
0400018000
0420018000
0420018000
0620038000
0660030000
0340030000
03c0070000
03c0060000
01c00c0000
00c0180000
0000300000
0000c00000
0000000000
0000000000
0000000000
ENDCHAR
STARTCHAR 2164
ENCODING 8548
SWIDTH 1020 0
DWIDTH 34 0
BBX 34 35 0 -4
BITMAP
0000000000
0000000000
0000001000
00000c0c00
0c00068600
0600076700
0700073200
0700073800
0700061000
0600060000
0600062000
060007f000
06083ff800
0c07ff1000
0c03c30000
0c00030000
0c00030000
0c00030000
0800030000
0800030000
0800030000
0840030000
0840030000
0c40070000
0cc0060000
0680060000
07800e0000
07800c0000
0380180000
0180300000
0000600000
0001800000
0000000000
0000000000
0000000000
ENDCHAR
STARTCHAR 2165
ENCODING 8549
SWIDTH 1020 0
DWIDTH 34 0
BBX 34 35 0 -4
BITMAP
0000000000
0000000000
0000000000
0000000000
0000000000
0000000000
00c0060000
007fff0000
001fff8000
00003c0000
0000e00000
0001800000
0006000000
0008000000
0000000000
0000000000
0000000000
0000000000
0000000000
0000000000
0200000000
0200000000
0200000000
0300000000
0100000000
0180000000
00e003c000
007fffc000
001fff0000
0000000000
0000000000
0000000000
0000000000
0000000000
0000000000
ENDCHAR
STARTCHAR 2166
ENCODING 8550
SWIDTH 1020 0
DWIDTH 34 0
BBX 34 35 0 -4
BITMAP
0000000000
0000002000
0000001800
0000010c00
000000ce00
0000006400
00c0067000
007fff2000
001fff8000
00003c0000
0000e00000
0001800000
0006000000
0008000000
0000000000
0000000000
0000000000
0000000000
0000000000
0000000000
0200000000
0200000000
0200000000
0300000000
0100000000
0180000000
00e003c000
007fffc000
001fff0000
0000000000
0000000000
0000000000
0000000000
0000000000
0000000000
ENDCHAR
STARTCHAR 2167
ENCODING 8551
SWIDTH 1020 0
DWIDTH 34 0
BBX 34 35 0 -4
BITMAP
0000000000
0000000000
0000000000
001c000000
000e000000
0007000000
0007000000
0003000000
0003830000
00018f8000
0601ff0000
03fff80000
00ffe00000
0000600000
0000300000
0000380000
0000180000
00000c0000
00000e0000
0000070000
001fff8000
00f80fc000
01c0018000
0300000000
0300000000
0300000000
0300000000
0180000000
00f0000000
007ffc0000
000ffc0000
0000000000
0000000000
0000000000
0000000000
ENDCHAR
STARTCHAR 2168
ENCODING 8552
SWIDTH 1020 0
DWIDTH 34 0
BBX 34 35 0 -4
BITMAP
0000000000
0000000000
0000000000
001c001000
000e000c00
0007008600
0007006700
0003003200
0003833800
00018f9000
0601ff0000
03fff80000
00ffe00000
0000600000
0000300000
0000380000
0000180000
00000c0000
00000e0000
0000070000
001fff8000
00f80fc000
01c0018000
0300000000
0300000000
0300000000
0300000000
0180000000
00f0000000
007ffc0000
000ffc0000
0000000000
0000000000
0000000000
0000000000
ENDCHAR
STARTCHAR 2169
ENCODING 8553
SWIDTH 1020 0
DWIDTH 34 0
BBX 34 35 0 -4
BITMAP
0000000000
0000000000
0000000000
0000000000
0180000000
00c0000000
00e0000000
00e0000000
00e0000000
00c0000000
00c0000000
00c0000000
00c0000000
00c0000000
00c0000000
00c0000000
0180000000
0180000000
0180000000
0180002000
0180002000
0180004000
018000c000
0180008000
0180018000
0180030000
01c00e0000
00c01c0000
00f0f80000
007fe00000
001f800000
0000000000
0000000000
0000000000
0000000000
ENDCHAR
STARTCHAR 216a
ENCODING 8554
SWIDTH 1020 0
DWIDTH 34 0
BBX 34 35 0 -4
BITMAP
0000000000
0000000000
0000000000
0000000000
0180000000
00c0400000
00e0300000
00e2180000
00e19c0000
00c0c80000
00c0e00000
00c0400000
00c0000000
00c0000000
00c0000000
00c0000000
0180000000
0180000000
0180000000
0180002000
0180002000
0180004000
018000c000
0180008000
0180018000
0180030000
01c00e0000
00c01c0000
00f0f80000
007fe00000
001f800000
0000000000
0000000000
0000000000
0000000000
ENDCHAR
STARTCHAR 216b
ENCODING 8555
SWIDTH 1020 0
DWIDTH 34 0
BBX 34 35 0 -4
BITMAP
0000000000
0000000000
0000c00000
0000700000
0000780000
0000300000
0000300000
0000303000
20003ffc00
3ffffffe00
1ff0300200
0600300000
0000300000
0000300000
0003f00000
0006700000
000c300000
0018380000
0018380000
0018380000
0008380000
000c780000
0007f80000
0003980000
0000300000
0000300000
0000300000
0000600000
0000c00000
0001800000
0007000000
001c000000
0000000000
0000000000
0000000000
ENDCHAR
STARTCHAR 216c
ENCODING 8556
SWIDTH 1020 0
DWIDTH 34 0
BBX 34 35 0 -4
BITMAP
0000000000
0000001000
0000c08c00
0000706600
0000783700
0000303a00
0000301000
0000300800
20003ffc00
3ffffffe00
1ff0300400
0600300000
0000300000
0000300000
0003f00000
0006700000
000c300000
0018380000
0018380000
0018380000
0008380000
000c780000
0007f80000
0003980000
0000300000
0000300000
0000300000
0000600000
0000c00000
0001800000
0007000000
001c000000
0000000000
0000000000
0000000000
ENDCHAR
STARTCHAR 216d
ENCODING 8557
SWIDTH 1020 0
DWIDTH 34 0
BBX 34 35 0 -4
BITMAP
0000000000
0000000000
0000000000
0000180000
01800e0000
00c00e0000
00e00e0000
00e00c0000
00e00c0000
00c00c0000
00c00c4000
00c00ff000
40fffff800
7ffc0c0800
3fc01c0000
18c0180000
00c0180000
00c2180000
00c1380000
00c0f00000
00c0f00000
00c0600000
00c0000000
00c0000000
00c0000000
0060000000
007803c000
003fffc000
000fff0000
0000000000
0000000000
0000000000
0000000000
0000000000
0000000000
ENDCHAR
STARTCHAR 216e
ENCODING 8558
SWIDTH 1020 0
DWIDTH 34 0
BBX 34 35 0 -4
BITMAP
0000000000
0000000000
0000001000
0000180c00
01800e8600
00c00e6700
00e00e3200
00e00c3800
00e00c1000
00c00c0000
00c00c4000
00c00ff000
40fffff800
7ffc0c0800
3fc01c0000
18c0180000
00c0180000
00c2180000
00c1380000
00c0f00000
00c0f00000
00c0600000
00c0000000
00c0000000
00c0000000
0060000000
007803c000
003fffc000
000fff0000
0000000000
0000000000
0000000000
0000000000
0000000000
0000000000
ENDCHAR
STARTCHAR 216f
ENCODING 8559
SWIDTH 1020 0
DWIDTH 34 0
BBX 34 35 0 -4
BITMAP
0000000000
0000000000
0000000000
0000040000
00001e0000
0081ff0000
00ff9c0000
007c700000
0030c00000
0003800000
0006000000
000c000000
003000c000
00603ff000
00cffff000
23fe0f0000
3ff0380000
1f00e00000
0801800000
0003000000
0006000000
0006000000
000c000000
000c000000
000c000000
000c000000
0006000000
0007000000
0003c00000
0001fe0000
00007e0000
0000000000
0000000000
0000000000
0000000000
ENDCHAR
STARTCHAR 2170
ENCODING 8560
SWIDTH 1020 0
DWIDTH 34 0
BBX 34 35 0 -4
BITMAP
0000000000
0000000000
0000000000
0000040000
00001e0000
0081ff2000
00ff9c1800
007c710c00
0030c0ce00
0003806400
0006007000
000c002000
003000c000
00603ff000
00cffff000
23fe0f0000
3ff0380000
1f00e00000
0801800000
0003000000
0006000000
0006000000
000c000000
000c000000
000c000000
000c000000
0006000000
0007000000
0003c00000
0001fe0000
00007e0000
0000000000
0000000000
0000000000
0000000000
ENDCHAR
STARTCHAR 2171
ENCODING 8561
SWIDTH 1020 0
DWIDTH 34 0
BBX 34 35 0 -4
BITMAP
0000000000
0000000000
0000000000
00c0000000
0060000000
0070000000
0070000000
0060000000
0067000000
30ff800000
1ff8000000
07c0000000
00c007e000
00c0fff000
01800f8000
01800c0000
0180100000
0180000000
0300000000
0300000000
0300000000
0300000000
0600000000
0600000000
0601000000
0e01000000
0c00c07800
1c00fff800
1c003fe000
0800000000
0000000000
0000000000
0000000000
0000000000
0000000000
ENDCHAR
STARTCHAR 2172
ENCODING 8562
SWIDTH 1020 0
DWIDTH 34 0
BBX 34 35 0 -4
BITMAP
0000000000
0000000000
0000002000
00c0001800
0060010c00
007000ce00
0070006400
0060007000
0067002000
30ff800000
1ff8000000
07c0000000
00c007e000
00c0fff000
01800f8000
01800c0000
0180100000
0180000000
0300000000
0300000000
0300000000
0300000000
0600000000
0600000000
0601000000
0e01000000
0c00c07800
1c00fff800
1c003fe000
0800000000
0000000000
0000000000
0000000000
0000000000
0000000000
ENDCHAR
STARTCHAR 2173
ENCODING 8563
SWIDTH 1020 0
DWIDTH 34 0
BBX 34 35 0 -4
BITMAP
0000000000
0000000000
0000000000
000c000000
0006000000
0007000000
0007000000
0006000000
000e020000
060c1f0000
03ffff8000
00ffe00000
0018000000
0018000000
0030000000
0030000000
0060000000
0061fc0000
00cf070000
00f801c000
01e000e000
03c0006000
0380007000
0100007000
0000007000
0000006000
000000e000
000000c000
0000038000
00001e0000
0007f00000
0000000000
0000000000
0000000000
0000000000
ENDCHAR
STARTCHAR 2174
ENCODING 8564
SWIDTH 1020 0
DWIDTH 34 0
BBX 34 35 0 -4
BITMAP
0000000000
0000000000
0000002000
000c001800
0006010c00
000700ce00
0007006400
0006007000
000e022000
060c1f0000
03ffff8000
00ffe00000
0018000000
0018000000
0030000000
0030000000
0060000000
0061fc0000
00cf070000
00f801c000
01e000e000
03c0006000
0380007000
0100007000
0000007000
0000006000
000000e000
000000c000
0000038000
00001e0000
0007f00000
0000000000
0000000000
0000000000
0000000000
ENDCHAR
STARTCHAR 2175
ENCODING 8565
SWIDTH 1020 0
DWIDTH 34 0
BBX 34 35 0 -4
BITMAP
0000000000
0000000000
0000000000
0000000000
0000000000
0000000000
0000000000
0000000000
0000000000
0000000000
0000000000
0000000000
0000000000
0000000000
0000000000
0000fc0000
0007870000
043c018000
07e0018000
038000c000
010000c000
000000c000
000000c000
0000018000
0000018000
0000030000
00000e0000
0000780000
0003c00000
0000000000
0000000000
0000000000
0000000000
0000000000
0000000000
ENDCHAR
STARTCHAR 2176
ENCODING 8566
SWIDTH 1020 0
DWIDTH 34 0
BBX 34 35 0 -4
BITMAP
0000000000
0000000000
0000000000
0000000000
0000000000
0000000000
0000000000
0000000000
0000000000
0000000000
0001ff0000
000f81c000
007e00e000
23f0007000
3fc0007000
1f00003800
0c00003800
0000003800
0000003800
0000003800
0000003800
0000007000
0000007000
000000e000
000001c000
0000038000
00000e0000
0000780000
0007800000
0000000000
0000000000
0000000000
0000000000
0000000000
0000000000
ENDCHAR
STARTCHAR 2177
ENCODING 8567
SWIDTH 1020 0
DWIDTH 34 0
BBX 34 35 0 -4
BITMAP
0000000000
0000000000
0000000000
0000001000
0000000c00
0000008600
0000006700
0000003200
0000003800
0000001000
0001ff0000
000f81c000
007e00e000
23f0007000
3fc0007000
1f00003800
0c00003800
0000003800
0000003800
0000003800
0000003800
0000007000
0000007000
000000e000
000001c000
0000038000
00000e0000
0000780000
0007800000
0000000000
0000000000
0000000000
0000000000
0000000000
0000000000
ENDCHAR
STARTCHAR 2178
ENCODING 8568
SWIDTH 1020 0
DWIDTH 34 0
BBX 34 35 0 -4
BITMAP
0000000000
0000000000
0000000000
0000000000
0000000000
0000004000
00001ff000
100ffff000
1ffe060000
0ff0180000
0700600000
0000c00000
0001800000
0003000000
0002000000
0006000000
0006000000
000c000000
000c000000
000c000000
000c000000
000c000000
000c000000
000e000000
0006000000
0007000000
0003c00000
0001fc0000
00007f0000
00001f0000
0000000000
0000000000
0000000000
0000000000
0000000000
ENDCHAR
STARTCHAR 2179
ENCODING 8569
SWIDTH 1020 0
DWIDTH 34 0
BBX 34 35 0 -4
BITMAP
0000000000
0000000000
0000000000
0000000000
0000000000
0000004000
000007f000
1007fff000
1fff860000
0ff8182000
0700601800
0000c10c00
000180ce00
0003006400
0002007000
0006002000
0006000000
000c000000
000c000000
000c000000
000c000000
000c000000
000c000000
000e000000
0006000000
0007000000
0003c00000
0001fc0000
00007f0000
00001f0000
0000000000
0000000000
0000000000
0000000000
0000000000
ENDCHAR
STARTCHAR 217a
ENCODING 8570
SWIDTH 1020 0
DWIDTH 34 0
BBX 34 35 0 -4
BITMAP
0000000000
0000000000
0000000000
00c0000000
0060000000
0060000000
0070000000
0070000000
0070000000
0070000000
0070030000
0030038000
00300f8000
00303e0000
0018f00000
001b800000
001e000000
0038000000
0060000000
00c0000000
0180000000
0180000000
0300000000
0300000000
0300000000
0300000000
0180000000
01e0078000
00ffff8000
003ffe0000
0000000000
0000000000
0000000000
0000000000
0000000000
ENDCHAR
STARTCHAR 217b
ENCODING 8571
SWIDTH 1020 0
DWIDTH 34 0
BBX 34 35 0 -4
BITMAP
0000000000
0000000000
0000008000
00c0006000
0060043000
0060033800
0070019000
007001c000
0070008000
0070000000
0070030000
0030038000
00300f8000
00303e0000
0018f00000
001b800000
001e000000
0038000000
0060000000
00c0000000
0180000000
0180000000
0300000000
0300000000
0300000000
0300000000
0180000000
01e0078000
00ffff8000
003ffe0000
0000000000
0000000000
0000000000
0000000000
0000000000
ENDCHAR
STARTCHAR 217c
ENCODING 8572
SWIDTH 1020 0
DWIDTH 34 0
BBX 34 35 0 -4
BITMAP
0000000000
0000000000
0000000000
0060000000
0030000000
0038000000
0038000000
0031c00000
107fe70000
1ffe01c000
0fe0007000
0060007000
00c003f800
00c0041000
00c0040000
01800c0000
01800c0000
03800c0000
03000c0000
07000e0000
06000e0000
0e000e0000
1c00060000
1c03fe0000
080e0f0000
001807c000
001806e000
00180c7000
000e3c2000
0003f00000
0000000000
0000000000
0000000000
0000000000
0000000000
ENDCHAR
STARTCHAR 217d
ENCODING 8573
SWIDTH 1020 0
DWIDTH 34 0
BBX 34 35 0 -4
BITMAP
0000000000
0000000000
0000000000
0000000000
0000000000
0c00000000
0600000000
0700000000
070200e000
0701fff000
06007f8000
06000c0000
0600100000
0600000000
0c00000000
0c00000000
0c00000000
0c01000000
0802000000
0802000000
0844000000
0844000000
0846000000
0c82000000
0c83000000
0681e02000
0780fff800
07801ff800
0380000000
0100000000
0000000000
0000000000
0000000000
0000000000
0000000000
ENDCHAR
STARTCHAR 217e
ENCODING 8574
SWIDTH 1020 0
DWIDTH 34 0
BBX 34 35 0 -4
BITMAP
0000000000
0000000000
0000000000
0003000000
0001800000
0001c00000
0001c00000
1801800000
0c01800000
0c0ffc0000
0e3b078000
06e300c000
0783006000
0706003000
0606003000
0f06003800
0b0c001800
1b0c001800
198c001800
1998001800
3198001800
30d8001800
30f0003800
30703f3000
3060c1f000
38e180e000
18c1807000
1d8180f800
0f80e39c00
07003e0800
0000000000
0000000000
0000000000
0000000000
0000000000
ENDCHAR
STARTCHAR 2221
ENCODING 8737
SWIDTH 1020 0
DWIDTH 34 0
BBX 34 35 0 -4
BITMAP
0000000000
0000000000
0000000000
0060000000
0030000000
0038000000
0038000000
0038000000
0030000000
003e000000
11fc3f8000
1ff8e0c000
0e3b806000
0036006000
003c003000
0078003000
0070003000
00f0003000
01b0003000
0130003000
0330003000
0630003000
0e30003000
1c303f3000
3830e1e000
383180f000
1331807800
00f1c0dc00
0070ff8e00
00703e0400
0020000000
0000000000
0000000000
0000000000
0000000000
ENDCHAR
STARTCHAR 2222
ENCODING 8738
SWIDTH 1020 0
DWIDTH 34 0
BBX 34 35 0 -4
BITMAP
0000000000
0000000000
0000000000
0000000000
0000000000
0000000000
0000000000
0007f00000
003e1e0000
00e2038000
018201c000
030200e000
0606006000
0c06007000
0c04003000
180c003800
180c003800
300c003800
3018003800
3018003800
3038003800
3030003000
3070007000
38e0007000
18c000e000
1fc001c000
0f80038000
0700070000
00001c0000
0000e00000
0000000000
0000000000
0000000000
0000000000
0000000000
ENDCHAR
STARTCHAR 2223
ENCODING 8739
SWIDTH 1020 0
DWIDTH 34 0
BBX 34 35 0 -4
BITMAP
0000000000
0000000000
0000000000
0000060000
0600030000
0300038000
0380038000
0380038000
0380030000
0300033800
070603fc00
0603ffe000
0601ff0000
0600030000
0600030000
0c00030000
0c00030000
0c00030000
0800030000
0800030000
0820030000
0840030000
0840fb0000
0843ff0000
0c8603c000
048403f000
0786037800
0782071c00
0383de0800
0380f80000
0180000000
0000000000
0000000000
0000000000
0000000000
ENDCHAR
STARTCHAR 2224
ENCODING 8740
SWIDTH 1020 0
DWIDTH 34 0
BBX 34 35 0 -4
BITMAP
0000000000
0000001000
0000000c00
0000068600
0600036700
030003b200
038003b800
0380039000
0380030000
0300033800
070603fc00
0603ffe000
0601ff0000
0600030000
0600030000
0c00030000
0c00030000
0c00030000
0800030000
0800030000
0820030000
0840030000
0840fb0000
0843ff0000
0c8603c000
048403f000
0786037800
0782071c00
0383de0800
0380f80000
0180000000
0000000000
0000000000
0000000000
0000000000
ENDCHAR
STARTCHAR 2225
ENCODING 8741
SWIDTH 1020 0
DWIDTH 34 0
BBX 34 35 0 -4
BITMAP
0000000000
0000001c00
0000002200
0000064100
0600034100
030003c100
038003a200
0380039c00
0380030000
0300033800
070603fc00
0603ffe000
0601ff0000
0600030000
0600030000
0c00030000
0c00030000
0c00030000
0800030000
0800030000
0820030000
0840030000
0840fb0000
0843ff0000
0c8603c000
048403f000
0786037800
0782071c00
0383de0800
0380f80000
0180000000
0000000000
0000000000
0000000000
0000000000
ENDCHAR
STARTCHAR 2226
ENCODING 8742
SWIDTH 1020 0
DWIDTH 34 0
BBX 34 35 0 -4
BITMAP
0000000000
0000000000
0000000000
0000000000
0000000000
0003030000
080f830000
0fff030000
07cc030000
0218038000
0030038000
0060038000
00c002c000
008002c000
0180026000
0300027000
0200023000
0600063800
0600061c00
0c00040800
0c00040000
0c000c0000
0c000c0000
0c00180000
0e00180000
0600300000
0700700000
03c1e00000
01ffc00000
007f000000
0000000000
0000000000
0000000000
0000000000
0000000000
ENDCHAR
STARTCHAR 2227
ENCODING 8743
SWIDTH 1020 0
DWIDTH 34 0
BBX 34 35 0 -4
BITMAP
0000000000
0000001000
0000000c00
0000008600
0000006700
0003033200
081f833800
0fff031000
07cc030000
0218038000
0030038000
0060038000
00c002c000
008002c000
0180026000
0300027000
0200023000
0600063800
0600061c00
0c00040800
0c00040000
0c000c0000
0c000c0000
0c00180000
0e00180000
0600300000
0700700000
03c1e00000
01ffc00000
007f000000
0000000000
0000000000
0000000000
0000000000
0000000000
ENDCHAR
STARTCHAR 2228
ENCODING 8744
SWIDTH 1020 0
DWIDTH 34 0
BBX 34 35 0 -4
BITMAP
0000000000
0000001c00
0000002200
0000004100
0000004100
0003034100
081f832200
0fff031c00
07cc030000
0218038000
0030038000
0060038000
00c002c000
008002c000
0180026000
0300027000
0200023000
0600063800
0600061c00
0c00040800
0c00040000
0c000c0000
0c000c0000
0c00180000
0e00180000
0600300000
0700700000
03c1e00000
01ffc00000
007f000000
0000000000
0000000000
0000000000
0000000000
0000000000
ENDCHAR
STARTCHAR 2229
ENCODING 8745
SWIDTH 1020 0
DWIDTH 34 0
BBX 34 35 0 -4
BITMAP
0000000000
0000000000
0000000000
0000000000
000e000000
0003c00000
0000f00000
0000780000
0001f00000
0006000000
000c000000
0008000000
000c000000
0004000000
0006000000
0003000000
0001800000
0000c00000
0001fe0000
0007638000
001c30e000
0070187000
20c0183800
23800c1c00
3f000c1e00
1e000c0c00
1c18180000
0c06f80000
0003f00000
0003c00000
0000000000
0000000000
0000000000
0000000000
0000000000
ENDCHAR
STARTCHAR 222a
ENCODING 8746
SWIDTH 1020 0
DWIDTH 34 0
BBX 34 35 0 -4
BITMAP
0000000000
0000000000
0000000000
0000000000
000e000000
0003c00000
0000f04000
0000783000
0001f21800
0006019c00
000c00c800
000800e000
000c004000
0004000000
0006000000
0003000000
0001800000
0000c00000
0001fe0000
0007638000
001c30e000
0070187000
20c0183800
23800c1c00
3f000c1e00
1e000c0c00
1c18180000
0c06f80000
0003f00000
0003c00000
0000000000
0000000000
0000000000
0000000000
0000000000
ENDCHAR
STARTCHAR 222b
ENCODING 8747
SWIDTH 1020 0
DWIDTH 34 0
BBX 34 35 0 -4
BITMAP
0000000000
0000000000
0000000000
0000000000
000e000000
0003c00000
0000f0e000
0000791000
0001f20800
0006020800
000c020800
0008011000
000c00e000
0004000000
0006000000
0003000000
0001800000
0000c00000
0001fe0000
0007638000
001c30e000
0070187000
20c0183800
23800c1c00
3f000c1e00
1e000c0c00
1c18180000
0c06f80000
0003f00000
0003c00000
0000000000
0000000000
0000000000
0000000000
0000000000
ENDCHAR
STARTCHAR 222c
ENCODING 8748
SWIDTH 1020 0
DWIDTH 34 0
BBX 34 35 0 -4
BITMAP
0000000000
0000000000
0000000000
0000000000
0000000000
0000000000
0000000000
0000000000
001c000000
0036000000
0063000000
00c3000000
01c1800000
0180c00000
0300e00000
0700700000
4e00380000
7e00180000
3c001c0000
18000e0000
0000070000
0000038000
000001e000
000000f000
0000007800
0000003c00
0000001800
0000000000
0000000000
0000000000
0000000000
0000000000
0000000000
0000000000
0000000000
ENDCHAR
STARTCHAR 222d
ENCODING 8749
SWIDTH 1020 0
DWIDTH 34 0
BBX 34 35 0 -4
BITMAP
0000000000
0000000000
0000000000
0000000000
0000000000
0000000000
0000020000
0000018000
001c10c000
00360ce000
0063064000
00c3070000
01c1820000
0180c00000
0300e00000
0700700000
4e00380000
7e00180000
3c001c0000
18000e0000
0000070000
0000038000
000001e000
000000f000
0000007800
0000003c00
0000001800
0000000000
0000000000
0000000000
0000000000
0000000000
0000000000
0000000000
0000000000
ENDCHAR
STARTCHAR 222e
ENCODING 8750
SWIDTH 1020 0
DWIDTH 34 0
BBX 34 35 0 -4
BITMAP
0000000000
0000000000
0000000000
0000000000
0000000000
0000000000
0000070000
0000088000
001c104000
0036104000
0063104000
00c3088000
01c1870000
0180c00000
0300e00000
0700700000
4e00380000
7e00180000
3c001c0000
18000e0000
0000070000
0000038000
000001e000
000000f000
0000007800
0000003c00
0000001800
0000000000
0000000000
0000000000
0000000000
0000000000
0000000000
0000000000
0000000000
ENDCHAR
STARTCHAR 222f
ENCODING 8751
SWIDTH 1020 0
DWIDTH 34 0
BBX 34 35 0 -4
BITMAP
0000000000
0000000000
0000000000
0000000000
0c00002000
060603f000
0703ffe000
0700fe0000
0700060000
0600060000
0600060000
0c00060000
0c00061000
0c1807f800
0c0ffffc00
1803fe0000
1800060000
1800060000
1000060000
1000060000
1040060000
1080060000
1081fe0000
19870f8000
090c07e000
0f0c06f000
0f0e063800
07071c1800
0701f80000
0300000000
0000000000
0000000000
0000000000
0000000000
0000000000
ENDCHAR
STARTCHAR 2230
ENCODING 8752
SWIDTH 1020 0
DWIDTH 34 0
BBX 34 35 0 -4
BITMAP
0000000000
0000000000
0000000000
0000000000
180000d000
0c0c07ec00
0e07ff8600
0e01fc4700
0e000c3200
0c000c1800
0c000c1c00
1c000c0800
18000c7000
18300ff000
181fffc000
3007fc0000
30000c0000
30000c0000
20000c0000
20000c0000
20800c0000
21000c0000
2103fc0000
330e1f0000
1a180fc000
1e180de000
1e1c0c7000
0e0e383000
0e03f00000
0600000000
0000000000
0000000000
0000000000
0000000000
0000000000
ENDCHAR
STARTCHAR 2231
ENCODING 8753
SWIDTH 1020 0
DWIDTH 34 0
BBX 34 35 0 -4
BITMAP
0000000000
0000000000
0000001c00
0000002200
1800004100
0c0c07c100
0e07ffc100
0e01fc2200
0e000c1c00
0c000c0000
0c000c0000
1c000c0000
18000c7000
18300ff000
181fffc000
3007fc0000
30000c0000
30000c0000
20000c0000
20000c0000
20800c0000
21000c0000
2103fc0000
330e1f0000
1a180fc000
1e180de000
1e1c0c7000
0e0e383000
0e03f00000
0600000000
0000000000
0000000000
0000000000
0000000000
0000000000
ENDCHAR
STARTCHAR 2232
ENCODING 8754
SWIDTH 1020 0
DWIDTH 34 0
BBX 34 35 0 -4
BITMAP
0000000000
0000000000
0001800000
0000c00000
0000e00000
0000e00000
0000c00000
0000c60000
0300ff0000
01fffc0000
007fc00000
0000c00000
0000c00000
0000c00000
0000c38000
0600ffc000
03fffe0000
00ffc00000
0000c00000
0000c00000
0000c00000
0000c00000
0000c00000
00ffc00000
0383f00000
0600fc0000
0600df0000
0701c78000
03ff818000
00fe000000
0000000000
0000000000
0000000000
0000000000
0000000000
ENDCHAR
STARTCHAR 2233
ENCODING 8755
SWIDTH 1020 0
DWIDTH 34 0
BBX 34 35 0 -4
BITMAP
0000000000
0000000000
0000000000
0000000000
0000400000
0001e00000
010ff00000
01fee00000
00f1c00000
0041800000
0003800000
0003018000
000600c000
000600e000
000c00e000
000c00e000
001800c000
00ffc0c000
03b07cc000
0e300fc000
186003c000
18e001e000
30c001f800
39c001bc00
1f80030e00
0f80030400
0700060000
00000c0000
0000180000
0000700000
0001c00000
0000000000
0000000000
0000000000
0000000000
ENDCHAR
STARTCHAR 2234
ENCODING 8756
SWIDTH 1020 0
DWIDTH 34 0
BBX 34 35 0 -4
BITMAP
0000000000
0000000000
0000000000
00c0000000
0060000000
0070000000
0071000000
0063800000
187fc20000
0ffe018000
03e000e000
0060007000
0060007800
00c000f800
07e0001000
0ff0000000
18e0000000
10e0000000
10e0000000
10c0000000
10c0020000
1980020000
0f80020000
0780020000
0300030000
0300038000
030003c000
0180078000
01c01f0000
00fffe0000
003ff00000
0000000000
0000000000
0000000000
0000000000
ENDCHAR
STARTCHAR 2235
ENCODING 8757
SWIDTH 1020 0
DWIDTH 34 0
BBX 34 35 0 -4
BITMAP
0000000000
0000000000
0000000000
0000600000
0000300000
0000380000
0600380000
0300300000
0300700000
0380600000
0383fe0000
019e63c000
01f0e06000
00c0c03000
01c0c03800
03c1801800
0661801c00
0463001c00
0c33000c00
0836000c00
181e001c00
181c001c00
181c001800
183e003800
0c77003000
0fe2006000
07c000c000
0300038000
00000e0000
0000780000
0000000000
0000000000
0000000000
0000000000
0000000000
ENDCHAR
STARTCHAR 2236
ENCODING 8758
SWIDTH 1020 0
DWIDTH 34 0
BBX 34 35 0 -4
BITMAP
0000000000
0000000000
0000000000
000c000000
0006000000
0007000000
0007000000
020e000000
038c000000
01ec800000
007fe00000
001fe00000
0018000000
0010000000
0030000000
0830040000
0e20020000
07a1010000
01ffc18000
00ffc08000
004000c000
004000c000
004000c000
004000c000
006001c000
006001c000
0060038000
0030078000
003c1f0000
001ffe0000
0007f80000
0000000000
0000000000
0000000000
0000000000
ENDCHAR
STARTCHAR 2237
ENCODING 8759
SWIDTH 1020 0
DWIDTH 34 0
BBX 34 35 0 -4
BITMAP
0000000000
0000000000
0000000000
0000000000
0000000000
0000000000
0000000000
0000000000
0000000000
0001c00000
0040700000
0060380000
0030600000
00301f0000
0018f1c000
001b804000
001e006000
047c006000
07ec006000
038c00c000
010603c000
00061f0000
0006000000
0003000000
0003000000
0003000000
0001800000
0001800000
0001c00000
0000800000
0000000000
0000000000
0000000000
0000000000
0000000000
ENDCHAR
STARTCHAR 2238
ENCODING 8760
SWIDTH 1020 0
DWIDTH 34 0
BBX 34 35 0 -4
BITMAP
0000000000
0000000000
0000000000
0000000000
000f000000
0001c00000
0000e00000
01c3f00000
0200e00000
030007e000
01801ff800
0180f01c00
00c3c00c00
00cf000e00
007c000e00
21f0000e00
3fb0000c00
3e30001c00
1818003800
001800f000
000c0f8000
000c000000
000e000000
0006000000
0007000000
0003000000
0003800000
0003800000
0001c00000
0001c00000
0001c00000
0000800000
0000000000
0000000000
0000000000
ENDCHAR
STARTCHAR 2239
ENCODING 8761
SWIDTH 1020 0
DWIDTH 34 0
BBX 34 35 0 -4
BITMAP
0000000000
0000000000
0000000000
0000000000
0000000000
0000000000
0000000000
0000000000
0000000000
0000000000
0001c00000
0000600000
0180600000
00c0700000
00c1fc0000
00c7370000
018c318000
0188308000
019830c000
011030c000
013030c000
012430c000
01a4318000
00e2318000
00e3370000
00e0fc0000
0040200000
0000600000
0000c00000
0003000000
0000000000
0000000000
0000000000
0000000000
0000000000
ENDCHAR
STARTCHAR 223a
ENCODING 8762
SWIDTH 1020 0
DWIDTH 34 0
BBX 34 35 0 -4
BITMAP
0000000000
0000000000
0000000000
0001c00000
0000600000
1800600000
0c00700000
0e00300000
0e03ff0000
0c0e31c000
0c18306000
0c30303000
0c60303800
1840381800
18c0381c00
1880381c00
1080380c00
1180381c00
1900381c00
1908381800
0d08383800
0d0c303000
0f04307000
078630e000
0783b3c000
0380ff0000
0100600000
0000600000
0000c00000
0001800000
0003000000
000c000000
0000000000
0000000000
0000000000
ENDCHAR
STARTCHAR 223b
ENCODING 8763
SWIDTH 1020 0
DWIDTH 34 0
BBX 34 35 0 -4
BITMAP
0000000000
0000000000
0000000000
0000000000
0000000000
0000000000
0000000000
0000000000
0000000000
0000000000
0003000000
0001800000
0001c00000
0001c00000
0001800000
0001860000
0001ff0000
0001f80000
0001800000
0001800000
0001800000
0001800000
0001800000
0001800000
0001800000
007fc00000
00c1f80000
01819e0000
00c3870000
007f020000
0000000000
0000000000
0000000000
0000000000
0000000000
ENDCHAR
STARTCHAR 223c
ENCODING 8764
SWIDTH 1020 0
DWIDTH 34 0
BBX 34 35 0 -4
BITMAP
0000000000
0000000000
0000000000
0001800000
0000c00000
0000e00000
0000e00000
0000e00000
0000c00000
0000c00000
0000c60000
0000ff8000
0000ffc000
0000c00000
0000c00000
0000c00000
0000c00000
0000c00000
0000c00000
0000c00000
0000c00000
0000c00000
0000c00000
0000c00000
00ffc00000
0383f80000
0600fe0000
0600cf8000
0700c3c000
03c3818000
00fe000000
0000000000
0000000000
0000000000
0000000000
ENDCHAR
STARTCHAR 223d
ENCODING 8765
SWIDTH 1020 0
DWIDTH 34 0
BBX 34 35 0 -4
BITMAP
0000000000
0000000000
0000000000
0018000000
000f000000
0003f00000
0001f00000
0006000000
0018000000
0020000000
0060000000
0040000000
00c0000000
00c0000000
00c0000000
00c0000000
00c0fc0000
00c7870000
00de018000
00f801c000
00f000c000
00e000e000
01c000e000
008000e000
000001c000
000001c000
0000038000
0000070000
00001e0000
0000f80000
000f800000
0000000000
0000000000
0000000000
0000000000
ENDCHAR
STARTCHAR 223e
ENCODING 8766
SWIDTH 1020 0
DWIDTH 34 0
BBX 34 35 0 -4
BITMAP
0000000000
0000000000
0000000000
00c0000000
0060000000
0070780000
00708c0000
0071060000
0062030000
0062030000
0064030000
0044018000
00c8018000
00c8018000
0098018000
0090018000
00d0018000
00f0018000
00f0018000
00f0018000
0060018000
0060018000
0000030000
0000030000
0000030000
0000060000
0000060000
00000c0000
0000180000
0000300000
0000c00000
0003000000
0000000000
0000000000
0000000000
ENDCHAR
STARTCHAR 223f
ENCODING 8767
SWIDTH 1020 0
DWIDTH 34 0
BBX 34 35 0 -4
BITMAP
0000000000
0000000000
0000000000
0000000000
00000c0000
00007e0000
0083fe0000
00ff180000
0078300000
0020600000
0000c00000
0001800000
0003000000
0006000000
000c000000
003bf80000
007e0f0000
00f0018000
01c000c000
078000c000
0f00006000
0e00006000
0400006000
0000006000
001f806000
0030e0c000
006070c000
0060338000
00303f0000
003ffc0000
000fe00000
0000000000
0000000000
0000000000
0000000000
ENDCHAR
STARTCHAR 2240
ENCODING 8768
SWIDTH 1020 0
DWIDTH 34 0
BBX 34 35 0 -4
BITMAP
0000000000
0000000000
0000000000
00c0000000
0060000000
0070000000
0070000000
0070000000
00601e0000
00707f0000
00f1c18000
23e3018000
3f66018000
1c6c018000
0878018000
0070018000
0060018000
00e0038000
01e0030000
0160030000
0360030000
0660070000
0e60070000
1c60070200
1860070200
3860070400
7060030c00
2660033800
01e003f000
00e001c000
0060000000
0040000000
0000000000
0000000000
0000000000
ENDCHAR
STARTCHAR 2241
ENCODING 8769
SWIDTH 1020 0
DWIDTH 34 0
BBX 34 35 0 -4
BITMAP
0000000000
0000000000
0000000000
0000000000
00000c0000
00007e0000
0083fe0000
00ff180000
0078300000
0020600000
0000c00000
0001800000
0003000000
0006000000
000c000000
001bf80000
007e0f0000
00f0018000
01c000c000
078000c000
0f00006000
0e00006000
0c00006000
000000e000
000000c000
000001c000
0000038000
0000070000
00001e0000
0000f80000
0007c00000
0000000000
0000000000
0000000000
0000000000
ENDCHAR
STARTCHAR 2242
ENCODING 8770
SWIDTH 1020 0
DWIDTH 34 0
BBX 34 35 0 -4
BITMAP
0000000000
0000000000
0000000000
0000000000
0000000000
0000000000
0000000000
0000000000
0000000000
0000000000
0030000000
001c000000
0018000000
0018000000
001e000000
023c7c0000
01f9c70000
019f018000
001c008000
003800c000
007800c000
00d800c000
019800c000
0318018000
0718018000
0698030000
0058060000
00381c0000
0018700000
0010000000
0000000000
0000000000
0000000000
0000000000
0000000000
ENDCHAR
STARTCHAR 2243
ENCODING 8771
SWIDTH 1020 0
DWIDTH 34 0
BBX 34 35 0 -4
BITMAP
0000000000
0000000000
0000000000
0030000000
0018000000
001c000000
001c000000
0018000000
0018000000
001e000000
083f000000
0ffc3f0000
07d8e1c000
031b806000
001e003000
001c003800
0038001800
0038001c00
0078001c00
00d8000c00
0198000c00
0318001c00
0718001c00
0e18001800
1c98003800
1c58003000
0878006000
003801c000
0038070000
00183c0000
0010000000
0000000000
0000000000
0000000000
0000000000
ENDCHAR
STARTCHAR 2244
ENCODING 8772
SWIDTH 1020 0
DWIDTH 34 0
BBX 34 35 0 -4
BITMAP
0000000000
0000000000
0000000000
0000000000
0000400000
0000e00000
0187f00000
00fee00000
0070c00000
0001c00000
0001800000
0003800000
0003fc0000
0006070000
001e01c000
006c00c000
00cc007000
0198007000
0318003000
0630003800
0630003800
0c60003800
0c60003800
0cc0003000
0cc3f07000
0d86186000
0f8c0cc000
070c0f8000
02070f0000
0003f80000
0000000000
0000000000
0000000000
0000000000
0000000000
ENDCHAR
STARTCHAR 2245
ENCODING 8773
SWIDTH 1020 0
DWIDTH 34 0
BBX 34 35 0 -4
BITMAP
0000000000
0000000000
0000000000
0000380000
0041fc0000
007fb80000
003c300000
0010600000
0000c00000
0001800000
0007fc0000
000f0f0000
001c038000
007001c000
00e001c000
01c381c000
0086c18000
0008630000
00086e0000
0007f80000
0001c00000
000f000000
0018000000
0070000000
00e0000000
01f00f8000
039c38e000
0706607000
0e07c03800
1e03c03800
0c01801000
0000000000
0000000000
0000000000
0000000000
ENDCHAR
STARTCHAR 2246
ENCODING 8774
SWIDTH 1020 0
DWIDTH 34 0
BBX 34 35 0 -4
BITMAP
0000000000
0000000000
0006000000
0003000000
0003000000
0007100000
0006780000
020ff80000
01ff800000
00f8000000
0018000000
0030000000
0060000000
007f008000
00f180c000
01c0c3e000
0380cfc000
0700fe0000
0e01f00000
0403c00000
000ec00000
0018c00000
0030c00000
0060c00000
0060000000
00c0000000
00c0000000
0060000000
0070078000
003fff8000
000ffe0000
0000000000
0000000000
0000000000
0000000000
ENDCHAR
STARTCHAR 2247
ENCODING 8775
SWIDTH 1020 0
DWIDTH 34 0
BBX 34 35 0 -4
BITMAP
0000000000
0000000000
0000000000
0003000000
0001800000
0003c00000
0003800000
0007000000
0007000000
000e000000
000c000000
001c000000
0018000000
0030000000
0030000000
0060000000
0067800000
00d8c00000
00e0600000
01c0600000
0180600400
0380600400
0300600c00
0700600800
0600601800
0e00601000
0c00603000
1c00706000
1c0031c000
38003f8000
18000e0000
0000000000
0000000000
0000000000
0000000000
ENDCHAR
STARTCHAR 2248
ENCODING 8776
SWIDTH 1020 0
DWIDTH 34 0
BBX 34 35 0 -4
BITMAP
0000000000
0000000000
0000000000
0000000000
0000000000
0000000000
0000000000
0000000000
0000000000
0000008000
03001fc000
01ffffe000
00ff81c000
0060018000
0002018000
0003830000
0001c30000
0001860000
00019c0000
0001f00000
0001800000
0001800000
0003800000
0003000000
0003000000
0006000000
0006000000
000c000000
0018000000
0020000000
0000000000
0000000000
0000000000
0000000000
0000000000
ENDCHAR
STARTCHAR 2249
ENCODING 8777
SWIDTH 1020 0
DWIDTH 34 0
BBX 34 35 0 -4
BITMAP
0000000000
0000000000
0000000000
0000000000
0000000000
0000002000
1000fff000
1ffffff800
0fff007800
0600007000
0000007000
000400e000
000300c000
000381c000
0003838000
0003830000
0003860000
00030c0000
0003380000
0007e00000
0007000000
0006000000
0006000000
000c000000
000c000000
0018000000
0018000000
0030000000
0060000000
00c0000000
0300000000
0000000000
0000000000
0000000000
0000000000
ENDCHAR
STARTCHAR 224a
ENCODING 8778
SWIDTH 1020 0
DWIDTH 34 0
BBX 34 35 0 -4
BITMAP
0000000000
0000000000
0000000000
0000000000
0000000000
0000000000
0000000000
0000000000
0000000000
0000000000
0000040000
0000060000
0000070000
00000e0000
00001c0000
0000380000
0000700000
0000e00000
0003c00000
0007c00000
001cc00000
0070c00000
0380c00000
0000c00000
0000c00000
0000c00000
0000c00000
0000c00000
0000c00000
0000c00000
0000000000
0000000000
0000000000
0000000000
0000000000
ENDCHAR
STARTCHAR 224b
ENCODING 8779
SWIDTH 1020 0
DWIDTH 34 0
BBX 34 35 0 -4
BITMAP
0000000000
0000000000
0000000000
0000000000
000001c000
000000e000
000001e000
000001c000
0000038000
0000070000
00000e0000
00001c0000
0000380000
0000700000
0000e00000
0001e00000
0007e00000
000e600000
003c600000
00f0600000
0380600000
0e00600000
0000600000
0000600000
0000600000
0000600000
0000600000
0000600000
0000600000
0000e00000
0000600000
0000000000
0000000000
0000000000
0000000000
ENDCHAR
STARTCHAR 224c
ENCODING 8780
SWIDTH 1020 0
DWIDTH 34 0
BBX 34 35 0 -4
BITMAP
0000000000
0000000000
0000000000
0000000000
0000000000
0000000000
0000000000
0000000000
0000000000
0003000000
0001800000
0001c00000
0001800000
03019f0000
019fff8000
01ff038000
0180038000
0180038000
00c0038000
00c0030000
00c0070000
0080070000
0000060000
00000e0000
00000c0000
0000180000
0000300000
0000600000
0001c00000
0006000000
0000000000
0000000000
0000000000
0000000000
0000000000
ENDCHAR
STARTCHAR 224d
ENCODING 8781
SWIDTH 1020 0
DWIDTH 34 0
BBX 34 35 0 -4
BITMAP
0000000000
0000000000
0000000000
0003000000
0001c00000
0001800000
0001800000
0001800000
0001806000
0801fff000
0ffffff800
07ff007000
0600007000
0600007000
0600006000
0700006000
030000e000
030000c000
038000c000
030001c000
0000018000
0000018000
0000030000
0000070000
0000060000
00000c0000
0000180000
0000300000
0000e00000
0003800000
000c000000
0000000000
0000000000
0000000000
0000000000
ENDCHAR
STARTCHAR 224e
ENCODING 8782
SWIDTH 1020 0
DWIDTH 34 0
BBX 34 35 0 -4
BITMAP
0000000000
0000000000
0000000000
0000000000
0000000000
0000000000
0000000000
0000000000
0000000000
0000000000
0000000000
00000e0000
0101ff0000
01fff10000
00fd800000
0021800000
0001800000
0001800000
0001800000
0001800000
0001800000
0001800000
0001800000
0001810000
00019fc000
0203ffe000
03ffe04000
01f0000000
0080000000
0000000000
0000000000
0000000000
0000000000
0000000000
0000000000
ENDCHAR
STARTCHAR 224f
ENCODING 8783
SWIDTH 1020 0
DWIDTH 34 0
BBX 34 35 0 -4
BITMAP
0000000000
0000000000
0000000000
0000000000
0000000000
0000000000
0000000000
0000030000
0c01ffc000
07ffffe000
03ff004000
0103800000
0003800000
0003000000
0003000000
0003000000
0003000000
0003000000
0003000000
0003000000
0003000000
0003000000
0003000000
0003000000
0003006000
600ffff800
3ffffffc00
0ff0000800
0600000000
0000000000
0000000000
0000000000
0000000000
0000000000
0000000000
ENDCHAR
STARTCHAR 2250
ENCODING 8784
SWIDTH 1020 0
DWIDTH 34 0
BBX 34 35 0 -4
BITMAP
0000000000
0000000000
0000000000
0000000000
0000000000
0000000000
0000000000
0000000000
0000000000
0000300000
0000180000
00001c0000
0000180000
0000198000
0080ffc000
00fffc6000
007e780000
0030f80000
0000d80000
0001d80000
0001980000
0003180000
0006180000
000c180000
0018180000
0030180000
0061980000
0180780000
0000380000
0000100000
0000000000
0000000000
0000000000
0000000000
0000000000
ENDCHAR
STARTCHAR 2251
ENCODING 8785
SWIDTH 1020 0
DWIDTH 34 0
BBX 34 35 0 -4
BITMAP
0000000000
0000000000
0000000000
0000300000
0000180000
00001c0000
00001c0000
00001c0000
0000180000
0000183000
04001ff800
07fffffc00
03fffc0800
00c03c0000
00007c0000
00007c0000
0000ec0000
0000cc0000
0001cc0000
00038c0000
00070c0000
00060c0000
000c0c0000
00180c0000
00300c0000
00600c0000
00c00c0000
03018c0000
0c007c0000
00003c0000
0000180000
0000000000
0000000000
0000000000
0000000000
ENDCHAR
STARTCHAR 2252
ENCODING 8786
SWIDTH 1020 0
DWIDTH 34 0
BBX 34 35 0 -4
BITMAP
0000000000
0000000000
0000000000
0006000000
0003800000
0003800000
0003800000
0003800000
0003000000
0003000000
0003004000
0803ffe000
0ffffff000
07ff007000
0307006000
0007006000
0006006000
0006006000
000e006000
000c006000
000c006000
001c00e000
001800c000
003000c000
007000c000
006001c000
00c0418000
0180238000
03001f0000
06000f0000
1800060000
0000000000
0000000000
0000000000
0000000000
ENDCHAR
STARTCHAR 2253
ENCODING 8787
SWIDTH 1020 0
DWIDTH 34 0
BBX 34 35 0 -4
BITMAP
0000000000
0000000000
0000002000
0006001800
0003810c00
000380ce00
0003806400
0003807000
0003002000
0003000000
0003004000
0803ffe000
0ffffff000
07ff007000
0307006000
0007006000
0006006000
0006006000
000e006000
000c006000
000c006000
001c00e000
001800c000
003000c000
007000c000
006001c000
00c0418000
0180238000
03001f0000
06000f0000
1800060000
0000000000
0000000000
0000000000
0000000000
ENDCHAR
STARTCHAR 2254
ENCODING 8788
SWIDTH 1020 0
DWIDTH 34 0
BBX 34 35 0 -4
BITMAP
0000000000
0000000000
0000000000
0018000000
000e000000
000e000000
0006000000
0006010000
00061f8000
0407ffc000
0fffe08000
07fb000000
0303000000
0003000000
0003000000
0003000000
000180c000
00019fe000
080ffff000
1fffe02000
0ff1800000
0301800000
0001800000
0000c00000
0000c00000
0000c00000
0000c00000
0000e00000
0000e00000
0000e00000
0000c00000
0000000000
0000000000
0000000000
0000000000
ENDCHAR
STARTCHAR 2255
ENCODING 8789
SWIDTH 1020 0
DWIDTH 34 0
BBX 34 35 0 -4
BITMAP
0000000000
0000002000
0000001800
0018010c00
000e00ce00
000e006400
0006007000
0006012000
00061f8000
0407ffc000
0fffe08000
07fb000000
0303000000
0003000000
0003000000
0003000000
000180c000
00019fe000
080ffff000
1fffe02000
0ff1800000
0301800000
0001800000
0000c00000
0000c00000
0000c00000
0000c00000
0000e00000
0000e00000
0000e00000
0000c00000
0000000000
0000000000
0000000000
0000000000
ENDCHAR
STARTCHAR 2256
ENCODING 8790
SWIDTH 1020 0
DWIDTH 34 0
BBX 34 35 0 -4
BITMAP
0000000000
0000000000
0000000000
000c000000
0007000000
0007000000
0006000000
000e00c000
000c3fe000
001ffff000
001fc0f000
003000e000
007000e000
006001c000
00c001c000
0180018000
0300038000
0600030000
0800070000
00000e0000
00000c0000
00001c0000
0000380000
0000700000
0000e00000
0001c00000
0003800000
000e000000
001c000000
0070000000
0380000000
0000000000
0000000000
0000000000
0000000000
ENDCHAR
STARTCHAR 2257
ENCODING 8791
SWIDTH 1020 0
DWIDTH 34 0
BBX 34 35 0 -4
BITMAP
0000000000
0000001000
0000000c00
0018008600
000e006700
000e003200
000c003800
001c019000
00187fc000
003fffe000
003f81e000
006001c000
00e001c000
00c0038000
0180038000
0300030000
0600070000
0c00060000
10000e0000
00001c0000
0000180000
0000380000
0000700000
0000e00000
0001c00000
0003800000
0007000000
001e000000
0038000000
00e0000000
0700000000
0000000000
0000000000
0000000000
0000000000
ENDCHAR
STARTCHAR 2258
ENCODING 8792
SWIDTH 1020 0
DWIDTH 34 0
BBX 34 35 0 -4
BITMAP
0000000000
0000000000
0000000000
0030000000
0018000000
001c000000
001c000000
0038000000
0038000000
0030006000
00701ff800
007ffffc00
00fff80c00
01c01c0000
01801e0000
03001c0000
06001c0000
0c001c0000
1000180000
0000380000
0000380000
0000300000
0000700000
0000600000
0000e00000
0001c00000
0003800000
0007000000
001c000000
0070000000
01c0000000
0000000000
0000000000
0000000000
0000000000
ENDCHAR
STARTCHAR 2259
ENCODING 8793
SWIDTH 1020 0
DWIDTH 34 0
BBX 34 35 0 -4
BITMAP
0000000000
0000002000
0000001800
0030010c00
001800ce00
001e006400
001c007000
0038002000
0038000000
0030006000
00701ff800
007ffffc00
00fff80c00
01c01c0000
01801e0000
03001c0000
06001c0000
0c001c0000
1000180000
0000380000
0000380000
0000300000
0000700000
0000600000
0000e00000
0001c00000
0003800000
0006000000
001c000000
0070000000
01c0000000
0000000000
0000000000
0000000000
0000000000
ENDCHAR
STARTCHAR 225a
ENCODING 8794
SWIDTH 1020 0
DWIDTH 34 0
BBX 34 35 0 -4
BITMAP
0000000000
0000000000
0000000000
0000000000
0000000000
0000000000
0000000000
0000020000
0801ff0000
0fffff8000
07fe03c000
0300038000
0000038000
0000038000
0000038000
0000030000
0000030000
0000030000
0000070000
0000070000
0000060000
0000060000
0000060000
00000e0000
00000c0000
0803ff0000
0fffff8000
07fc000000
0380000000
0000000000
0000000000
0000000000
0000000000
0000000000
0000000000
ENDCHAR
STARTCHAR 225b
ENCODING 8795
SWIDTH 1020 0
DWIDTH 34 0
BBX 34 35 0 -4
BITMAP
0000000000
0000000000
0000002000
0000001800
0000010c00
000000ce00
0000006400
0000027000
0801ff2000
0fffff8000
07fe03c000
0300038000
0000038000
0000038000
0000038000
0000030000
0000030000
0000030000
0000070000
0000070000
0000060000
0000060000
0000060000
00000e0000
00000c0000
0803ff0000
0fffff8000
07fc000000
0380000000
0000000000
0000000000
0000000000
0000000000
0000000000
0000000000
ENDCHAR
STARTCHAR 225c
ENCODING 8796
SWIDTH 1020 0
DWIDTH 34 0
BBX 34 35 0 -4
BITMAP
0000000000
0000000000
0000000000
00000c0000
0060060000
0030070000
0038070000
0038070000
0030060000
0030060000
0030063000
2030fffc00
3ffffffe00
1fff060400
0c30060000
0030060000
0030060000
0030060000
00300e0000
00700c0000
00300c0000
00000c0000
0000180000
0000180000
0000300000
0000600000
0000c00000
0003800000
000e000000
0030000000
0000000000
0000000000
0000000000
0000000000
0000000000
ENDCHAR
STARTCHAR 225d
ENCODING 8797
SWIDTH 1020 0
DWIDTH 34 0
BBX 34 35 0 -4
BITMAP
0000000000
0000001000
0000000c00
00000c8600
0060066700
0030073200
0038073800
0038071000
0030060000
0030060000
0030063000
2030fffc00
3ffffffe00
1fff060400
0c30060000
0030060000
0030060000
0030060000
00300e0000
00700c0000
00300c0000
00000c0000
0000180000
0000180000
0000300000
0000600000
0000c00000
0003800000
000e000000
0030000000
0000000000
0000000000
0000000000
0000000000
0000000000
ENDCHAR
STARTCHAR 225e
ENCODING 8798
SWIDTH 1020 0
DWIDTH 34 0
BBX 34 35 0 -4
BITMAP
0000000000
0000000000
0000000000
0000000000
00c0000000
0078000000
001e000000
000f000000
0007800000
0003000000
0000000400
0c00000400
0780000800
01e0000800
00f0001800
0078003000
0030002000
0000006000
000000c000
0000018000
0000038000
0000070000
00000e0000
00003c0000
0000780000
0101f00000
018fc00000
00ff800000
007e000000
0038000000
0000000000
0000000000
0000000000
0000000000
0000000000
ENDCHAR
STARTCHAR 225f
ENCODING 8799
SWIDTH 1020 0
DWIDTH 34 0
BBX 34 35 0 -4
BITMAP
0000000000
0000000000
0000001000
0000000c00
00c0010600
007800c700
001e006200
000f007000
0007802000
0003000000
0000000400
0c00000400
0780000800
01e0000800
00f0001800
0078003000
0030002000
0000006000
000000c000
0000018000
0000038000
0000070000
00000e0000
00003c0000
0000780000
0101f00000
018fc00000
00ff800000
007e000000
0038000000
0000000000
0000000000
0000000000
0000000000
0000000000
ENDCHAR
STARTCHAR 2260
ENCODING 8800
SWIDTH 1020 0
DWIDTH 34 0
BBX 34 35 0 -4
BITMAP
0000000000
0000000000
0000000000
0000000000
0000000000
0000000000
0000030000
0300ff8000
01ffffc000
00ff038000
0060038000
0000070000
0000070000
0000060000
00000e0000
00000c0000
00001c0000
0000380000
0000300000
0000700000
0000f80000
0001cc0000
0003860000
0007030000
000e038000
001c01c000
007000e000
00e0007000
0380007000
0e00003000
0000000000
0000000000
0000000000
0000000000
0000000000
ENDCHAR
STARTCHAR 2261
ENCODING 8801
SWIDTH 1020 0
DWIDTH 34 0
BBX 34 35 0 -4
BITMAP
0000000000
0000001000
0000000c00
0000008600
0000006700
0000003200
0000033800
0300ff9000
01ffffc000
00ff038000
0060038000
0000070000
0000070000
0000060000
00000e0000
00000c0000
00001c0000
0000380000
0000300000
0000700000
0000f80000
0001cc0000
0003860000
0007030000
000e038000
001c01c000
007000e000
00e0007000
0380007000
0e00003000
0000000000
0000000000
0000000000
0000000000
0000000000
ENDCHAR
STARTCHAR 2262
ENCODING 8802
SWIDTH 1020 0
DWIDTH 34 0
BBX 34 35 0 -4
BITMAP
0000000000
0000000000
0000000000
0060000000
0030000000
0038000000
0038000000
0038000000
0030000000
003000c000
00301fe000
0033f8f000
207fc1e000
3ffc01c000
1fb0038000
0c30070000
0030060000
00300c0000
0030180000
0030600000
0030000000
0030000000
0030000000
0030000000
0030000000
0018000000
001e03e000
000fffe000
0003ff0000
0000000000
0000000000
0000000000
0000000000
0000000000
0000000000
ENDCHAR
STARTCHAR 2263
ENCODING 8803
SWIDTH 1020 0
DWIDTH 34 0
BBX 34 35 0 -4
BITMAP
0000000000
0000000000
0000001000
0060000c00
0030008600
0038006700
0038003200
0038003800
0030001000
003000c000
00301fe000
0033f8f000
207fc1e000
3ffc01c000
1fb0038000
0c30070000
0030060000
00300c0000
0030180000
0030600000
0030000000
0030000000
0030000000
0030000000
0030000000
0018000000
001e03e000
000fffe000
0003ff0000
0000000000
0000000000
0000000000
0000000000
0000000000
0000000000
ENDCHAR
STARTCHAR 2264
ENCODING 8804
SWIDTH 1020 0
DWIDTH 34 0
BBX 34 35 0 -4
BITMAP
0000000000
0000000000
0000000000
0000000000
0000000000
080000c000
0400006000
0200007000
0300007800
0180007000
01c0007000
00c000e000
00e000e000
00f000e000
007000c000
007001c000
002001c000
0000018000
0000038000
0000030000
0000070000
00000e0000
00000c0000
00001c0000
0000380000
0000700000
0000e00000
0001c00000
0003000000
000e000000
0038000000
0000000000
0000000000
0000000000
0000000000
ENDCHAR
STARTCHAR 2265
ENCODING 8805
SWIDTH 1020 0
DWIDTH 34 0
BBX 34 35 0 -4
BITMAP
0000000000
0000001000
0000000c00
0000000600
0000004700
2000033200
1000019800
080001dc00
0c0001e800
060001c000
070001c000
0300038000
0380038000
03c0038000
01c0030000
01c0070000
0080070000
0000060000
00000e0000
00000c0000
00001c0000
0000380000
0000300000
0000700000
0000e00000
0001c00000
0003800000
0007000000
000c000000
0038000000
00e0000000
0000000000
0000000000
0000000000
0000000000
ENDCHAR
STARTCHAR 2266
ENCODING 8806
SWIDTH 1020 0
DWIDTH 34 0
BBX 34 35 0 -4
BITMAP
0000000000
0000000000
0000000000
000c000000
0007000000
0007000000
0006000000
000e00c000
000c3fe000
001ffff000
001fc0f000
003000e000
007000e000
006001c000
00c001c000
01f0018000
031e038000
0607830000
0801e70000
0000fe0000
00003c0000
00001c0000
0000380000
0000700000
0000e00000
0001c00000
0003800000
000f000000
001c000000
0070000000
0380000000
0000000000
0000000000
0000000000
0000000000
ENDCHAR
STARTCHAR 2267
ENCODING 8807
SWIDTH 1020 0
DWIDTH 34 0
BBX 34 35 0 -4
BITMAP
0000000000
0000001000
0000000c00
0018008600
000e006700
000e003200
000c003800
001c019000
00187fc000
003fffe000
003f81e000
006001c000
00e001c000
00c0038000
0180038000
03e0030000
063c070000
0c0f060000
1003ce0000
0001fc0000
0000780000
0000380000
0000700000
0000e00000
0001c00000
0003800000
0007000000
001e000000
0038000000
00e0000000
0700000000
0000000000
0000000000
0000000000
0000000000
ENDCHAR
STARTCHAR 2268
ENCODING 8808
SWIDTH 1020 0
DWIDTH 34 0
BBX 34 35 0 -4
BITMAP
0000000000
0000000000
0000000000
0000000000
0000030000
0000018000
00000fc000
0000ff0000
000ff80000
03ffc00000
0000c00000
0000e00000
0000e00000
0000e00000
0000c06000
100ffff800
1ffffffc00
0ff0c00800
0600c00000
0000c00000
0000c00000
0000c00000
0001c00000
0001800000
0001800000
0003800000
0003000000
0006000000
000c000000
0018000000
0060000000
0000000000
0000000000
0000000000
0000000000
ENDCHAR
STARTCHAR 2269
ENCODING 8809
SWIDTH 1020 0
DWIDTH 34 0
BBX 34 35 0 -4
BITMAP
0000000000
0000000000
0000000000
0000000000
0000030000
0000018000
00000fd000
0000ff0c00
000ff80600
03ffc04700
0000c03200
0000e01800
0000e01c00
0000e00800
0000c06000
100ffff800
1ffffffc00
0ff0c00800
0600c00000
0000c00000
0000c00000
0000c00000
0001c00000
0001800000
0001800000
0003800000
0003000000
0006000000
000c000000
0018000000
0060000000
0000000000
0000000000
0000000000
0000000000
ENDCHAR
STARTCHAR 226a
ENCODING 8810
SWIDTH 1020 0
DWIDTH 34 0
BBX 34 35 0 -4
BITMAP
0000000000
0000000000
0000000000
0000000000
0000000000
0000000000
0000000000
0000000000
0000000000
0000000000
0004000000
0006030000
0203018000
030381c000
018181c000
01c1c18000
00c1c38000
00e0838000
00e0030000
0040070000
0000060000
00000e0000
00000c0000
0000180000
0000380000
0000700000
0000e00000
0001c00000
0007000000
001c000000
0000000000
0000000000
0000000000
0000000000
0000000000
ENDCHAR
STARTCHAR 226b
ENCODING 8811
SWIDTH 1020 0
DWIDTH 34 0
BBX 34 35 0 -4
BITMAP
0000000000
0000000000
0000000000
0000000000
0010000000
0008008000
000c006000
1006007000
0807007800
0c03007000
0603807000
0703c07000
0381c06000
038180e000
01c000e000
01c000e000
008000c000
000001c000
0000018000
0000038000
0000030000
0000060000
00000e0000
00001c0000
0000380000
0000700000
0000c00000
0003800000
000e000000
0038000000
0000000000
0000000000
0000000000
0000000000
0000000000
ENDCHAR
STARTCHAR 226c
ENCODING 8812
SWIDTH 1020 0
DWIDTH 34 0
BBX 34 35 0 -4
BITMAP
0000000000
0000001000
0000000c00
0000008600
0010006700
0008003200
000c003800
100600d000
0807006000
0c03007000
0603807000
0703c07000
0381c06000
038180e000
01c000e000
01c000e000
008000c000
000001c000
0000018000
0000038000
0000030000
0000060000
00000e0000
00001c0000
0000380000
0000700000
0000c00000
0003800000
000e000000
0038000000
0000000000
0000000000
0000000000
0000000000
0000000000
ENDCHAR
STARTCHAR 226d
ENCODING 8813
SWIDTH 1020 0
DWIDTH 34 0
BBX 34 35 0 -4
BITMAP
0000000000
0000000000
0000000000
0000000000
0000060000
0200ff0000
03ffff8000
01ff000000
0080000000
0000000000
0000000000
0000000000
0000004000
3003fff000
1ffffff800
0ffcc01800
0600e00000
0000f00000
0000e00000
0000e00000
0000e00000
0001c00000
0001c00000
0001800000
0003800000
0003000000
0006000000
000c000000
0018000000
0030000000
00c0000000
0000000000
0000000000
0000000000
0000000000
ENDCHAR
STARTCHAR 226e
ENCODING 8814
SWIDTH 1020 0
DWIDTH 34 0
BBX 34 35 0 -4
BITMAP
0000000000
0000000000
0000000000
0000000000
0000060000
0200ff1000
03ffff0c00
01ff008600
0080006700
0000003200
0000003800
0000001000
0000004000
3003fff000
1ffffff800
0ffcc01800
0600e00000
0000f00000
0000e00000
0000e00000
0000e00000
0001c00000
0001c00000
0001800000
0003800000
0003000000
0006000000
000c000000
0018000000
0030000000
00c0000000
0000000000
0000000000
0000000000
0000000000
ENDCHAR
STARTCHAR 226f
ENCODING 8815
SWIDTH 1020 0
DWIDTH 34 0
BBX 34 35 0 -4
BITMAP
0000000000
0000000000
0030000000
0018000000
0018000000
001c000000
001c000000
001c000000
0018000000
0018000000
0018000000
0018000000
0018000000
001e000000
001bc00000
0018f00000
0018780000
00181e0000
00180f0000
0018078000
0018030000
0018000000
0018000000
0018000000
0018000000
0018000000
0018000000
0018000000
0018000000
0038000000
0018000000
0018000000
0000000000
0000000000
0000000000
ENDCHAR
STARTCHAR 2270
ENCODING 8816
SWIDTH 1020 0
DWIDTH 34 0
BBX 34 35 0 -4
BITMAP
0000000000
0000000000
0030000000
0018000000
001c000000
001c010000
001c00c000
0018086000
0018067000
0018032000
0018038000
0018010000
0018000000
001e000000
001bc00000
0018f00000
0018380000
00181e0000
00180f0000
0018078000
0018030000
0018000000
0018000000
0018000000
0018000000
0018000000
0018000000
0018000000
0018000000
0018000000
0038000000
0018000000
0000000000
0000000000
0000000000
ENDCHAR
STARTCHAR 2271
ENCODING 8817
SWIDTH 1020 0
DWIDTH 34 0
BBX 34 35 0 -4
BITMAP
0000000000
0000000000
0000000000
0001800000
0000c00000
0000c00000
0000e00000
0000e00000
0000e00000
0000c00000
0000c00000
0000c0c000
2007fff800
3ffffffc00
1ff8c00c00
0700c00000
0000c00000
0000c00000
0001c00000
0001c00000
0001800000
0001800000
0003800000
0003000000
0007000000
0006000000
000c000000
0018000000
0030000000
00e0000000
0380000000
0000000000
0000000000
0000000000
0000000000
ENDCHAR
STARTCHAR 2272
ENCODING 8818
SWIDTH 1020 0
DWIDTH 34 0
BBX 34 35 0 -4
BITMAP
0000000000
0000000000
0000000000
0000000000
0000000000
0000000000
0000000000
0000010000
00001f8000
0203ffc000
03ffe0e000
01fc004000
00c0000000
0000000000
0000000000
0000000000
0000000000
0000000000
0000000000
0000000000
0000000000
0000000000
000000c000
00001ff000
1807fff800
0fffe01c00
07f8000000
0300000000
0000000000
0000000000
0000000000
0000000000
0000000000
0000000000
0000000000
ENDCHAR
STARTCHAR 2273
ENCODING 8819
SWIDTH 1020 0
DWIDTH 34 0
BBX 34 35 0 -4
BITMAP
0000000000
0000000000
0000000000
0000000000
0000000000
0000020000
0100ff0000
01ffff8000
00ff03c000
0060038000
0000038000
0000070000
0000070000
0000070000
00000e0000
00700e0000
001e1c0000
00079c0000
0001f80000
0000780000
00007e0000
0000ef0000
0001c78000
000383c000
000701e000
000e00c000
001c000000
0070000000
00e0000000
0380000000
0e00000000
0000000000
0000000000
0000000000
0000000000
ENDCHAR
STARTCHAR 2274
ENCODING 8820
SWIDTH 1020 0
DWIDTH 34 0
BBX 34 35 0 -4
BITMAP
0000000000
0000000000
0000000000
001f000000
0007e00000
0001f00000
0000600000
0000000000
0000060000
00007f0000
0307ff8000
01ff870000
00f80e0000
00401c0000
0000380000
0000700000
0000e00000
0001c00000
0003cc0000
0007c70000
001ec3c000
0038c0e000
00e0c07000
0380c03800
1e00c01800
0000c00000
0000c00000
0000c00000
0000c00000
0000c00000
0000c00000
0000000000
0000000000
0000000000
0000000000
ENDCHAR
STARTCHAR 2275
ENCODING 8821
SWIDTH 1020 0
DWIDTH 34 0
BBX 34 35 0 -4
BITMAP
0000000000
0000000000
0000000000
0000000000
0000000000
0000060000
0000030000
0000038000
000003c000
0000038000
0000038000
0000070000
0000070000
00000e0000
00000e0000
00001c0000
00001c0000
0000380000
0000700000
0000600000
0000e00000
0001c00000
0003800000
0007000000
000e000000
001c000000
0038000000
00e0000000
0180000000
0600000000
0000000000
0000000000
0000000000
0000000000
0000000000
ENDCHAR
STARTCHAR 2276
ENCODING 8822
SWIDTH 1020 0
DWIDTH 34 0
BBX 34 35 0 -4
BITMAP
0000000000
0000000000
0000000000
0000000000
0000000000
0000000000
0000000000
0020400000
0030200000
0018300000
001c180000
001c0c0000
00180c0000
0038060000
0038060000
0030030000
0030038000
0070018000
006001c000
00e000c000
00c000e000
01c0006000
0180007000
0300003000
0300003800
0600003800
0c00001800
1800001000
2000000000
0000000000
0000000000
0000000000
0000000000
0000000000
0000000000
ENDCHAR
STARTCHAR 2277
ENCODING 8823
SWIDTH 1020 0
DWIDTH 34 0
BBX 34 35 0 -4
BITMAP
0000000000
0000000000
0000000000
0000000000
0000000000
0000002000
0000001800
0020410c00
003020ce00
0018306400
001c187000
00180c2000
00380c0000
0038060000
0030060000
0030030000
0070038000
0060018000
00e001c000
00c000c000
00c000e000
0180006000
0180007000
0300003000
0300003800
0600003800
0c00001800
1800001000
2000000000
0000000000
0000000000
0000000000
0000000000
0000000000
0000000000
ENDCHAR
STARTCHAR 2278
ENCODING 8824
SWIDTH 1020 0
DWIDTH 34 0
BBX 34 35 0 -4
BITMAP
0000000000
0000000000
0000000000
0000000000
000000e000
0000011000
0000020800
0020420800
0030220800
0018311000
001c18e000
00180c0000
00380c0000
0038060000
0030060000
0030030000
0070038000
0060018000
00e001c000
00c000c000
00c000e000
0180006000
0180007000
0300003000
0300003800
0600003800
0c00001800
1800001000
2000000000
0000000000
0000000000
0000000000
0000000000
0000000000
0000000000
ENDCHAR
STARTCHAR 2279
ENCODING 8825
SWIDTH 1020 0
DWIDTH 34 0
BBX 34 35 0 -4
BITMAP
0000000000
0000000000
0000000000
0000000000
0600000000
0300000000
0380000000
0380000000
0380000000
0300000000
0300030000
0300038000
03000f8000
03007e0000
0303f80000
033f800000
03f8000000
0300000000
0300000000
0300000000
0300000000
0300000000
0300000000
0300000000
0300000000
0380000000
0180018000
01c00fc000
00ffff8000
003ffc0000
0000000000
0000000000
0000000000
0000000000
0000000000
ENDCHAR
STARTCHAR 227a
ENCODING 8826
SWIDTH 1020 0
DWIDTH 34 0
BBX 34 35 0 -4
BITMAP
0000000000
0000000000
0000000000
0000000000
0300001000
0180000c00
01c0008600
01c0006700
01c0003200
0180003800
0180019000
018001c000
018007c000
01803f0000
0181fc0000
019fc00000
01fc000000
0180000000
0180000000
0180000000
0180000000
0180000000
0180000000
0180000000
0180000000
01c0000000
00c000c000
00e007e000
007fffc000
001ffe0000
0000000000
0000000000
0000000000
0000000000
0000000000
ENDCHAR
STARTCHAR 227b
ENCODING 8827
SWIDTH 1020 0
DWIDTH 34 0
BBX 34 35 0 -4
BITMAP
0000000000
0000000000
0000000000
0000001c00
0300002200
0180004100
01c0004100
01c0004100
01c0002200
0180001c00
0180018000
018001c000
018007c000
01803f0000
0181fc0000
019fc00000
01fc000000
0180000000
0180000000
0180000000
0180000000
0180000000
0180000000
0180000000
0180000000
01c0000000
00c000c000
00e007e000
007fffc000
001ffe0000
0000000000
0000000000
0000000000
0000000000
0000000000
ENDCHAR
STARTCHAR 227c
ENCODING 8828
SWIDTH 1020 0
DWIDTH 34 0
BBX 34 35 0 -4
BITMAP
0000000000
0000000000
0000000000
0000000000
0000000000
0000000000
0000004000
0c00ffe000
07fffff000
03ff00f000
01c000e000
000000e000
000000e000
000001c000
000001c000
000001c000
0000038000
0000038000
0000070000
0000070000
00000e0000
00000c0000
00001c0000
0000380000
0000700000
0000e00000
0001c00000
0007800000
000e000000
0038000000
00e0000000
0000000000
0000000000
0000000000
0000000000
ENDCHAR
STARTCHAR 227d
ENCODING 8829
SWIDTH 1020 0
DWIDTH 34 0
BBX 34 35 0 -4
BITMAP
0000000000
0000001000
0000000c00
0000008e00
0000006700
0000003200
0000013800
3003ff9000
1fffffc000
0ffc03c000
0700038000
0000038000
0000038000
0000070000
0000070000
0000070000
00000e0000
00000e0000
00001c0000
00001c0000
0000380000
0000300000
0000700000
0000e00000
0001c00000
0003800000
0007000000
001e000000
0038000000
00e0000000
0380000000
0000000000
0000000000
0000000000
0000000000
ENDCHAR
STARTCHAR 227e
ENCODING 8830
SWIDTH 1020 0
DWIDTH 34 0
BBX 34 35 0 -4
BITMAP
0000000000
0000001c00
0000002200
0000004100
0000004100
0000004100
0000012200
3003ff9c00
1fffffc000
0ffc03c000
0700038000
0000038000
0000038000
0000070000
0000070000
0000070000
00000e0000
00000e0000
00001c0000
00001c0000
0000380000
0000300000
0000700000
0000e00000
0001c00000
0003800000
0007000000
001e000000
0038000000
00e0000000
0380000000
0000000000
0000000000
0000000000
0000000000
ENDCHAR
STARTCHAR 2321
ENCODING 8993
SWIDTH 1020 0
DWIDTH 34 0
BBX 34 35 0 -4
BITMAP
0000000000
0000000000
0000000000
0000000000
0000000000
0000000000
0000000000
0006000000
000f000000
001b800000
0031800000
0070c00000
0060e00000
00c0600000
01c0300000
0180380000
03801c0000
07000e0000
2700060000
3e00070000
1e00038000
0c0001c000
000000e000
000000f000
0000007800
0000003c00
0000001c00
0000000800
0000000000
0000000000
0000000000
0000000000
0000000000
0000000000
0000000000
ENDCHAR
STARTCHAR 2322
ENCODING 8994
SWIDTH 1020 0
DWIDTH 34 0
BBX 34 35 0 -4
BITMAP
0000000000
0000000000
0000000000
0000000000
0000008000
0000006000
0000083000
0006063800
000f031000
001b838000
0031810000
0070c00000
0060e00000
00c0600000
01c0300000
0180380000
03801c0000
07000e0000
2700060000
3e00070000
1e00038000
0c0001c000
000000e000
000000f000
0000007800
0000003c00
0000001c00
0000000800
0000000000
0000000000
0000000000
0000000000
0000000000
0000000000
0000000000
ENDCHAR
STARTCHAR 2323
ENCODING 8995
SWIDTH 1020 0
DWIDTH 34 0
BBX 34 35 0 -4
BITMAP
0000000000
0000000000
0000000000
0000000000
000001c000
0000022000
0000041000
0006041000
000f041000
001b822000
003181c000
0070c00000
0060e00000
00c0600000
01c0300000
0180380000
03801c0000
07000e0000
2700060000
3e00070000
1e00038000
0c0001c000
000000e000
000000f000
0000007800
0000003c00
0000001c00
0000000800
0000000000
0000000000
0000000000
0000000000
0000000000
0000000000
0000000000
ENDCHAR
STARTCHAR 2324
ENCODING 8996
SWIDTH 1020 0
DWIDTH 34 0
BBX 34 35 0 -4
BITMAP
0000000000
0000000000
0000000000
0003000000
0001800000
0001c00000
0001c00000
0001c00000
0001800000
0001800000
000180c000
1007fff000
1ffffff800
0ff9800800
0701800000
0001800000
0021840000
0021820000
0061830000
0061818000
00c180c000
01c180e000
0181807000
0381807000
0701803800
0e01803800
1c11801000
000d800000
0007800000
0003800000
0003000000
0000000000
0000000000
0000000000
0000000000
ENDCHAR
STARTCHAR 2325
ENCODING 8997
SWIDTH 1020 0
DWIDTH 34 0
BBX 34 35 0 -4
BITMAP
0000000000
0000000000
0000001000
0003000c00
0001808600
0001c06700
0001c03200
0001c03800
0001801000
0001800000
000180c000
1007fff000
1ffffff800
0ff9800800
0701800000
0001800000
0021840000
0021820000
0061830000
0061818000
00c180c000
01c180e000
0181807000
0381807000
0701803800
0e01803800
1c11801000
000d800000
0007800000
0003800000
0003000000
0000000000
0000000000
0000000000
0000000000
ENDCHAR
STARTCHAR 2326
ENCODING 8998
SWIDTH 1020 0
DWIDTH 34 0
BBX 34 35 0 -4
BITMAP
0000000000
0000000000
0000003800
0003004400
0001808200
0001c08200
0001c08200
0001c04400
0001803800
0001800000
000180c000
1007fff000
1ffffff800
0ff9800800
0701800000
0001800000
0021840000
0021820000
0061830000
0061818000
00c180c000
01c180e000
0181807000
0381807000
0701803800
0e01803800
1c11801000
000d800000
0007800000
0003800000
0003000000
0000000000
0000000000
0000000000
0000000000
ENDCHAR
STARTCHAR 2327
ENCODING 8999
SWIDTH 1020 0
DWIDTH 34 0
BBX 34 35 0 -4
BITMAP
0000000000
0000000000
0000000000
0000000000
0000000000
0000000000
0000000000
0000001000
1800fff800
0ffffffc00
07ff003c00
0380003800
0000007000
0000007000
000000e000
000001c000
0000018000
0000030000
0060060000
00180c0000
000e180000
0007600000
0003c00000
0001c00000
0000e00000
0000700000
0000380000
00003c0000
00001c0000
0000080000
0000000000
0000000000
0000000000
0000000000
0000000000
ENDCHAR
STARTCHAR 2328
ENCODING 9000
SWIDTH 1020 0
DWIDTH 34 0
BBX 34 35 0 -4
BITMAP
0000000000
0000000000
0000000000
0000000000
0000000000
01f0000000
003f000000
000fc00000
0001f80000
00007e0000
00000f8000
000007c000
0000018000
0000000000
00f8000000
001f800000
0003e00000
0000fc0000
00001f0000
00000f0000
0000020000
0000000000
0000000000
03f0000000
007f000000
000fe00000
0001fc0000
00003f0000
00000fc000
000003e000
000000c000
0000000000
0000000000
0000000000
0000000000
ENDCHAR
STARTCHAR 2329
ENCODING 9001
SWIDTH 1020 0
DWIDTH 34 0
BBX 34 35 0 -4
BITMAP
0000000000
0000000000
0000000000
0000000000
0000000000
0003000000
0001800000
0003c00000
0003800000
0003000000
0007000000
0007000000
0006000000
000e000000
000c000000
001c000000
0018000000
0018020000
0030010000
0030018000
0060008000
006000c000
00c0006000
00c0006000
0080007000
01801ff000
1107fe3800
1fffe03800
0ffe001c00
0fc0001c00
0400000800
0000000000
0000000000
0000000000
0000000000
ENDCHAR
STARTCHAR 232a
ENCODING 9002
SWIDTH 1020 0
DWIDTH 34 0
BBX 34 35 0 -4
BITMAP
0000000000
0000000000
0000000000
0000000000
0000018000
000000c000
000000c000
000000e000
000001c000
000001c000
0000038000
0000038000
0070030000
001c070000
0007060000
0003ce0000
0000fc0000
00007c0000
00003c0000
00003e0000
00007f0000
0000e78000
0001c38000
000381c000
000701e000
000e00f000
001c006000
0078000000
00e0000000
0380000000
0c00000000
0000000000
0000000000
0000000000
0000000000
ENDCHAR
STARTCHAR 232b
ENCODING 9003
SWIDTH 1020 0
DWIDTH 34 0
BBX 34 35 0 -4
BITMAP
0000000000
0000000000
0000000000
0000000000
0000000000
0000010000
04007f8000
07ffffc000
03ff806000
018c000000
000c000000
000c000000
000c000000
000c000000
000c002000
200ffff000
3ffffff800
1ffc000c00
0e0c000000
000c000000
000c000000
000c000000
000c000000
000c000000
000c000000
000e000000
0006000000
000781e000
0003fff000
0000ffc000
0000000000
0000000000
0000000000
0000000000
0000000000
ENDCHAR
STARTCHAR 232c
ENCODING 9004
SWIDTH 1020 0
DWIDTH 34 0
BBX 34 35 0 -4
BITMAP
0000000000
0000000000
0000000000
0000000000
0000000000
0000000000
0000000000
0000000000
0000000000
0000000000
0018000000
000c000000
000e008000
000e0fc000
0006ffe000
020ff1c000
03fe038000
01f7030000
00c3060000
00030c0000
0003080000
0003900000
0001800000
0001800000
0001800000
0001c00000
0001c00000
0000c00000
0000c00000
0000c00000
0000000000
0000000000
0000000000
0000000000
0000000000
ENDCHAR
STARTCHAR 232d
ENCODING 9005
SWIDTH 1020 0
DWIDTH 34 0
BBX 34 35 0 -4
BITMAP
0000000000
0000000000
0000000000
00c0000000
0070000000
0038000000
0038000000
0038000000
0018000000
0018002000
001c0ff000
000dfff800
403ff07000
7ffe007000
3fcc00e000
180c00c000
000e018000
000e030000
0006060000
0006180000
0007000000
0007000000
0007000000
0003000000
0003000000
0003800000
0003800000
0003800000
0003800000
0003c00000
0001800000
0000000000
0000000000
0000000000
0000000000
ENDCHAR
STARTCHAR 232e
ENCODING 9006
SWIDTH 1020 0
DWIDTH 34 0
BBX 34 35 0 -4
BITMAP
0000000000
0000000000
0000000000
0000000000
0000000000
0000000000
0000000000
0000000000
0000000000
0000000000
0000000000
0000000000
0000080000
0040fc0000
007ffe0000
003f0c0000
00180c0000
00000c0000
00000c0000
00001c0000
0000180000
0000180000
0000180000
0000380000
0000318000
0207ffc000
03ffffe000
01f8004000
00c0000000
0000000000
0000000000
0000000000
0000000000
0000000000
0000000000
ENDCHAR
STARTCHAR 232f
ENCODING 9007
SWIDTH 1020 0
DWIDTH 34 0
BBX 34 35 0 -4
BITMAP
0000000000
0000000000
0000000000
0000000000
0000000000
0000000000
0000000000
0000080000
0403fc0000
07fffe0000
03fc0f0000
01800e0000
00000e0000
00000e0000
00000c0000
00000c0000
00001c0000
00001c0000
0000180000
0000180000
0000180000
0000300000
000030c000
600ffff000
3ffffff800
1ff0000c00
0c00000000
0000000000
0000000000
0000000000
0000000000
0000000000
0000000000
0000000000
0000000000
ENDCHAR
STARTCHAR 2330
ENCODING 9008
SWIDTH 1020 0
DWIDTH 34 0
BBX 34 35 0 -4
BITMAP
0000000000
0000000000
0000000000
0000000000
0000000000
0000000000
0000000000
0000000000
0000000000
0000000000
0000040000
0040fe0000
007fff0000
003f070000
0018060000
0000060000
0000060000
0000060000
0020fe0000
003ffe0000
001f0c0000
00080c0000
00000c0000
00000c0000
00000c0000
0080fc0000
00fffe0000
007f000000
0030000000
0000000000
0000000000
0000000000
0000000000
0000000000
0000000000
ENDCHAR
STARTCHAR 2331
ENCODING 9009
SWIDTH 1020 0
DWIDTH 34 0
BBX 34 35 0 -4
BITMAP
0000000000
0000000000
0000000000
0000000000
0000000000
0000000000
0000018000
0400ffc000
07ffffe000
03ff01e000
01c001c000
000001c000
000001c000
000001c000
000001c000
0000018000
0201ff8000
03ffff8000
01fe018000
00c0038000
0000038000
0000030000
0000030000
0000030000
0000030000
0801ff0000
0fffff0000
07fe070000
0380030000
0000000000
0000000000
0000000000
0000000000
0000000000
0000000000
ENDCHAR
STARTCHAR 2332
ENCODING 9010
SWIDTH 1020 0
DWIDTH 34 0
BBX 34 35 0 -4
BITMAP
0000000000
0000000000
0000000000
0000000000
0000030000
0401ff8000
07ffffc000
03fe008000
0180000000
0000000000
0000000000
0000000000
0000006000
1800fff000
0ffffff800
07ff007000
0380007000
000000e000
000000e000
000001c000
0000018000
0000038000
0000070000
00000e0000
00001c0000
0000380000
0000700000
0001e00000
0003800000
001e000000
0070000000
0000000000
0000000000
0000000000
0000000000
ENDCHAR
STARTCHAR 2333
ENCODING 9011
SWIDTH 1020 0
DWIDTH 34 0
BBX 34 35 0 -4
BITMAP
0000000000
0000000000
0000000000
00000c0000
0180060000
00c0060000
00c0070000
00e0070000
00e0060000
00c0060000
00c0060000
00c0060000
00c0060000
00c0060000
00c0060000
00c0060000
00c0060000
00c0060000
00c0060000
00c0060000
00c00c0000
00000c0000
00000c0000
0000180000
0000180000
0000300000
0000600000
0000c00000
0001800000
0007000000
001c000000
0000000000
0000000000
0000000000
0000000000
ENDCHAR
STARTCHAR 2334
ENCODING 9012
SWIDTH 1020 0
DWIDTH 34 0
BBX 34 35 0 -4
BITMAP
0000000000
0000000000
0000000000
0000000000
0001800000
0000c00000
0000c00000
00c0e00000
0060e00000
0060c00000
0070c00000
0070c00000
0060c00000
0060c00000
0060c00400
0060c00400
0060c00c00
0060c00800
0060c01800
0060c01800
00e0c03000
00c0c07000
00c0c06000
00c0c0c000
0180c1c000
0180c38000
0300cf0000
0300fe0000
0601f80000
0c00f00000
3000400000
0000000000
0000000000
0000000000
0000000000
ENDCHAR
STARTCHAR 2335
ENCODING 9013
SWIDTH 1020 0
DWIDTH 34 0
BBX 34 35 0 -4
BITMAP
0000000000
0000000000
0000000000
00c0000000
0060000000
0070000000
0070000000
0070000000
0060000000
0060000000
0060000000
0060000000
0060000000
0060000000
0060002000
0060002000
0060004000
006000c000
0060008000
0060018000
0060030000
0060060000
00600e0000
00601c0000
0060780000
0060f00000
0067c00000
007f800000
00fe000000
0078000000
0020000000
0000000000
0000000000
0000000000
0000000000
ENDCHAR
STARTCHAR 2336
ENCODING 9014
SWIDTH 1020 0
DWIDTH 34 0
BBX 34 35 0 -4
BITMAP
0000000000
0000000000
0000000000
0000000000
0000000000
0000000000
0000000000
04001fc000
0607ffe000
03ffe0f000
03f800e000
030000e000
030000e000
030000e000
030000c000
030000c000
030000c000
030000c000
018000c000
018001c000
0180018000
0180018000
0180018000
0180018000
0180018000
0180ffc000
01ffffe000
03ff004000
0180000000
0000000000
0000000000
0000000000
0000000000
0000000000
0000000000
ENDCHAR
STARTCHAR 2337
ENCODING 9015
SWIDTH 1020 0
DWIDTH 34 0
BBX 34 35 0 -4
BITMAP
0000000000
0000000000
0000000000
0000000000
0000000000
0000000000
0000000000
0000000000
0000000000
0000000000
0000000000
0000070000
0301ff8000
01fff3c000
01f8038000
0180038000
0180030000
00c0030000
00c0070000
00c0060000
00c0060000
00000e0000
00000c0000
0000180000
0000380000
0000300000
0000600000
0000c00000
0003800000
000e000000
0000000000
0000000000
0000000000
0000000000
0000000000
ENDCHAR
STARTCHAR 2338
ENCODING 9016
SWIDTH 1020 0
DWIDTH 34 0
BBX 34 35 0 -4
BITMAP
0000000000
0000000000
0000000000
0000000000
0000000000
0000004000
0803ffe000
0ffffff000
07fc00e000
060000e000
060000e000
070000e000
070001c000
030001c000
038001c000
0380018000
0380038000
0380038000
0100030000
0000070000
0000060000
00000e0000
00001c0000
0000180000
0000300000
0000700000
0000e00000
0001800000
0003000000
000c000000
0030000000
0000000000
0000000000
0000000000
0000000000
ENDCHAR
STARTCHAR 2339
ENCODING 9017
SWIDTH 1020 0
DWIDTH 34 0
BBX 34 35 0 -4
BITMAP
0000000000
0000000000
0000000000
0000600000
0000300000
0000380000
0000380000
0000380000
0000300000
0000308000
0201ffe000
03fffff000
01fe302000
0060300000
0060300000
0070300000
0070300000
0070300000
0060300000
006030c000
207ffff800
3ffffffc00
1fe0300800
0600300000
0000300000
0000300000
0000300000
0000300000
0000300000
0000700000
0000300000
0000000000
0000000000
0000000000
0000000000
ENDCHAR
STARTCHAR 233a
ENCODING 9018
SWIDTH 1020 0
DWIDTH 34 0
BBX 34 35 0 -4
BITMAP
0000000000
0000000000
0000000000
0000000000
0000000000
0000000000
0000000000
0000000000
0000018000
0c01ffc000
07ffffe000
03fe03c000
0100038000
0000070000
0006060000
00030c0000
0003980000
0003a00000
0003800000
0003000000
0003000000
0003000000
0003000000
0003000000
0003000000
0003006000
600ffff800
3ffffffc00
0ff0000800
0600000000
0000000000
0000000000
0000000000
0000000000
0000000000
ENDCHAR
STARTCHAR 233b
ENCODING 9019
SWIDTH 1020 0
DWIDTH 34 0
BBX 34 35 0 -4
BITMAP
0000000000
0000000000
0000000000
0000000000
0000000000
0000018000
00003fc000
0807ffe000
07ffc0f000
03f800e000
010000e000
000000e000
000001c000
000001c000
00001fc000
0203ffc000
01ffe18000
00fc038000
0040038000
0000030000
0000070000
00000e0000
00000c0000
00001c0000
0000380000
0000700000
0000e00000
0001c00000
0003000000
000e000000
0030000000
0000000000
0000000000
0000000000
0000000000
ENDCHAR
STARTCHAR 233c
ENCODING 9020
SWIDTH 1020 0
DWIDTH 34 0
BBX 34 35 0 -4
BITMAP
0000000000
0000000000
0000000000
0000000000
0000000000
0800000000
0600000000
0300000000
01c0000000
00e0000800
0070000800
0078001000
0038001000
0010003000
0000002000
0000006000
000000c000
000000c000
0000018000
0000030000
0000070000
00000e0000
00001c0000
0000780000
0000f00000
0203e00000
031f800000
01ff000000
00fc000000
0070000000
0000000000
0000000000
0000000000
0000000000
0000000000
ENDCHAR
STARTCHAR 233d
ENCODING 9021
SWIDTH 1020 0
DWIDTH 34 0
BBX 34 35 0 -4
BITMAP
0000000000
0000001000
0000000c00
0006008600
0003006700
0003803200
0003003800
0003001000
000300c000
1003ffe000
1ffffff000
0ffe00e000
0c0000e000
0c0000e000
0e0000c000
0e0001c000
060001c000
0700018000
0700018000
0600038000
0000030000
0000030000
0000060000
00000e0000
00000c0000
0000180000
0000300000
0000600000
0001c00000
0007000000
0018000000
0000000000
0000000000
0000000000
0000000000
ENDCHAR
STARTCHAR 233e
ENCODING 9022
SWIDTH 1020 0
DWIDTH 34 0
BBX 34 35 0 -4
BITMAP
0000000000
0000000000
0000000000
0000000000
0000000000
0000000000
0000000000
0000000000
0000000000
0003000000
0001800000
0001c00000
0001c00000
0001810000
0081ff8000
00ffffc000
007f81c000
0031818000
0003018000
0003018000
0003018000
0006038000
0006030000
000c030000
000c030000
0018070000
0030c60000
00603e0000
00c01e0000
03000c0000
0000000000
0000000000
0000000000
0000000000
0000000000
ENDCHAR
STARTCHAR 233f
ENCODING 9023
SWIDTH 1020 0
DWIDTH 34 0
BBX 34 35 0 -4
BITMAP
0000000000
0000000000
0000000000
0000000000
0000000000
0000000000
0000000000
0000000000
0000000000
0000000000
0030000000
0018000000
001c000000
0018010000
00383fc000
003fffe000
007fe04000
0060300000
00c0380000
0180300000
0200700000
0000700000
0000600000
0000e00000
0000c00000
0001c00000
0001800000
0003000000
0006000000
0018000000
0000000000
0000000000
0000000000
0000000000
0000000000
ENDCHAR
STARTCHAR 2340
ENCODING 9024
SWIDTH 1020 0
DWIDTH 34 0
BBX 34 35 0 -4
BITMAP
0000000000
0000000000
0000000000
0000000000
0000000000
0000800000
0001c00000
0001c00000
0003e00000
0003e00000
0006700000
0006700000
000c380000
0008380000
0018380000
00101c0000
00301c0000
00200e0000
00600e0000
00400e0000
00ffff0000
0080070000
0180038000
0100038000
0300038000
020001c000
020001c000
1ff00ff000
0000000000
0000000000
0000000000
0000000000
0000000000
0000000000
0000000000
ENDCHAR
STARTCHAR 2341
ENCODING 9025
SWIDTH 1020 0
DWIDTH 34 0
BBX 34 35 0 -4
BITMAP
0000000000
0000000000
0000000000
0000000000
0000000000
0000000000
03fffc0000
00e03c0000
00e01c0000
00e00e0000
00e0060000
00e0020000
00e0020000
00e0000000
00e0000000
00ffe00000
00e0380000
00e00e0000
00e0070000
00e0070000
00e0038000
00e0038000
00e0038000
00e0070000
00e0070000
00e00e0000
00e0380000
03ffe00000
0000000000
0000000000
0000000000
0000000000
0000000000
0000000000
0000000000
ENDCHAR
STARTCHAR 2342
ENCODING 9026
SWIDTH 1020 0
DWIDTH 34 0
BBX 34 35 0 -4
BITMAP
0000000000
0000000000
0000000000
0000000000
0000000000
0000000000
01ffe00000
00703c0000
00700e0000
00700e0000
0070070000
0070070000
0070070000
00700e0000
00700e0000
00703c0000
007ff00000
00703c0000
0070070000
0070070000
0070038000
0070038000
0070038000
0070038000
0070070000
0070070000
00703e0000
01fff00000
0000000000
0000000000
0000000000
0000000000
0000000000
0000000000
0000000000
ENDCHAR
STARTCHAR 2343
ENCODING 9027
SWIDTH 1020 0
DWIDTH 34 0
BBX 34 35 0 -4
BITMAP
0000000000
0000000000
0000000000
0000000000
0000000000
0000000000
01ffff8000
00700f8000
0070038000
007001c000
007000c000
0070004000
0070004000
0070000000
0070000000
0070000000
0070000000
0070000000
0070000000
0070000000
0070000000
0070000000
0070000000
0070000000
0070000000
0070000000
0070000000
01fc000000
0000000000
0000000000
0000000000
0000000000
0000000000
0000000000
0000000000
ENDCHAR
STARTCHAR 2344
ENCODING 9028
SWIDTH 1020 0
DWIDTH 34 0
BBX 34 35 0 -4
BITMAP
0000000000
0000000000
0000000000
0000000000
0000000000
0000000000
001fff0000
00081c0000
00081c0000
00081c0000
00081c0000
00081c0000
00081c0000
00081c0000
00081c0000
00081c0000
00081c0000
00081c0000
00081c0000
00181c0000
00101c0000
00101c0000
00301c0000
00201c0000
00201c0000
00601c0000
00c01c0000
03ffffc000
078001e000
0600006000
0400002000
0400002000
0000000000
0000000000
0000000000
ENDCHAR
STARTCHAR 2345
ENCODING 9029
SWIDTH 1020 0
DWIDTH 34 0
BBX 34 35 0 -4
BITMAP
0000000000
0000000000
0000000000
0000000000
0000000000
0000000000
03ffff0000
00e00f0000
00e0038000
00e0018000
00e0008000
00e0008000
00e0000000
00e0080000
00e0080000
00e0180000
00fff80000
00e0180000
00e0080000
00e0080000
00e0000000
00e0004000
00e0004000
00e000c000
00e001c000
00e0038000
00e00f8000
03ffff8000
0000000000
0000000000
0000000000
0000000000
0000000000
0000000000
0000000000
ENDCHAR
STARTCHAR 2346
ENCODING 9030
SWIDTH 1020 0
DWIDTH 34 0
BBX 34 35 0 -4
BITMAP
0000000000
0018300000
003c780000
003c780000
0018300000
0000000000
03ffff0000
00e00f0000
00e0038000
00e0018000
00e0008000
00e0008000
00e0000000
00e0080000
00e0080000
00e0180000
00fff80000
00e0180000
00e0080000
00e0080000
00e0000000
00e0004000
00e0004000
00e000c000
00e001c000
00e0038000
00e00f8000
03ffff8000
0000000000
0000000000
0000000000
0000000000
0000000000
0000000000
0000000000
ENDCHAR
STARTCHAR 2347
ENCODING 9031
SWIDTH 1020 0
DWIDTH 34 0
BBX 34 35 0 -4
BITMAP
0000000000
0000000000
0000000000
0000000000
0000000000
0000000000
0e1ff0e000
1f0381f000
1f8383f000
1f8383f000
0d83836000
0183830000
0183830000
01c3870000
00c3860000
00739c0000
003ff80000
00739c0000
00739c0000
00e38e0000
00e38e0000
01c3870000
01c3870000
0383838000
0383838000
070381c000
070381c000
1fcfe7f800
0000000000
0000000000
0000000000
0000000000
0000000000
0000000000
0000000000
ENDCHAR
STARTCHAR 2348
ENCODING 9032
SWIDTH 1020 0
DWIDTH 34 0
BBX 34 35 0 -4
BITMAP
0000000000
0000000000
0000000000
0000000000
0000000000
0000000000
001fc00000
0078700000
0070380000
00e01c0000
00c01c0000
00800e0000
00800e0000
00001c0000
00001c0000
0000780000
000fe00000
0000780000
00001c0000
00000e0000
01000e0000
0100070000
0180070000
01800e0000
01c00e0000
01f01c0000
0078380000
001fe00000
0000000000
0000000000
0000000000
0000000000
0000000000
0000000000
0000000000
ENDCHAR
STARTCHAR 2349
ENCODING 9033
SWIDTH 1020 0
DWIDTH 34 0
BBX 34 35 0 -4
BITMAP
0000000000
0000000000
0000000000
0000000000
0000000000
0000000000
03f81fc000
00e0070000
00e0070000
00e00f0000
00e01f0000
00e01f0000
00e0370000
00e0370000
00e0670000
00e0c70000
00e1870000
00e1870000
00e3070000
00e6070000
00ec070000
00ec070000
00f8070000
00f8070000
00f0070000
00e0070000
00e0070000
03f81fc000
0000000000
0000000000
0000000000
0000000000
0000000000
0000000000
0000000000
ENDCHAR
STARTCHAR 234a
ENCODING 9034
SWIDTH 1020 0
DWIDTH 34 0
BBX 34 35 0 -4
BITMAP
0000000000
0018180000
003c3c0000
00381c0000
001c380000
0007e00000
03f00fc000
00e0070000
00e0070000
00e00f0000
00e01f0000
00e01f0000
00e0370000
00e0370000
00e0670000
00e0c70000
00e1870000
00e1870000
00e3070000
00e6070000
00ec070000
00ec070000
00f8070000
00f8070000
00f0070000
00e0070000
00e0070000
03f81fc000
0000000000
0000000000
0000000000
0000000000
0000000000
0000000000
0000000000
ENDCHAR
STARTCHAR 234b
ENCODING 9035
SWIDTH 1020 0
DWIDTH 34 0
BBX 34 35 0 -4
BITMAP
0000000000
0000000000
0000000000
0000000000
0000000000
0000000000
03f80e0000
00e01f0000
00e01f0000
00e03f0000
00e0360000
00e0300000
00e0300000
00e0600000
00e0600000
00e1c00000
00ffc00000
00e0e00000
00e0e00000
00e0700000
00e0700000
00e0380000
00e0380000
00e01c0000
00e01c0000
00e00e0000
00e00e0000
03f83fc000
0000000000
0000000000
0000000000
0000000000
0000000000
0000000000
0000000000
ENDCHAR
STARTCHAR 234c
ENCODING 9036
SWIDTH 1020 0
DWIDTH 34 0
BBX 34 35 0 -4
BITMAP
0000000000
0000000000
0000000000
0000000000
0000000000
0000000000
000fffc000
0002070000
0002070000
0002070000
0002070000
0002070000
0002070000
0002070000
0006070000
0004070000
0004070000
0004070000
0004070000
0004070000
030c070000
0788070000
0788070000
0788070000
0308070000
0318070000
01b0070000
00e01fc000
0000000000
0000000000
0000000000
0000000000
0000000000
0000000000
0000000000
ENDCHAR
STARTCHAR 234d
ENCODING 9037
SWIDTH 1020 0
DWIDTH 34 0
BBX 34 35 0 -4
BITMAP
0000000000
0000000000
0000000000
0000000000
0000000000
0000000000
03e007c000
00f00f0000
00f01f0000
00f0170000
00b8138000
00b8138000
01b8338000
0138238000
011c238000
011c238000
011c61c000
031c41c000
021c41c000
020e41c000
020ec1c000
020e81c000
060e80e000
040f80e000
040700e000
040700e000
040700e000
1f0207f800
0000000000
0000000000
0000000000
0000000000
0000000000
0000000000
0000000000
ENDCHAR
STARTCHAR 234e
ENCODING 9038
SWIDTH 1020 0
DWIDTH 34 0
BBX 34 35 0 -4
BITMAP
0000000000
0000000000
0000000000
0000000000
0000000000
0000000000
03f81fc000
00e0070000
00e0070000
00e0070000
00e0070000
00e0070000
00e0070000
00e0070000
00e0070000
00e0070000
00ffff0000
00e0070000
00e0070000
00e0070000
00e0070000
00e0070000
00e0070000
00e0070000
00e0070000
00e0070000
00e0070000
03f81fc000
0000000000
0000000000
0000000000
0000000000
0000000000
0000000000
0000000000
ENDCHAR
STARTCHAR 234f
ENCODING 9039
SWIDTH 1020 0
DWIDTH 34 0
BBX 34 35 0 -4
BITMAP
0000000000
0000000000
0000000000
0000000000
0000000000
0000000000
000ff00000
00381c0000
00700e0000
00e0070000
01c0038000
01c0038000
038001c000
038001c000
038001c000
070000e000
070000e000
070000e000
070000e000
038001c000
038001c000
038001c000
01c0038000
01c0038000
00e0070000
00700e0000
00381c0000
000ff00000
0000000000
0000000000
0000000000
0000000000
0000000000
0000000000
0000000000
ENDCHAR
STARTCHAR 2350
ENCODING 9040
SWIDTH 1020 0
DWIDTH 34 0
BBX 34 35 0 -4
BITMAP
0000000000
0000000000
0000000000
0000000000
0000000000
0000000000
03ffffc000
00e0070000
00e0070000
00e0070000
00e0070000
00e0070000
00e0070000
00e0070000
00e0070000
00e0070000
00e0070000
00e0070000
00e0070000
00e0070000
00e0070000
00e0070000
00e0070000
00e0070000
00e0070000
00e0070000
00e0070000
03f81fc000
0000000000
0000000000
0000000000
0000000000
0000000000
0000000000
0000000000
ENDCHAR
STARTCHAR 2351
ENCODING 9041
SWIDTH 1020 0
DWIDTH 34 0
BBX 34 35 0 -4
BITMAP
0000000000
0000000000
0000000000
0000000000
0000000000
0000000000
03fff00000
00e03c0000
00e00e0000
00e0070000
00e0070000
00e0038000
00e0038000
00e0038000
00e0038000
00e0070000
00e0070000
00e00e0000
00e03c0000
00fff00000
00e0000000
00e0000000
00e0000000
00e0000000
00e0000000
00e0000000
00e0000000
03f8000000
0000000000
0000000000
0000000000
0000000000
0000000000
0000000000
0000000000
ENDCHAR
STARTCHAR 2352
ENCODING 9042
SWIDTH 1020 0
DWIDTH 34 0
BBX 34 35 0 -4
BITMAP
0000000000
0000000000
0000000000
0000000000
0000000000
0000000000
0007f80000
001c1f0000
0038078000
0070038000
00e0018000
00e0018000
01c0008000
01c0008000
0380000000
0380000000
0380000000
0380000000
0380000000
0380004000
01c0004000
01c000c000
00e000c000
00e001c000
007003c000
0038078000
001c1e0000
0007f00000
0000000000
0000000000
0000000000
0000000000
0000000000
0000000000
0000000000
ENDCHAR
STARTCHAR 2353
ENCODING 9043
SWIDTH 1020 0
DWIDTH 34 0
BBX 34 35 0 -4
BITMAP
0000000000
0000000000
0000000000
0000000000
0000000000
0000000000
03ffff8000
0383838000
070381c000
060380c000
0403804000
0403804000
0003800000
0003800000
0003800000
0003800000
0003800000
0003800000
0003800000
0003800000
0003800000
0003800000
0003800000
0003800000
0003800000
0003800000
0003800000
001ff00000
0000000000
0000000000
0000000000
0000000000
0000000000
0000000000
0000000000
ENDCHAR
STARTCHAR 2354
ENCODING 9044
SWIDTH 1020 0
DWIDTH 34 0
BBX 34 35 0 -4
BITMAP
0000000000
0000000000
0000000000
0000000000
0000000000
0000000000
01ff0ff000
0038008000
0038008000
001c018000
001c010000
000e030000
000e020000
000e060000
0007040000
00070c0000
0003880000
0003980000
0001d00000
0001f00000
0070e00000
00f8e00000
00f8400000
00f8c00000
0070800000
0071000000
0032000000
001c000000
0000000000
0000000000
0000000000
0000000000
0000000000
0000000000
0000000000
ENDCHAR
STARTCHAR 2355
ENCODING 9045
SWIDTH 1020 0
DWIDTH 34 0
BBX 34 35 0 -4
BITMAP
0000000000
0000000000
0000000000
0000000000
0000000000
0000000000
001ff00000
0003800000
0003800000
0003800000
003ff80000
00e38e0000
01c3870000
0383838000
0383838000
070381c000
070381c000
070381c000
070381c000
0383838000
0383838000
01c3870000
00e38e0000
003ff80000
0003800000
0003800000
0003800000
001ff00000
0000000000
0000000000
0000000000
0000000000
0000000000
0000000000
0000000000
ENDCHAR
STARTCHAR 2356
ENCODING 9046
SWIDTH 1020 0
DWIDTH 34 0
BBX 34 35 0 -4
BITMAP
0000000000
0000000000
0000000000
0000000000
0000000000
0000000000
03fc0ff000
0070008000
0070010000
0038020000
001c040000
001e040000
000e080000
0007100000
0007200000
0003c00000
0001c00000
0000e00000
0001700000
0002380000
0004380000
00081c0000
00080e0000
00100e0000
00200f0000
0040038000
0080038000
07f81ff000
0000000000
0000000000
0000000000
0000000000
0000000000
0000000000
0000000000
ENDCHAR
STARTCHAR 2357
ENCODING 9047
SWIDTH 1020 0
DWIDTH 34 0
BBX 34 35 0 -4
BITMAP
0000000000
0000000000
0000000000
0000000000
0000000000
0000000000
03f83f8000
00e00e0000
00e00e0000
00e00e0000
00e00e0000
00e00e0000
00e00e0000
00e00e0000
00e00e0000
00e00e0000
00e00e0000
00e00e0000
00e00e0000
00e00e0000
00e00e0000
00e00e0000
00e00e0000
00e00e0000
00e00e0000
00e00e0000
00e00e0000
03ffff8000
000003c000
000000c000
0000004000
0000004000
0000000000
0000000000
0000000000
ENDCHAR
STARTCHAR 2358
ENCODING 9048
SWIDTH 1020 0
DWIDTH 34 0
BBX 34 35 0 -4
BITMAP
0000000000
0000000000
0000000000
0000000000
0000000000
0000000000
03f83f8000
00e00e0000
00e00e0000
00e00e0000
00e00e0000
00e00e0000
00e00e0000
00e00e0000
00e00e0000
00e00e0000
00e00e0000
00700e0000
00700e0000
00380e0000
000ffe0000
00000e0000
00000e0000
00000e0000
00000e0000
00000e0000
00000e0000
00003f8000
0000000000
0000000000
0000000000
0000000000
0000000000
0000000000
0000000000
ENDCHAR
STARTCHAR 2359
ENCODING 9049
SWIDTH 1020 0
DWIDTH 34 0
BBX 34 35 0 -4
BITMAP
0000000000
0000000000
0000000000
0000000000
0000000000
0000000000
3f8fe3f800
0e0380e000
0e0380e000
0e0380e000
0e0380e000
0e0380e000
0e0380e000
0e0380e000
0e0380e000
0e0380e000
0e0380e000
0e0380e000
0e0380e000
0e0380e000
0e0380e000
0e0380e000
0e0380e000
0e0380e000
0e0380e000
0e0380e000
0e0380e000
3ffffff800
0000000000
0000000000
0000000000
0000000000
0000000000
0000000000
0000000000
ENDCHAR
STARTCHAR 235a
ENCODING 9050
SWIDTH 1020 0
DWIDTH 34 0
BBX 34 35 0 -4
BITMAP
0000000000
0000000000
0000000000
0000000000
0000000000
0000000000
3f8fe3f800
0e0380e000
0e0380e000
0e0380e000
0e0380e000
0e0380e000
0e0380e000
0e0380e000
0e0380e000
0e0380e000
0e0380e000
0e0380e000
0e0380e000
0e0380e000
0e0380e000
0e0380e000
0e0380e000
0e0380e000
0e0380e000
0e0380e000
0e0380e000
3ffffff800
0000001c00
0000000c00
0000000400
0000000400
0000000000
0000000000
0000000000
ENDCHAR
STARTCHAR 235b
ENCODING 9051
SWIDTH 1020 0
DWIDTH 34 0
BBX 34 35 0 -4
BITMAP
0000000000
0000000000
0000000000
0000000000
0000000000
0000000000
0fff800000
0f0e000000
0e0e000000
0c0e000000
080e000000
080e000000
080e000000
000e000000
000e000000
000ffe0000
000e078000
000e01c000
000e00e000
000e00e000
000e007000
000e007000
000e007000
000e00e000
000e00e000
000e01c000
000e078000
003ffe0000
0000000000
0000000000
0000000000
0000000000
0000000000
0000000000
0000000000
ENDCHAR
STARTCHAR 235c
ENCODING 9052
SWIDTH 1020 0
DWIDTH 34 0
BBX 34 35 0 -4
BITMAP
0000000000
0000000000
0000000000
0000000000
0000000000
0000000000
0fe007f000
038001c000
038001c000
038001c000
038001c000
038001c000
038001c000
038001c000
038001c000
03fe01c000
038781c000
0381c1c000
0380e1c000
0380e1c000
038071c000
038071c000
038071c000
0380e1c000
0380e1c000
0381c1c000
038781c000
0ffe07f000
0000000000
0000000000
0000000000
0000000000
0000000000
0000000000
0000000000
ENDCHAR
STARTCHAR 235d
ENCODING 9053
SWIDTH 1020 0
DWIDTH 34 0
BBX 34 35 0 -4
BITMAP
0000000000
0000000000
0000000000
0000000000
0000000000
0000000000
03f8000000
00e0000000
00e0000000
00e0000000
00e0000000
00e0000000
00e0000000
00e0000000
00e0000000
00fff80000
00e01e0000
00e0070000
00e0038000
00e0038000
00e001c000
00e001c000
00e001c000
00e0038000
00e0038000
00e0070000
00e01e0000
03fff80000
0000000000
0000000000
0000000000
0000000000
0000000000
0000000000
0000000000
ENDCHAR
STARTCHAR 235e
ENCODING 9054
SWIDTH 1020 0
DWIDTH 34 0
BBX 34 35 0 -4
BITMAP
0000000000
0000000000
0000000000
0000000000
0000000000
0000000000
003fc00000
01f0f00000
03c01c0000
03800e0000
0300070000
0300070000
0200038000
0208038000
003c03c000
007f03c000
00e7cdc000
00c3fdc000
0080f9c000
040021c000
0600038000
0600038000
0700070000
0780070000
07c00e0000
03e01c0000
0078f00000
001fc00000
0000000000
0000000000
0000000000
0000000000
0000000000
0000000000
0000000000
ENDCHAR
STARTCHAR 235f
ENCODING 9055
SWIDTH 1020 0
DWIDTH 34 0
BBX 34 35 0 -4
BITMAP
0000000000
0000000000
0000000000
0000000000
0000000000
0000000000
3f807c0000
0e01c70000
0e0701c000
0e0e00e000
0e0e00e000
0e1c007000
0e1c007000
0e1c007000
0e38003800
0e38003800
0ff8003800
0e38003800
0e38003800
0e38003800
0e1c007000
0e1c007000
0e1c007000
0e0e00e000
0e0e00e000
0e0701c000
0e01c70000
3f807c0000
0000000000
0000000000
0000000000
0000000000
0000000000
0000000000
0000000000
ENDCHAR
STARTCHAR 2360
ENCODING 9056
SWIDTH 1020 0
DWIDTH 34 0
BBX 34 35 0 -4
BITMAP
0000000000
0000000000
0000000000
0000000000
0000000000
0000000000
0007ffe000
001e038000
0038038000
0070038000
0070038000
00e0038000
00e0038000
00e0038000
0070038000
0070038000
0038038000
001e038000
000fff8000
000e038000
000e038000
000e038000
001c038000
001c038000
0038038000
0038038000
0070038000
01c01fe000
0700000000
0000000000
0000000000
0000000000
0000000000
0000000000
0000000000
ENDCHAR
STARTCHAR 2361
ENCODING 9057
SWIDTH 1020 0
DWIDTH 34 0
BBX 34 35 0 -4
BITMAP
0000000000
0000000000
0000000000
0000000000
0000000000
0000000000
0000000000
0000000000
0000000000
0000000000
0000000000
0007e00000
001c300000
003c180000
003c180000
0018180000
0000f80000
0007980000
000c180000
0018180000
0030180000
0030184000
0060184000
006018c000
006018c000
0070798000
0031df0000
001f0e0000
0000000000
0000000000
0000000000
0000000000
0000000000
0000000000
0000000000
ENDCHAR
STARTCHAR 2362
ENCODING 9058
SWIDTH 1020 0
DWIDTH 34 0
BBX 34 35 0 -4
BITMAP
0000000000
0000000000
0000000000
0000000000
0000000000
0000100000
0003f00000
000fe00000
001c000000
0030000000
0060000000
0067e00000
006c300000
0078180000
00700c0000
00600c0000
0060060000
0060060000
0060060000
0060060000
0060060000
0060060000
0060060000
00300c0000
00300c0000
0018180000
000c300000
0007e00000
0000000000
0000000000
0000000000
0000000000
0000000000
0000000000
0000000000
ENDCHAR
STARTCHAR 2363
ENCODING 9059
SWIDTH 1020 0
DWIDTH 34 0
BBX 34 35 0 -4
BITMAP
0000000000
0000000000
0000000000
0000000000
0000000000
0000000000
0000000000
0000000000
0000000000
0000000000
0000000000
007fc00000
0018700000
0018180000
00180c0000
00180c0000
00180c0000
0018180000
0018300000
001fe00000
0018380000
00180c0000
0018060000
0018060000
0018060000
00180c0000
0018380000
007fe00000
0000000000
0000000000
0000000000
0000000000
0000000000
0000000000
0000000000
ENDCHAR
STARTCHAR 2364
ENCODING 9060
SWIDTH 1020 0
DWIDTH 34 0
BBX 34 35 0 -4
BITMAP
0000000000
0000000000
0000000000
0000000000
0000000000
0000000000
0000000000
0000000000
0000000000
0000000000
0000000000
007ffc0000
00181c0000
00180e0000
0018060000
0018020000
0018000000
0018000000
0018000000
0018000000
0018000000
0018000000
0018000000
0018000000
0018000000
0018000000
0018000000
007e000000
0000000000
0000000000
0000000000
0000000000
0000000000
0000000000
0000000000
ENDCHAR
STARTCHAR 2365
ENCODING 9061
SWIDTH 1020 0
DWIDTH 34 0
BBX 34 35 0 -4
BITMAP
0000000000
0000000000
0000000000
0000000000
0000000000
0000000000
0000000000
0000000000
0000000000
0000000000
0000000000
000ffe0000
0004180000
0004180000
0004180000
0004180000
0004180000
000c180000
0008180000
0008180000
0008180000
0008180000
0008180000
0008180000
0018180000
0010180000
0030180000
007ffe0000
00c0070000
0080010000
0080010000
0000000000
0000000000
0000000000
0000000000
ENDCHAR
STARTCHAR 2366
ENCODING 9062
SWIDTH 1020 0
DWIDTH 34 0
BBX 34 35 0 -4
BITMAP
0000000000
0000000000
0000000000
0000000000
0000000000
0000000000
0000000000
0000000000
0000000000
0000000000
0000000000
0007e00000
001c380000
00300c0000
0060060000
0060060000
00c0030000
00c0030000
00ffff0000
00c0000000
00c0000000
00c0010000
00c0010000
0060030000
0060020000
0030060000
001c1c0000
0007f00000
0000000000
0000000000
0000000000
0000000000
0000000000
0000000000
0000000000
ENDCHAR
STARTCHAR 2367
ENCODING 9063
SWIDTH 1020 0
DWIDTH 34 0
BBX 34 35 0 -4
BITMAP
0000000000
0000000000
0000000000
0000000000
0000000000
0000000000
0004200000
000e700000
000e700000
0004200000
0000000000
0007e00000
001c380000
00300c0000
0060060000
0060060000
00c0030000
00c0030000
00ffff0000
00c0000000
00c0000000
00c0010000
00c0010000
0060030000
0060020000
0030060000
001c1c0000
0007f00000
0000000000
0000000000
0000000000
0000000000
0000000000
0000000000
0000000000
ENDCHAR
STARTCHAR 2368
ENCODING 9064
SWIDTH 1020 0
DWIDTH 34 0
BBX 34 35 0 -4
BITMAP
0000000000
0000000000
0000000000
0000000000
0000000000
0000000000
0000000000
0000000000
0000000000
0000000000
0000000000
0307e0c000
078181e000
07c183e000
02c1834000
00c1830000
0041820000
0061860000
0021840000
003ffc0000
0061860000
00c1830000
00c1830000
0181818000
0181818000
030180c000
030180c000
0fc7e3f000
0000000000
0000000000
0000000000
0000000000
0000000000
0000000000
0000000000
ENDCHAR
STARTCHAR 2369
ENCODING 9065
SWIDTH 1020 0
DWIDTH 34 0
BBX 34 35 0 -4
BITMAP
0000000000
0000000000
0000000000
0000000000
0000000000
0000000000
0000000000
0000000000
0000000000
0000000000
0000000000
000fc00000
0038700000
0070180000
00400c0000
00400c0000
00000c0000
0000180000
0000300000
0007f00000
0000380000
00800c0000
0080060000
00c0060000
00c0060000
00e00c0000
0070380000
001fe00000
0000000000
0000000000
0000000000
0000000000
0000000000
0000000000
0000000000
ENDCHAR
STARTCHAR 236a
ENCODING 9066
SWIDTH 1020 0
DWIDTH 34 0
BBX 34 35 0 -4
BITMAP
0000000000
0000000000
0000000000
0000000000
0000000000
0000000000
0000000000
0000000000
0000000000
0000000000
0000000000
00fc3f0000
00300c0000
00301c0000
00303c0000
00302c0000
00306c0000
0030cc0000
00308c0000
00318c0000
00310c0000
00330c0000
00360c0000
00340c0000
003c0c0000
00380c0000
00300c0000
00fc3f0000
0000000000
0000000000
0000000000
0000000000
0000000000
0000000000
0000000000
ENDCHAR
STARTCHAR 236b
ENCODING 9067
SWIDTH 1020 0
DWIDTH 34 0
BBX 34 35 0 -4
BITMAP
0000000000
0000000000
0000000000
0000000000
0000000000
0008100000
001c380000
0018180000
000e700000
0003c00000
0000000000
00fc3f0000
00300c0000
00301c0000
00303c0000
00302c0000
00306c0000
0030cc0000
00308c0000
00318c0000
00310c0000
00330c0000
00360c0000
00340c0000
003c0c0000
00380c0000
00300c0000
00fc3f0000
0000000000
0000000000
0000000000
0000000000
0000000000
0000000000
0000000000
ENDCHAR
STARTCHAR 236c
ENCODING 9068
SWIDTH 1020 0
DWIDTH 34 0
BBX 34 35 0 -4
BITMAP
0000000000
0000000000
0000000000
0000000000
0000000000
0000000000
0000000000
0000000000
0000000000
0000000000
0000000000
00fc180000
00303c0000
00307c0000
0030680000
0030600000
0030c00000
0030c00000
0031800000
003f000000
0031800000
0030c00000
0030600000
0030300000
0030300000
0030180000
0030180000
00fc7e0000
0000000000
0000000000
0000000000
0000000000
0000000000
0000000000
0000000000
ENDCHAR
STARTCHAR 236d
ENCODING 9069
SWIDTH 1020 0
DWIDTH 34 0
BBX 34 35 0 -4
BITMAP
0000000000
0000000000
0000000000
0000000000
0000000000
0000000000
0000000000
0000000000
0000000000
0000000000
0000000000
000ffe0000
0004180000
0004180000
0004180000
0004180000
0004180000
0004180000
0004180000
0004180000
000c180000
0008180000
0088180000
01c8180000
01c8180000
0188180000
00d8180000
00707e0000
0000000000
0000000000
0000000000
0000000000
0000000000
0000000000
0000000000
ENDCHAR
STARTCHAR 236e
ENCODING 9070
SWIDTH 1020 0
DWIDTH 34 0
BBX 34 35 0 -4
BITMAP
0000000000
0000000000
0000000000
0000000000
0000000000
0000000000
0000000000
0000000000
0000000000
0000000000
0000000000
01f007c000
00700f0000
00700b0000
00581b0000
0058130000
0058130000
004c330000
004c230000
004c230000
0046230000
0046630000
0046430000
0046430000
0043c30000
0043830000
0041830000
01f18fc000
0000000000
0000000000
0000000000
0000000000
0000000000
0000000000
0000000000
ENDCHAR
STARTCHAR 236f
ENCODING 9071
SWIDTH 1020 0
DWIDTH 34 0
BBX 34 35 0 -4
BITMAP
0000000000
0000000000
0000000000
0000000000
0000000000
0000000000
0000000000
0000000000
0000000000
0000000000
0000000000
00fc7e0000
0030180000
0030180000
0030180000
0030180000
0030180000
0030180000
0030180000
003ff80000
0030180000
0030180000
0030180000
0030180000
0030180000
0030180000
0030180000
00fc7e0000
0000000000
0000000000
0000000000
0000000000
0000000000
0000000000
0000000000
ENDCHAR
STARTCHAR 2370
ENCODING 9072
SWIDTH 1020 0
DWIDTH 34 0
BBX 34 35 0 -4
BITMAP
0000000000
0000000000
0000000000
0000000000
0000000000
0000000000
0000000000
0000000000
0000000000
0000000000
0000000000
0007e00000
000c300000
0018180000
00300c0000
00300c0000
0060060000
0060060000
0060060000
0060060000
0060060000
0060060000
0060060000
00300c0000
00300c0000
0018180000
000c300000
0007e00000
0000000000
0000000000
0000000000
0000000000
0000000000
0000000000
0000000000
ENDCHAR
STARTCHAR 2371
ENCODING 9073
SWIDTH 1020 0
DWIDTH 34 0
BBX 34 35 0 -4
BITMAP
0000000000
0000000000
0000000000
0000000000
0000000000
0000000000
0000000000
0000000000
0000000000
0000000000
0000000000
00fffe0000
0030180000
0030180000
0030180000
0030180000
0030180000
0030180000
0030180000
0030180000
0030180000
0030180000
0030180000
0030180000
0030180000
0030180000
0030180000
00fc7e0000
0000000000
0000000000
0000000000
0000000000
0000000000
0000000000
0000000000
ENDCHAR
STARTCHAR 2372
ENCODING 9074
SWIDTH 1020 0
DWIDTH 34 0
BBX 34 35 0 -4
BITMAP
0000000000
0000000000
0000000000
0000000000
0000000000
0000000000
0000000000
0000000000
0000000000
0000000000
0000000000
0013e00000
0036300000
00fc180000
00380c0000
00300c0000
0030060000
0030060000
0030060000
0030060000
0030060000
0030060000
00300c0000
00300c0000
00380c0000
003c180000
0036300000
0033e00000
0030000000
0030000000
00fc000000
0000000000
0000000000
0000000000
0000000000
ENDCHAR
STARTCHAR 2373
ENCODING 9075
SWIDTH 1020 0
DWIDTH 34 0
BBX 34 35 0 -4
BITMAP
0000000000
0000000000
0000000000
0000000000
0000000000
0000000000
0000000000
0000000000
0000000000
0000000000
0000000000
0003f80000
000e1e0000
00180f0000
00300f0000
0030060000
0060000000
0060000000
0060000000
0060000000
0060000000
0060000000
0060010000
0030010000
0030030000
0018060000
000e1c0000
0003f00000
0000000000
0000000000
0000000000
0000000000
0000000000
0000000000
0000000000
ENDCHAR
STARTCHAR 2374
ENCODING 9076
SWIDTH 1020 0
DWIDTH 34 0
BBX 34 35 0 -4
BITMAP
0000000000
0000000000
0000000000
0000000000
0000000000
0000000000
0000000000
0000000000
0000000000
0000000000
0000000000
007ffe0000
00718e0000
00e1870000
0081810000
0081810000
0001800000
0001800000
0001800000
0001800000
0001800000
0001800000
0001800000
0001800000
0001800000
0001800000
000ff00000
0000000000
0000000000
0000000000
0000000000
0000000000
0000000000
0000000000
0000000000
ENDCHAR
STARTCHAR 2375
ENCODING 9077
SWIDTH 1020 0
DWIDTH 34 0
BBX 34 35 0 -4
BITMAP
0000000000
0000000000
0000000000
0000000000
0000000000
0000000000
0000000000
0000000000
0000000000
0000000000
0000000000
00fc1f0000
0030040000
0030040000
00180c0000
0018080000
0018080000
000c180000
000c100000
000c300000
0006200000
0006200000
0006600000
0003400000
0003c00000
0001800000
0001800000
0031000000
0079000000
0033000000
001e000000
0000000000
0000000000
0000000000
0000000000
ENDCHAR
STARTCHAR 2376
ENCODING 9078
SWIDTH 1020 0
DWIDTH 34 0
BBX 34 35 0 -4
BITMAP
0000000000
0000000000
0000000000
0000000000
0000000000
0000800000
0003800000
000f800000
0001800000
0001800000
0001800000
00399c0000
006db60000
00c3c30000
0181818000
0181818000
030180c000
030180c000
030180c000
030180c000
030180c000
030180c000
030180c000
0181818000
0181818000
00c3c30000
006db60000
00399c0000
0001800000
0001800000
000ff00000
0000000000
0000000000
0000000000
0000000000
ENDCHAR
STARTCHAR 2377
ENCODING 9079
SWIDTH 1020 0
DWIDTH 34 0
BBX 34 35 0 -4
BITMAP
0000000000
0000000000
0000000000
0000000000
0000000000
0000000000
0000000000
0000000000
0000000000
0000000000
0000000000
01fc1f0000
00700c0000
00380c0000
001c180000
001c300000
000e600000
0007c00000
0003800000
0003800000
0003c00000
0006e00000
000c700000
0018380000
00301c0000
00600e0000
00c0070000
03f81f8000
0000000000
0000000000
0000000000
0000000000
0000000000
0000000000
0000000000
ENDCHAR
STARTCHAR 2378
ENCODING 9080
SWIDTH 1020 0
DWIDTH 34 0
BBX 34 35 0 -4
BITMAP
0000000000
0000000000
0000000000
0000000000
0000000000
0000000000
0000000000
0000000000
0000000000
0000000000
0000000000
00fc7e0000
0030180000
0030180000
0030180000
0030180000
0030180000
0030180000
0030180000
0030180000
0030180000
0030180000
0030180000
0030180000
0030180000
0030180000
0030180000
00fffe0000
0000070000
0000010000
0000010000
0000000000
0000000000
0000000000
0000000000
ENDCHAR
STARTCHAR 2379
ENCODING 9081
SWIDTH 1020 0
DWIDTH 34 0
BBX 34 35 0 -4
BITMAP
0000000000
0000000000
0000000000
0000000000
0000000000
0000000000
0000000000
0000000000
0000000000
0000000000
0000000000
00fc7e0000
0030180000
0030180000
0030180000
0030180000
0030180000
0018180000
0018180000
000e180000
0003f80000
0000180000
0000180000
0000180000
0000180000
0000180000
0000180000
00007e0000
0000000000
0000000000
0000000000
0000000000
0000000000
0000000000
0000000000
ENDCHAR
STARTCHAR 237a
ENCODING 9082
SWIDTH 1020 0
DWIDTH 34 0
BBX 34 35 0 -4
BITMAP
0000000000
0000000000
0000000000
0000000000
0000000000
0000000000
0000000000
0000000000
0000000000
0000000000
0000000000
07e7e7e000
0181818000
0181818000
0181818000
0181818000
0181818000
0181818000
0181818000
0181818000
0181818000
0181818000
0181818000
0181818000
0181818000
0181818000
0181818000
07ffffe000
0000000000
0000000000
0000000000
0000000000
0000000000
0000000000
0000000000
ENDCHAR
STARTCHAR 237b
ENCODING 9083
SWIDTH 1020 0
DWIDTH 34 0
BBX 34 35 0 -4
BITMAP
0000000000
0000000000
0000000000
0000000000
0000000000
0000000000
0000000000
0000000000
0000000000
0000000000
0000000000
07e7e7e000
0181818000
0181818000
0181818000
0181818000
0181818000
0181818000
0181818000
0181818000
0181818000
0181818000
0181818000
0181818000
0181818000
0181818000
0181818000
07ffffe000
0000007000
0000001000
0000001000
0000000000
0000000000
0000000000
0000000000
ENDCHAR
STARTCHAR 237c
ENCODING 9084
SWIDTH 1020 0
DWIDTH 34 0
BBX 34 35 0 -4
BITMAP
0000000000
0000000000
0000000000
0000000000
0000000000
0000000000
0000000000
0000000000
0000000000
0000000000
0000000000
01ff800000
01cc000000
030c000000
020c000000
020c000000
000c000000
000ff80000
000c0e0000
000c030000
000c018000
000c018000
000c018000
000c018000
000c018000
000c030000
000c0e0000
003ff80000
0000000000
0000000000
0000000000
0000000000
0000000000
0000000000
0000000000
ENDCHAR
STARTCHAR 237d
ENCODING 9085
SWIDTH 1020 0
DWIDTH 34 0
BBX 34 35 0 -4
BITMAP
0000000000
0000000000
0000000000
0000000000
0000000000
0000000000
0000000000
0000000000
0000000000
0000000000
0000000000
07e00fc000
0180030000
0180030000
0180030000
0180030000
0180030000
01ff030000
0181c30000
0180630000
0180330000
0180330000
0180330000
0180330000
0180330000
0180630000
0181c30000
07ff0fc000
0000000000
0000000000
0000000000
0000000000
0000000000
0000000000
0000000000
ENDCHAR
STARTCHAR 237e
ENCODING 9086
SWIDTH 1020 0
DWIDTH 34 0
BBX 34 35 0 -4
BITMAP
0000000000
0000000000
0000000000
0000000000
0000000000
0000000000
0000000000
0000000000
0000000000
0000000000
0000000000
00fc000000
0030000000
0030000000
0030000000
0030000000
0030000000
003fe00000
0030380000
00300c0000
0030060000
0030060000
0030060000
0030060000
0030060000
00300c0000
0030380000
00ffe00000
0000000000
0000000000
0000000000
0000000000
0000000000
0000000000
0000000000
ENDCHAR
STARTCHAR 2421
ENCODING 9249
SWIDTH 1020 0
DWIDTH 34 0
BBX 34 35 0 -4
BITMAP
0000000000
0000000000
0000000000
0000000000
0000000000
0000000000
0000000000
0000000000
0000000000
0000000000
0000000000
000fc00000
0038700000
0070180000
00600c0000
00400c0000
0000060000
000e1e0000
001ffe0000
0030e60000
0000060000
0000060000
0080060000
00800c0000
00c00c0000
0060180000
0030700000
001fc00000
0000000000
0000000000
0000000000
0000000000
0000000000
0000000000
0000000000
ENDCHAR
STARTCHAR 2422
ENCODING 9250
SWIDTH 1020 0
DWIDTH 34 0
BBX 34 35 0 -4
BITMAP
0000000000
0000000000
0000000000
0000000000
0000000000
0000000000
0000000000
0000000000
0000000000
0000000000
0000000000
0fe0f80000
03038e0000
0306030000
030c018000
030c01c000
031800c000
031800c000
031800c000
03f800c000
031800c000
031800c000
031800c000
030c018000
030c018000
0306030000
03038e0000
0fe0f80000
0000000000
0000000000
0000000000
0000000000
0000000000
0000000000
0000000000
ENDCHAR
STARTCHAR 2423
ENCODING 9251
SWIDTH 1020 0
DWIDTH 34 0
BBX 34 35 0 -4
BITMAP
0000000000
0000000000
0000000000
0000000000
0000000000
0000000000
0000000000
0000000000
0000000000
0000000000
0000000000
0003ff8000
000e060000
0018060000
0030060000
0030060000
0030060000
0030060000
0018060000
000e060000
0003fe0000
0007060000
0006060000
000c060000
0018060000
0030060000
0060060000
01c01f8000
0000000000
0000000000
0000000000
0000000000
0000000000
0000000000
0000000000
ENDCHAR
STARTCHAR 2424
ENCODING 9252
SWIDTH 1020 0
DWIDTH 34 0
BBX 34 35 0 -4
BITMAP
0000000000
0000000000
0000000000
0000000000
0000000000
0000000000
0000000000
0000000000
0000000000
0000000000
0000000000
0000000000
0000000000
0000000000
0000000000
ffffffff00
ffffffff00
ffffffff00
0000000000
0000000000
0000000000
0000000000
0000000000
0000000000
0000000000
0000000000
0000000000
0000000000
0000000000
0000000000
0000000000
0000000000
0000000000
0000000000
0000000000
ENDCHAR
STARTCHAR 2425
ENCODING 9253
SWIDTH 1020 0
DWIDTH 34 0
BBX 34 35 0 -4
BITMAP
0000000000
0003800000
0003800000
0003800000
0003800000
0003800000
0003800000
0003800000
0003800000
0003800000
0003800000
0003800000
0003800000
0003800000
0003800000
0003800000
0003800000
0003800000
0003800000
0003800000
0003800000
0003800000
0003800000
0003800000
0003800000
0003800000
0003800000
0003800000
0003800000
0003800000
0003800000
0003800000
0003800000
0000000000
0000000000
ENDCHAR
STARTCHAR 2426
ENCODING 9254
SWIDTH 1020 0
DWIDTH 34 0
BBX 34 35 0 -4
BITMAP
0000000000
0000000000
0000000000
0000000000
0000000000
0000000000
0000000000
0000000000
0000000000
0000000000
0000000000
0000000000
0000000000
0000000000
0000000000
0003ffff00
0003ffff00
0003ffff00
0003800000
0003800000
0003800000
0003800000
0003800000
0003800000
0003800000
0003800000
0003800000
0003800000
0003800000
0003800000
0003800000
0003800000
0003800000
0000000000
0000000000
ENDCHAR
STARTCHAR 2427
ENCODING 9255
SWIDTH 1020 0
DWIDTH 34 0
BBX 34 35 0 -4
BITMAP
0000000000
0000000000
0000000000
0000000000
0000000000
0000000000
0000000000
0000000000
0000000000
0000000000
0000000000
0000000000
0000000000
0000000000
0000000000
ffff800000
ffff800000
ffff800000
0003800000
0003800000
0003800000
0003800000
0003800000
0003800000
0003800000
0003800000
0003800000
0003800000
0003800000
0003800000
0003800000
0003800000
0003800000
0000000000
0000000000
ENDCHAR
STARTCHAR 2428
ENCODING 9256
SWIDTH 1020 0
DWIDTH 34 0
BBX 34 35 0 -4
BITMAP
0000000000
0003800000
0003800000
0003800000
0003800000
0003800000
0003800000
0003800000
0003800000
0003800000
0003800000
0003800000
0003800000
0003800000
0003800000
ffff800000
ffff800000
ffff800000
0000000000
0000000000
0000000000
0000000000
0000000000
0000000000
0000000000
0000000000
0000000000
0000000000
0000000000
0000000000
0000000000
0000000000
0000000000
0000000000
0000000000
ENDCHAR
STARTCHAR 2429
ENCODING 9257
SWIDTH 1020 0
DWIDTH 34 0
BBX 34 35 0 -4
BITMAP
0000000000
0003800000
0003800000
0003800000
0003800000
0003800000
0003800000
0003800000
0003800000
0003800000
0003800000
0003800000
0003800000
0003800000
0003800000
0003ffff00
0003ffff00
0003ffff00
0000000000
0000000000
0000000000
0000000000
0000000000
0000000000
0000000000
0000000000
0000000000
0000000000
0000000000
0000000000
0000000000
0000000000
0000000000
0000000000
0000000000
ENDCHAR
STARTCHAR 242a
ENCODING 9258
SWIDTH 1020 0
DWIDTH 34 0
BBX 34 35 0 -4
BITMAP
0000000000
0003800000
0003800000
0003800000
0003800000
0003800000
0003800000
0003800000
0003800000
0003800000
0003800000
0003800000
0003800000
0003800000
0003800000
0003ffff00
0003ffff00
0003ffff00
0003800000
0003800000
0003800000
0003800000
0003800000
0003800000
0003800000
0003800000
0003800000
0003800000
0003800000
0003800000
0003800000
0003800000
0003800000
0000000000
0000000000
ENDCHAR
STARTCHAR 242b
ENCODING 9259
SWIDTH 1020 0
DWIDTH 34 0
BBX 34 35 0 -4
BITMAP
0000000000
0000000000
0000000000
0000000000
0000000000
0000000000
0000000000
0000000000
0000000000
0000000000
0000000000
0000000000
0000000000
0000000000
0000000000
ffffffff00
ffffffff00
ffffffff00
0003800000
0003800000
0003800000
0003800000
0003800000
0003800000
0003800000
0003800000
0003800000
0003800000
0003800000
0003800000
0003800000
0003800000
0003800000
0000000000
0000000000
ENDCHAR
STARTCHAR 242c
ENCODING 9260
SWIDTH 1020 0
DWIDTH 34 0
BBX 34 35 0 -4
BITMAP
0000000000
0003800000
0003800000
0003800000
0003800000
0003800000
0003800000
0003800000
0003800000
0003800000
0003800000
0003800000
0003800000
0003800000
0003800000
ffff800000
ffff800000
ffff800000
0003800000
0003800000
0003800000
0003800000
0003800000
0003800000
0003800000
0003800000
0003800000
0003800000
0003800000
0003800000
0003800000
0003800000
0003800000
0000000000
0000000000
ENDCHAR
STARTCHAR 242d
ENCODING 9261
SWIDTH 1020 0
DWIDTH 34 0
BBX 34 35 0 -4
BITMAP
0000000000
0003800000
0003800000
0003800000
0003800000
0003800000
0003800000
0003800000
0003800000
0003800000
0003800000
0003800000
0003800000
0003800000
0003800000
ffffffff00
ffffffff00
ffffffff00
0000000000
0000000000
0000000000
0000000000
0000000000
0000000000
0000000000
0000000000
0000000000
0000000000
0000000000
0000000000
0000000000
0000000000
0000000000
0000000000
0000000000
ENDCHAR
STARTCHAR 242e
ENCODING 9262
SWIDTH 1020 0
DWIDTH 34 0
BBX 34 35 0 -4
BITMAP
0000000000
0003800000
0003800000
0003800000
0003800000
0003800000
0003800000
0003800000
0003800000
0003800000
0003800000
0003800000
0003800000
0003800000
0003800000
ffffffff00
ffffffff00
ffffffff00
0003800000
0003800000
0003800000
0003800000
0003800000
0003800000
0003800000
0003800000
0003800000
0003800000
0003800000
0003800000
0003800000
0003800000
0003800000
0000000000
0000000000
ENDCHAR
STARTCHAR 242f
ENCODING 9263
SWIDTH 1020 0
DWIDTH 34 0
BBX 34 35 0 -4
BITMAP
0000000000
0003800000
0003800000
0003800000
0003800000
0003800000
0003800000
0003800000
0003800000
0003800000
0003800000
0003800000
0003800000
0003800000
0003800000
0003800000
0003ffff00
0003800000
0003800000
0003800000
0003800000
0003800000
0003800000
0003800000
0003800000
0003800000
0003800000
0003800000
0003800000
0003800000
0003800000
0003800000
0003800000
0000000000
0000000000
ENDCHAR
STARTCHAR 2430
ENCODING 9264
SWIDTH 1020 0
DWIDTH 34 0
BBX 34 35 0 -4
BITMAP
0000000000
0000000000
0000000000
0000000000
0000000000
0000000000
0000000000
0000000000
0000000000
0000000000
0000000000
0000000000
0000000000
0000000000
0000000000
ffffffff00
ffffffff00
ffffffff00
0001000000
0001000000
0001000000
0001000000
0001000000
0001000000
0001000000
0001000000
0001000000
0001000000
0001000000
0001000000
0001000000
0001000000
0001000000
0000000000
0000000000
ENDCHAR
STARTCHAR 2431
ENCODING 9265
SWIDTH 1020 0
DWIDTH 34 0
BBX 34 35 0 -4
BITMAP
0000000000
0003800000
0003800000
0003800000
0003800000
0003800000
0003800000
0003800000
0003800000
0003800000
0003800000
0003800000
0003800000
0003800000
0003800000
0003800000
ffff800000
0003800000
0003800000
0003800000
0003800000
0003800000
0003800000
0003800000
0003800000
0003800000
0003800000
0003800000
0003800000
0003800000
0003800000
0003800000
0003800000
0000000000
0000000000
ENDCHAR
STARTCHAR 2432
ENCODING 9266
SWIDTH 1020 0
DWIDTH 34 0
BBX 34 35 0 -4
BITMAP
0000000000
0001000000
0001000000
0001000000
0001000000
0001000000
0001000000
0001000000
0001000000
0001000000
0001000000
0001000000
0001000000
0001000000
0001000000
ffffffff00
ffffffff00
ffffffff00
0000000000
0000000000
0000000000
0000000000
0000000000
0000000000
0000000000
0000000000
0000000000
0000000000
0000000000
0000000000
0000000000
0000000000
0000000000
0000000000
0000000000
ENDCHAR
STARTCHAR 2433
ENCODING 9267
SWIDTH 1020 0
DWIDTH 34 0
BBX 34 35 0 -4
BITMAP
0000000000
0001000000
0001000000
0001000000
0001000000
0001000000
0001000000
0001000000
0001000000
0001000000
0001000000
0001000000
0001000000
0001000000
0001000000
ffffffff00
ffffffff00
ffffffff00
0001000000
0001000000
0001000000
0001000000
0001000000
0001000000
0001000000
0001000000
0001000000
0001000000
0001000000
0001000000
0001000000
0001000000
0001000000
0000000000
0000000000
ENDCHAR
STARTCHAR 2434
ENCODING 9268
SWIDTH 1020 0
DWIDTH 34 0
BBX 34 35 0 -4
BITMAP
0000000000
0001000000
0001000000
0001000000
0001000000
0001000000
0001000000
0001000000
0001000000
0001000000
0001000000
0001000000
0001000000
0001000000
0001000000
0001ffff00
0001ffff00
0001ffff00
0001000000
0001000000
0001000000
0001000000
0001000000
0001000000
0001000000
0001000000
0001000000
0001000000
0001000000
0001000000
0001000000
0001000000
0001000000
0000000000
0000000000
ENDCHAR
STARTCHAR 2435
ENCODING 9269
SWIDTH 1020 0
DWIDTH 34 0
BBX 34 35 0 -4
BITMAP
0000000000
0000000000
0000000000
0000000000
0000000000
0000000000
0000000000
0000000000
0000000000
0000000000
0000000000
0000000000
0000000000
0000000000
0000000000
0000000000
ffffffff00
0003800000
0003800000
0003800000
0003800000
0003800000
0003800000
0003800000
0003800000
0003800000
0003800000
0003800000
0003800000
0003800000
0003800000
0003800000
0003800000
0000000000
0000000000
ENDCHAR
STARTCHAR 2436
ENCODING 9270
SWIDTH 1020 0
DWIDTH 34 0
BBX 34 35 0 -4
BITMAP
0000000000
0001000000
0001000000
0001000000
0001000000
0001000000
0001000000
0001000000
0001000000
0001000000
0001000000
0001000000
0001000000
0001000000
0001000000
ffff000000
ffff000000
ffff000000
0001000000
0001000000
0001000000
0001000000
0001000000
0001000000
0001000000
0001000000
0001000000
0001000000
0001000000
0001000000
0001000000
0001000000
0001000000
0000000000
0000000000
ENDCHAR
STARTCHAR 2437
ENCODING 9271
SWIDTH 1020 0
DWIDTH 34 0
BBX 34 35 0 -4
BITMAP
0000000000
0003800000
0003800000
0003800000
0003800000
0003800000
0003800000
0003800000
0003800000
0003800000
0003800000
0003800000
0003800000
0003800000
0003800000
0003800000
ffffffff00
0000000000
0000000000
0000000000
0000000000
0000000000
0000000000
0000000000
0000000000
0000000000
0000000000
0000000000
0000000000
0000000000
0000000000
0000000000
0000000000
0000000000
0000000000
ENDCHAR
STARTCHAR 2438
ENCODING 9272
SWIDTH 1020 0
DWIDTH 34 0
BBX 34 35 0 -4
BITMAP
0000000000
0003800000
0003800000
0003800000
0003800000
0003800000
0003800000
0003800000
0003800000
0003800000
0003800000
0003800000
0003800000
0003800000
0003800000
0003800000
ffffffff00
0003800000
0003800000
0003800000
0003800000
0003800000
0003800000
0003800000
0003800000
0003800000
0003800000
0003800000
0003800000
0003800000
0003800000
0003800000
0003800000
0000000000
0000000000
ENDCHAR
STARTCHAR 2439
ENCODING 9273
SWIDTH 1020 0
DWIDTH 34 0
BBX 34 35 0 -4
BITMAP
0000000000
c000000000
c000000000
c000000000
c000000000
c000000000
c000000000
c000000000
c000000000
c000000000
c000000000
c000000000
c000000000
c000000000
c000000000
c000000000
c000000000
c000000000
c000000000
c000000000
c000000000
c000000000
c000000000
c000000000
c000000000
c000000000
c000000000
c000000000
c000000000
c000000000
c000000000
c000000000
c000000000
0000000000
0000000000
ENDCHAR
STARTCHAR 243a
ENCODING 9274
SWIDTH 1020 0
DWIDTH 34 0
BBX 34 35 0 -4
BITMAP
0000000000
0000000000
0000000000
0000000000
0000000000
0000000000
0000000000
0000000000
0000000000
0000000000
0000000000
0000000000
0000000000
0000000000
0000000000
0000000000
01feff0000
01feff0000
0000000000
0000000000
0000000000
0000000000
0000000000
0000000000
0000000000
0000000000
0000000000
0000000000
0000000000
0000000000
0000000000
0000000000
0000000000
0000000000
0000000000
ENDCHAR
STARTCHAR 243b
ENCODING 9275
SWIDTH 1020 0
DWIDTH 34 0
BBX 34 35 0 -4
BITMAP
0000000000
c000000000
6000000000
3000000000
1800000000
0c00000000
0600000000
0c00000000
1800000000
3000000000
6000000000
c000000000
c000000000
6000000000
3000000000
1800000000
0c00000000
0600000000
0c00000000
1800000000
3000000000
6000000000
c000000000
c000000000
6000000000
3000000000
1800000000
0c00000000
0600000000
0c00000000
1800000000
3000000000
6000000000
0000000000
0000000000
ENDCHAR
STARTCHAR 243c
ENCODING 9276
SWIDTH 1020 0
DWIDTH 34 0
BBX 34 35 0 -4
BITMAP
0000000000
0000000000
0000000000
0000000000
0000000000
0000000000
0000000000
0000000000
0000000000
0000000000
0000000000
0000000000
0000000000
0000000000
0000000000
0000000000
0000000000
0000000000
0000000000
0000000000
0000000000
0000000000
0000000000
0000000000
0000000000
0000000000
8030060000
c0780f0100
60cc198300
318630c600
1b03606c00
0e01c03800
0400801000
0000000000
0000000000
ENDCHAR
STARTCHAR 243d
ENCODING 9277
SWIDTH 1020 0
DWIDTH 34 0
BBX 34 35 0 -4
BITMAP
0000000000
0000000000
0001000000
0003800000
0006c00000
000c600000
0018300000
0030180000
00600c0000
00c0060000
0180030000
0300018000
060000c000
0c00006000
1800003000
3000001800
7ff01ffc00
fff01ffe00
0070180000
0070180000
0070180000
0070180000
0070180000
0070180000
0070180000
0070180000
0070180000
0070180000
0070180000
007ff80000
007ff80000
007ff80000
0000000000
0000000000
0000000000
ENDCHAR
STARTCHAR 243e
ENCODING 9278
SWIDTH 1020 0
DWIDTH 34 0
BBX 34 35 0 -4
BITMAP
0000000000
0000000000
0000000000
0000000000
0000000000
0000000000
0000000000
0000000000
1ffffff800
1ffffff800
0000000000
0000000000
07f8000000
07f0000000
07e0000000
07e0000000
07f0000000
0738000000
061c000000
060e000000
0007000000
0003800000
0001c00000
0000e00000
0000700000
0000380000
00001c0000
00000e0000
0000070000
0000000000
0000000000
0000000000
0000000000
0000000000
0000000000
ENDCHAR
STARTCHAR 243f
ENCODING 9279
SWIDTH 1020 0
DWIDTH 34 0
BBX 34 35 0 -4
BITMAP
0000000000
0000000000
0000000000
0000000000
0000000000
6000000000
6100000000
6300000000
6700000000
6f00000000
7ffffff000
7ffffff000
6f00000000
6700000000
6300000000
6100000000
6000000000
0000000000
0000000600
0000000600
0000008600
000000c600
000000e600
000000f600
0ffffffe00
0ffffff600
000000e600
000000c600
0000008600
0000000600
0000000000
0000000000
0000000000
0000000000
0000000000
ENDCHAR
STARTCHAR 2440
ENCODING 9280
SWIDTH 1020 0
DWIDTH 34 0
BBX 34 35 0 -4
BITMAP
0000000000
0000000000
0000000000
0000000000
0000000000
0000000000
0000000000
0000000000
0000000000
0000000000
0000000000
1ffffff800
1ffffff800
0000001800
0000001800
0000001800
0000001800
0000001800
0000001800
0000001800
0000001800
0000001800
0000001800
0000000000
0000000000
0000000000
0000000000
0000000000
0000000000
0000000000
0000000000
0000000000
0000000000
0000000000
0000000000
ENDCHAR
STARTCHAR 2441
ENCODING 9281
SWIDTH 1020 0
DWIDTH 34 0
BBX 34 35 0 -4
BITMAP
0000000000
0001800000
0001800000
0001800000
0001800000
0001800000
0001800000
0001800000
0001800000
0001800000
0001800000
0001800000
0001800000
0001800000
0000000000
0000000000
0000000000
0000000000
0000000000
0000000000
0001800000
0001800000
0001800000
0001800000
0001800000
0001800000
0001800000
0001800000
0001800000
0001800000
0001800000
0001800000
0001800000
0000000000
0000000000
ENDCHAR
STARTCHAR 2442
ENCODING 9282
SWIDTH 1020 0
DWIDTH 34 0
BBX 34 35 0 -4
BITMAP
0000000000
0001c00000
0001c00000
0001c00000
0000800000
0000800000
0000800000
0000000000
0000000000
0000000000
0000000000
0000000000
0000000000
0000000000
0000000000
0000000000
0000000000
0000000000
0000000000
0000000000
0000000000
0000000000
0000000000
0000000000
0000000000
0000000000
0000000000
0000000000
0000000000
0000000000
0000000000
0000000000
0000000000
0000000000
0000000000
ENDCHAR
STARTCHAR 2443
ENCODING 9283
SWIDTH 1020 0
DWIDTH 34 0
BBX 34 35 0 -4
BITMAP
0000000000
000e380000
000e380000
000e380000
0004100000
0004100000
0004100000
0000000000
0000000000
0000000000
0000000000
0000000000
0000000000
0000000000
0000000000
0000000000
0000000000
0000000000
0000000000
0000000000
0000000000
0000000000
0000000000
0000000000
0000000000
0000000000
0000000000
0000000000
0000000000
0000000000
0000000000
0000000000
0000000000
0000000000
0000000000
ENDCHAR
STARTCHAR 2444
ENCODING 9284
SWIDTH 1020 0
DWIDTH 34 0
BBX 34 35 0 -4
BITMAP
0000000000
0800001000
0840101000
18701c1800
10701c0800
3061d80c00
2061980400
2061980400
206198c400
6063ffe600
606b180600
cfff180300
c0e3180300
c1e6182300
c1fc187300
c3ebfff300
c36c180300
c366180300
c6663c0300
c6643e0300
cc607b0300
c860f98300
d060d8c300
606198e600
6063187e00
2066183400
206c180400
2078180400
3060180c00
1060180800
1860181800
0860181000
0800001000
0000000000
0000000000
ENDCHAR
STARTCHAR 2445
ENCODING 9285
SWIDTH 1020 0
DWIDTH 34 0
BBX 34 35 0 -4
BITMAP
0000000000
0000000000
0000000000
0000000000
0000000000
f81f800000
180e000000
1804000000
1c04000000
1c04000000
1604000000
1604000000
16040f8000
130418c000
1304306000
1184603000
1184603000
1184c01800
10c4c01800
10c4c01800
1064c01800
1064c01800
1064c01800
1034c01800
1034603000
101c603600
101c306f00
380c18cf00
fc0c0f8600
0000000000
0000000000
0000000000
0000000000
0000000000
0000000000
ENDCHAR
STARTCHAR 2446
ENCODING 9286
SWIDTH 1020 0
DWIDTH 34 0
BBX 34 35 0 -4
BITMAP
0000000000
0000000000
0000000000
0000000000
0000000000
fff0000000
c630000000
8610000000
8610000000
8610000000
0600000000
0600000000
061ffbf000
060c18c000
060c08c000
060c00c000
060c20c000
060c20c000
060c60c000
060fe0c000
060c60c000
060c20c000
060c20c000
060c00c100
060c08c100
060c08c100
060c18c300
3fdffbff00
0000000000
0000000000
0000000000
0000000000
0000000000
0000000000
0000000000
ENDCHAR
STARTCHAR 2447
ENCODING 9287
SWIDTH 1020 0
DWIDTH 34 0
BBX 34 35 0 -4
BITMAP
0000000000
0000000000
0400100000
07821e6000
0601987000
0600d8c000
0608590400
060ffffe00
0618000c00
065900d000
ffd1ffe000
060180c000
060180c000
060180c000
0601ffc000
0601808000
0630006000
07c007f000
070ffe0000
1e00182000
f600187000
660ffff800
0600180000
0600180800
0600181c00
063ffffe00
0600180000
0600180000
0603180000
7e00f80000
0c00300000
0000000000
0000000000
0000000000
0000000000
ENDCHAR
STARTCHAR 2448
ENCODING 9288
SWIDTH 1020 0
DWIDTH 34 0
BBX 34 35 0 -4
BITMAP
0000000000
0000000000
0000000000
0000000800
0000001c00
7ffffffe00
0010300000
0010300000
0010300000
0010300000
0010300000
0010300000
0030300000
0030300000
0030300000
0030300000
0020300000
0020300000
0020300000
0060300000
0040300000
00c0300000
00c0300200
0080300200
0180300200
0300300400
0200300400
0400300600
0800300700
10001ffe00
6000000000
0000000000
0000000000
0000000000
0000000000
ENDCHAR
STARTCHAR 2449
ENCODING 9289
SWIDTH 1020 0
DWIDTH 34 0
BBX 34 35 0 -4
BITMAP
0000000000
0000000000
0100004000
01c000f000
01808fc800
0188f00000
019cc00000
7ffec00000
0380c00c00
0380ffff00
07e0c08000
0db8c08000
0d9c808000
1989808000
3181008000
6183008000
4184008000
0199e08000
0100c00000
0000800800
4000801c00
3ffffffe00
0002e00000
000c900000
00188c0000
0030860000
00c0838000
018080f000
0e00807e00
3800800c00
4000800000
0000800000
0000000000
0000000000
0000000000
ENDCHAR
STARTCHAR 244a
ENCODING 9290
SWIDTH 1020 0
DWIDTH 34 0
BBX 34 35 0 -4
BITMAP
0000000000
0000000000
0080200000
00e010c000
00c21fe000
7fff10c000
00c010c000
00c010c000
00c630c400
1fff30c400
000030c400
100120c400
1fffa0c600
1003407e00
2016c00000
6818801000
6ffc801800
00007ffc00
0000103000
100c103000
1ffe106000
080c086000
080c084000
080c04c000
080c078000
080c030000
180c030000
180c07c000
1ffc1cf000
180c303c00
180cc00e00
0801000000
0000000000
0000000000
0000000000
ENDCHAR
STARTCHAR 244b
ENCODING 9291
SWIDTH 1020 0
DWIDTH 34 0
BBX 34 35 0 -4
BITMAP
0000000000
0000000000
0000100000
18001e0000
0600080800
0310081c00
030ffffe00
0000080000
0040080000
0048080400
404ffffe00
6050100c00
18903c0800
0cb0309000
0cb261e000
0101c18000
0100c30000
0300660000
02002c2000
0200181000
0600300800
041ffff400
040f080600
3c08080400
0c01090000
0403c9c000
0403087000
0406081800
040c180c00
0618180600
0430180600
0000080000
0000000000
0000000000
0000000000
ENDCHAR
ENDFONT
